SplineFontDB: 3.0
FontName: TimesNewerRoman-Regular
FullName: Times Newer Roman Regular
FamilyName: Times Newer Roman
Weight: Regular
Copyright: copyright missing
Version: 001.000
ItalicAngle: 0
UnderlinePosition: -100
UnderlineWidth: 50
Ascent: 800
Descent: 200
InvalidEm: 0
sfntRevision: 0x00010000
LayerCount: 4
Layer: 0 0 "Back" 1
Layer: 1 0 "Fore" 0
Layer: 2 0 "Back 2" 1
Layer: 3 0 "Back 3" 1
XUID: [1021 647 -312734098 25650]
StyleMap: 0x0040
FSType: 8
OS2Version: 3
OS2_WeightWidthSlopeOnly: 0
OS2_UseTypoMetrics: 0
CreationTime: 1536696063
ModificationTime: 1564767118
PfmFamily: 81
TTFWeight: 400
TTFWidth: 5
LineGap: 156
VLineGap: 0
Panose: 0 0 5 0 0 0 0 0 0 0
OS2TypoAscent: 780
OS2TypoAOffset: 0
OS2TypoDescent: -338
OS2TypoDOffset: 0
OS2TypoLinegap: 82
OS2WinAscent: 862
OS2WinAOffset: 0
OS2WinDescent: 338
OS2WinDOffset: 0
HheadAscent: 862
HheadAOffset: 0
HheadDescent: -338
HheadDOffset: 0
OS2SubXSize: 650
OS2SubYSize: 600
OS2SubXOff: 0
OS2SubYOff: 75
OS2SupXSize: 650
OS2SupYSize: 600
OS2SupXOff: 0
OS2SupYOff: 350
OS2StrikeYSize: 50
OS2StrikeYPos: 270
OS2CapHeight: 658
OS2XHeight: 450
OS2Vendor: 'URW '
OS2CodePages: 0000009f.00000000
OS2UnicodeRanges: 00000287.00000000.00000000.00000000
Lookup: 1 0 0 "'aalt' Access All Alternates in Latin lookup 0" { "'aalt' Access All Alternates in Latin lookup 0 subtable"  } ['aalt' ('DFLT' <'dflt' > 'latn' <'AZE ' 'CRT ' 'DEU ' 'MOL ' 'ROM ' 'TRK ' 'dflt' > ) ]
Lookup: 1 0 0 "'locl' Localized Forms in Latin lookup 1" { "'locl' Localized Forms in Latin lookup 1 subtable"  } ['locl' ('latn' <'MOL ' > ) ]
Lookup: 1 0 0 "'locl' Localized Forms in Latin lookup 2" { "'locl' Localized Forms in Latin lookup 2 subtable"  } ['locl' ('latn' <'ROM ' > ) ]
Lookup: 4 0 1 "'liga' Standard Ligatures in Latin lookup 3" { "'liga' Standard Ligatures in Latin lookup 3 subtable"  } ['liga' ('latn' <'AZE ' 'CRT ' 'DEU ' 'MOL ' 'ROM ' 'TRK ' 'dflt' > ) ]

StartChar: exclam
Encoding: 33 33 2
Width: 333
Flags: MW
HStem: -9 105<149 179 149 179.5>
VStem: 111 106<589 622 589 623>
LayerCount: 4
Fore
SplineSet
157 176 m 1
 148 284 l 2
 146 314 140 363 131 422 c 0
 119 497 111 573 111 599 c 0
 111 647 131 676 164 676 c 0
 198 676 217 648 217 596 c 0
 217 582 216 571 215 559 c 2
 170 176 l 1
 157 176 l 1
164 96 m 0
 194 96 219 72 219 42 c 0
 219 12 196 -9 163 -9 c 0
 133 -9 111 13 111 42 c 0
 111 72 134 96 164 96 c 0
EndSplineSet
EndChar

StartChar: quotedbl
Encoding: 34 34 3
Width: 408
Flags: MW
HStem: 431 245<109 109 109 130 278 278 278 299>
VStem: 77 85<626.5 646.5> 246 85<626.5 646.5>
LayerCount: 4
Fore
SplineSet
278 431 m 1
 260 528 246 618 246 635 c 0
 246 658 265 676 289 676 c 0
 312 676 331 658 331 636 c 0
 331 607 322 547 306 471 c 0
 304 462 302 448 299 431 c 1
 278 431 l 1
109 431 m 1
 91 528 77 618 77 635 c 0
 77 658 96 676 120 676 c 0
 143 676 162 658 162 636 c 0
 162 607 153 547 137 471 c 0
 135 462 133 448 130 431 c 1
 109 431 l 1
EndSplineSet
EndChar

StartChar: numbersign
Encoding: 35 35 4
Width: 500
Flags: MW
HStem: 216 55<5 112 5 121 179 304 5 170 371 471> 405 55<32 142 32 150 208 333 32 200 399 496>
VStem: 5 491<216 460 271 460>
LayerCount: 4
Fore
SplineSet
471 216 m 1
 362 216 l 1
 331 0 l 1
 273 0 l 1
 304 216 l 1
 170 216 l 1
 137 0 l 1
 79 0 l 1
 112 216 l 1
 5 216 l 1
 5 271 l 1
 121 271 l 1
 142 405 l 1
 32 405 l 1
 32 460 l 1
 150 460 l 1
 181 662 l 1
 239 662 l 1
 208 460 l 1
 341 460 l 1
 371 662 l 1
 429 662 l 1
 399 460 l 1
 496 460 l 1
 496 405 l 1
 391 405 l 1
 371 271 l 1
 471 271 l 1
 471 216 l 1
200 405 m 1
 179 271 l 1
 313 271 l 1
 333 405 l 1
 200 405 l 1
EndSplineSet
EndChar

StartChar: dollar
Encoding: 36 36 5
Width: 500
Flags: MW
HStem: 0 28<230 230> 637 27<229 230>
VStem: 44 15<51 181 181 181> 52 74<510.5 533.5> 230 34<-87 0 -87 0 28 293 664 727> 378 79<146 177> 410 15<500 611>
LayerCount: 4
Fore
SplineSet
410 500 m 1xea
 393 585 348 627 264 637 c 1
 264 391 l 1
 385 322 411 301 437 260 c 0
 450 239 457 206 457 170 c 0
 457 122 438 81 405 53 c 0
 369 24 338 12 264 0 c 1
 264 -87 l 1
 230 -87 l 1
 230 0 l 1
 146 3 104 14 44 51 c 1
 44 181 l 1
 59 181 l 1xec
 83 76 136 29 230 28 c 1
 230 310 l 1
 159 350 137 365 108 393 c 0
 68 430 52 465 52 512 c 0
 52 555 72 595 106 622 c 0xda
 139 648 167 657 230 664 c 1
 230 727 l 1
 264 727 l 1
 264 664 l 1
 348 654 391 639 425 611 c 1
 425 500 l 1
 410 500 l 1xea
229 637 m 1xdc
 160 623 126 589 126 534 c 0
 126 487 145 463 229 407 c 1
 229 637 l 1xdc
264 28 m 1
 342 43 378 80 378 146 c 0
 378 208 357 235 264 293 c 1
 264 28 l 1
EndSplineSet
EndChar

StartChar: percent
Encoding: 37 37 6
Width: 833
Flags: MW
HStem: -24 27<625.5 666 625.5 689> 306 26<626.5 667.5> 317 24<162.5 204 162.5 226.5> 648 27<164.5 205.5>
VStem: 44 78<446.5 547> 248 77<444.5 542.5> 506 78<105 204.5 105 204.5> 710 77<104.5 201>
LayerCount: 4
Fore
SplineSet
636 676 m 1xbf
 249 -13 l 1
 201 -13 l 1
 593 676 l 1
 636 676 l 1xbf
646 332 m 0xdf
 727 332 787 255 787 152 c 0
 787 48 730 -24 648 -24 c 0
 567 -24 506 52 506 153 c 0
 506 256 566 332 646 332 c 0xdf
647 306 m 0
 606 306 584 254 584 155 c 0
 584 55 605 3 646 3 c 0
 686 3 710 58 710 151 c 0
 710 251 688 306 647 306 c 0
188 675 m 0
 269 675 325 599 325 491 c 0
 325 388 268 317 185 317 c 0xbf
 103 317 44 392 44 495 c 0
 44 599 104 675 188 675 c 0
186 648 m 0
 143 648 122 600 122 501 c 0
 122 392 142 341 183 341 c 0xbf
 225 341 248 396 248 493 c 0
 248 592 225 648 186 648 c 0
EndSplineSet
EndChar

StartChar: ampersand
Encoding: 38 38 7
Width: 778
Flags: MW
HStem: -13 52<227.5 253.5> -13 71<617 631> 405 21<495 711 495 711> 644 32<335 381>
VStem: 42 92<141 181> 202 79<539.5 565> 438 53<531.5 583.5> 559 152<338 405>
LayerCount: 4
Fore
SplineSet
711 405 m 1xbf
 661 399 641 387 617 346 c 2
 591 300 l 2
 560 246 535 209 491 150 c 1
 538 89 589 58 645 58 c 0
 681 58 703 71 735 111 c 1
 750 100 l 1
 720 29 663 -13 599 -13 c 0x7f
 541 -13 492 13 429 78 c 1
 354 12 294 -13 213 -13 c 0
 106 -13 42 44 42 139 c 0
 42 223 93 294 199 355 c 2
 237 377 l 1
 210 452 202 484 202 522 c 0
 202 608 270 676 356 676 c 0
 435 676 491 626 491 555 c 0
 491 483 450 438 336 384 c 1
 380 298 412 247 468 178 c 1
 533 264 559 316 559 360 c 0
 559 390 545 400 495 405 c 1
 495 426 l 1
 711 426 l 1
 711 405 l 1xbf
321 416 m 1
 401 458 438 504 438 559 c 0
 438 608 404 644 358 644 c 0
 312 644 281 611 281 562 c 0
 281 517 291 479 321 416 c 1
252 343 m 1
 165 287 134 244 134 180 c 0
 134 102 192 39 263 39 c 0
 306 39 344 57 404 104 c 1
 347 174 312 229 252 343 c 1
EndSplineSet
EndChar

StartChar: quoteright
Encoding: 8217 8217 8
Width: 333
Flags: MW
HStem: 568 108<120.5 141.5>
VStem: 179 39<557 562>
LayerCount: 4
Fore
SplineSet
97 452 m 1
 151 489 179 525 179 558 c 0
 179 566 173 572 165 572 c 0
 164 572 163 572 158 570 c 0
 152 569 145 568 138 568 c 0
 101 568 79 587 79 619 c 0
 79 653 103 676 138 676 c 0
 183 676 218 637 218 587 c 0
 218 527 173 466 106 433 c 1
 97 452 l 1
EndSplineSet
EndChar

StartChar: parenleft
Encoding: 40 40 9
Width: 356
Flags: MW
HStem: -177 853<304 307>
VStem: 60 86<204.5 307.5 204.5 310.5>
LayerCount: 4
Fore
SplineSet
316 660 m 1
 244 602 214 566 186 504 c 0
 159 442 146 360 146 255 c 0
 146 154 157 79 181 12 c 0
 208 -62 236 -98 316 -161 c 1
 304 -177 l 1
 252 -145 226 -123 185 -75 c 0
 97 27 60 124 60 252 c 0
 60 369 95 469 166 556 c 0
 203 602 233 627 307 676 c 1
 316 660 l 1
EndSplineSet
EndChar

StartChar: parenright
Encoding: 41 41 10
Width: 356
Flags: MW
HStem: -177 853<49 52>
VStem: 210 86<191.5 294.5>
LayerCount: 4
Fore
SplineSet
40 -161 m 1
 112 -103 143 -67 170 -4 c 0
 197 56 210 139 210 244 c 0
 210 345 199 420 175 487 c 0
 147 562 120 597 40 660 c 1
 52 676 l 1
 104 644 130 622 171 574 c 0
 259 472 296 375 296 247 c 0
 296 130 261 30 190 -57 c 0
 153 -103 123 -128 49 -177 c 1
 40 -161 l 1
EndSplineSet
EndChar

StartChar: asterisk
Encoding: 42 42 11
Width: 500
Flags: MW
HStem: 265 411<241 259.5>
VStem: 241 19<429.5 449 486 499 499 510>
LayerCount: 4
Fore
SplineSet
240 456 m 1
 204 432 199 428 189 420 c 0
 181 412 176 407 147 375 c 0
 130 356 121 351 105 351 c 0
 82 351 69 364 69 385 c 0
 69 411 86 423 131 431 c 0
 177 440 193 446 234 471 c 1
 223 478 l 2
 204 491 174 501 137 508 c 0
 88 517 69 530 69 555 c 0
 69 576 83 591 103 591 c 0
 119 591 131 583 151 559 c 0
 183 523 203 507 241 486 c 1
 241 499 l 2
 241 524 236 555 226 590 c 0
 220 611 216 630 216 641 c 0
 216 661 231 676 251 676 c 0
 271 676 287 660 287 640 c 1
 260 510 l 1
 260 484 l 1
 267 488 l 2
 290 501 315 523 339 552 c 0
 363 580 380 593 395 593 c 0
 417 593 431 577 431 554 c 0
 431 528 419 518 380 512 c 0
 337 505 317 498 268 470 c 1
 276 465 l 2
 302 449 335 437 373 431 c 0
 417 424 432 413 432 387 c 0
 432 365 418 350 397 350 c 0
 379 350 362 362 337 393 c 0
 311 426 289 444 267 453 c 2
 260 456 l 1
 260 449 l 2
 260 410 267 372 280 337 c 0
 285 323 288 311 288 305 c 0
 288 284 270 265 249 265 c 0
 230 265 214 282 214 301 c 0
 214 312 218 329 225 348 c 0
 237 380 243 406 243 432 c 0
 243 434 242 440 241 449 c 2
 240 456 l 1
EndSplineSet
EndChar

StartChar: plus
Encoding: 43 43 12
Width: 564
Flags: MW
HStem: 280 53<37 256 37 256 309 528>
VStem: 256 53<60 280 60 280 333 553>
LayerCount: 4
Fore
SplineSet
256 553 m 1
 309 553 l 1
 309 333 l 1
 528 333 l 1
 528 280 l 1
 309 280 l 1
 309 60 l 1
 256 60 l 1
 256 280 l 1
 37 280 l 1
 37 333 l 1
 256 333 l 1
 256 553 l 1
EndSplineSet
EndChar

StartChar: comma
Encoding: 44 44 13
Width: 299
Flags: MW
HStem: -6 108<121.5 142.5>
VStem: 180 39<-17 -12>
LayerCount: 4
Fore
SplineSet
98 -122 m 1
 152 -85 180 -48 180 -16 c 0
 180 -8 174 -2 166 -2 c 0
 165 -2 164 -2 159 -4 c 0
 153 -5 146 -6 139 -6 c 0
 102 -6 80 13 80 45 c 0
 80 79 104 102 139 102 c 0
 184 102 219 63 219 13 c 0
 219 -47 174 -108 107 -141 c 1
 98 -122 l 1
EndSplineSet
EndChar

StartChar: hyphen
Encoding: 45 45 14
Width: 333
Flags: MW
HStem: 194 63<39 285 39 285>
VStem: 39 246<194 257 194 257>
LayerCount: 4
Fore
SplineSet
285 257 m 1
 285 194 l 1
 39 194 l 1
 39 257 l 1
 285 257 l 1
EndSplineSet
EndChar

StartChar: period
Encoding: 46 46 15
Width: 250
Flags: MW
HStem: -11 111<110 139.5>
VStem: 70 111<28.5 58.5 28 59>
LayerCount: 4
Fore
SplineSet
125 100 m 0
 155 100 181 74 181 43 c 0
 181 13 155 -11 124 -11 c 0
 95 -11 70 14 70 43 c 0
 70 75 95 100 125 100 c 0
EndSplineSet
EndChar

StartChar: slash
Encoding: 47 47 16
Width: 278
GlyphClass: 5
Flags: MW
HStem: -14 690<4 278 4 278>
VStem: 4 274
LayerCount: 4
Fore
SplineSet
50 -14 m 1
 4 -14 l 1
 233 676 l 1
 278 676 l 1
 50 -14 l 1
EndSplineSet
EndChar

StartChar: zero
Encoding: 48 48 17
Width: 500
Flags: MW
HStem: -14 26<221 275.5> 650 26<226.5 293>
VStem: 24 96<281 394.5> 380 96<269.5 432.5 269.5 432.5>
LayerCount: 4
Fore
SplineSet
254 676 m 0
 385 676 476 535 476 330 c 0
 476 209 438 93 380 38 c 0
 344 3 301 -14 250 -14 c 0
 192 -14 141 10 104 54 c 0
 57 110 24 226 24 336 c 0
 24 453 62 568 120 624 c 0
 157 660 199 676 254 676 c 0
251 650 m 0
 165 650 120 540 120 327 c 0
 120 119 164 12 250 12 c 0
 336 12 380 119 380 328 c 0
 380 537 335 650 251 650 c 0
EndSplineSet
Substitution2: "'sups' Superscript in Latin lookup 14 subtable" uni2070
Substitution2: "'aalt' Access All Alternates in Latin lookup 0 subtable" uni2070
EndChar

StartChar: one
Encoding: 49 49 18
Width: 500
GlyphClass: 5
Flags: MW
HStem: 0 15<355.5 394 118 118>
VStem: 213 86<93 546 546 562>
LayerCount: 4
Fore
SplineSet
118 15 m 1
 194 16 211 30 213 93 c 2
 213 546 l 2
 213 578 204 593 183 593 c 0
 174 593 150 586 111 571 c 1
 111 585 l 1
 291 676 l 1
 299 674 l 1
 299 74 l 2
 300 26 317 15 394 15 c 1
 394 0 l 1
 118 0 l 1
 118 15 l 1
EndSplineSet
Substitution2: "'sups' Superscript in Latin lookup 14 subtable" uni00B9
Substitution2: "'aalt' Access All Alternates in Latin lookup 0 subtable" uni00B9
EndChar

StartChar: two
Encoding: 50 50 19
Width: 500
GlyphClass: 5
Flags: MW
HStem: 0 76<128 367 128 420> 602 74<211.5 239.5>
VStem: 338 86<460.5 503>
LayerCount: 4
Fore
SplineSet
420 0 m 1
 30 0 l 1
 30 12 l 1
 208 201 l 2
 292 290 338 382 338 461 c 0
 338 545 282 602 197 602 c 0
 127 602 92 570 52 472 c 1
 31 477 l 1
 48 548 63 580 95 614 c 0
 132 654 184 676 239 676 c 0
 343 676 424 599 424 500 c 0
 424 421 385 345 296 252 c 2
 128 76 l 1
 367 76 l 2
 414 77 425 84 462 142 c 1
 475 137 l 1
 420 0 l 1
EndSplineSet
Substitution2: "'sups' Superscript in Latin lookup 14 subtable" uni00B2
Substitution2: "'aalt' Access All Alternates in Latin lookup 0 subtable" uni00B2
EndChar

StartChar: three
Encoding: 51 51 20
Width: 500
GlyphClass: 5
Flags: MW
HStem: -14 36<121 266> 616 60<216 241>
VStem: 318 79<512 541> 359 72<185.5 205.5>
LayerCount: 4
Fore
SplineSet
152 343 m 1xd0
 220 367 248 382 278 412 c 0
 303 438 318 473 318 509 c 0
 318 573 274 616 208 616 c 0
 145 616 100 584 60 510 c 1
 45 514 l 1
 66 574 81 600 111 627 c 0
 147 659 191 676 241 676 c 0
 334 676 397 621 397 539 c 0
 397 485 372 448 304 401 c 1xe0
 347 382 366 370 387 348 c 0
 415 317 431 271 431 219 c 0
 431 152 406 94 359 53 c 0
 311 12 232 -14 156 -14 c 0
 86 -14 43 8 43 43 c 0
 43 64 58 78 81 78 c 0
 98 78 115 71 144 53 c 0
 181 29 201 22 229 22 c 0
 303 22 359 86 359 171 c 0
 359 240 321 296 258 319 c 0
 235 328 212 330 153 330 c 1
 152 343 l 1xd0
EndSplineSet
Substitution2: "'sups' Superscript in Latin lookup 14 subtable" uni00B3
Substitution2: "'aalt' Access All Alternates in Latin lookup 0 subtable" uni00B3
EndChar

StartChar: four
Encoding: 52 52 21
Width: 500
GlyphClass: 5
Flags: MW
HStem: 167 64<52 292 12 12 370 472>
VStem: 12 40<167 231 231 231> 292 78<231 574 574 574>
LayerCount: 4
Fore
SplineSet
472 167 m 1
 370 167 l 1
 370 0 l 1
 293 0 l 1
 293 167 l 1
 12 167 l 1
 12 231 l 1
 326 676 l 1
 370 676 l 1
 370 231 l 1
 472 231 l 1
 472 167 l 1
292 574 m 1
 52 231 l 1
 292 231 l 1
 292 574 l 1
EndSplineSet
Substitution2: "'sups' Superscript in Latin lookup 14 subtable" uni2074
Substitution2: "'aalt' Access All Alternates in Latin lookup 0 subtable" uni2074
EndChar

StartChar: five
Encoding: 53 53 22
Width: 500
GlyphClass: 5
Flags: MW
HStem: -14 37<116 256.5> 583 79<181 377 181 181>
VStem: 356 70<204 244>
LayerCount: 4
Fore
SplineSet
139 498 m 1
 257 477 314 454 358 410 c 0
 407 360 426 314 426 242 c 0
 426 166 405 109 360 64 c 0
 309 13 237 -14 154 -14 c 0
 78 -14 32 10 32 48 c 0
 32 73 46 85 74 85 c 0
 97 85 119 76 151 52 c 0
 181 30 197 23 217 23 c 0
 296 23 356 98 356 194 c 0
 356 294 304 355 189 392 c 0
 147 405 108 412 76 412 c 0
 68 412 64 414 64 420 c 0
 64 422 64 423 65 425 c 2
 174 662 l 1
 383 662 l 2
 405 662 414 668 429 688 c 1
 438 681 l 1
 400 592 l 2
 397 584 394 583 377 583 c 2
 181 583 l 1
 139 498 l 1
EndSplineSet
Substitution2: "'sups' Superscript in Latin lookup 14 subtable" uni2075
Substitution2: "'aalt' Access All Alternates in Latin lookup 0 subtable" uni2075
EndChar

StartChar: six
Encoding: 54 54 23
Width: 500
Flags: MW
HStem: -14 28<227 304 225 320> 382 46<257 285.5> 668 16<446 448>
VStem: 34 93<235.5 288.5 185.5 346> 378 90<150 247.5>
LayerCount: 4
Fore
SplineSet
448 668 m 1
 291 642 179 534 152 383 c 1
 215 421 235 428 279 428 c 0
 396 428 468 348 468 219 c 0
 468 81 382 -14 258 -14 c 0
 196 -14 142 10 104 54 c 0
 61 104 34 192 34 279 c 0
 34 413 93 527 201 604 c 0
 274 655 332 674 446 684 c 1
 448 668 l 1
242 382 m 0
 207 382 176 373 155 357 c 0
 135 342 127 314 127 263 c 0
 127 108 181 14 269 14 c 0
 339 14 378 75 378 185 c 0
 378 310 329 382 242 382 c 0
EndSplineSet
Substitution2: "'sups' Superscript in Latin lookup 14 subtable" uni2076
Substitution2: "'aalt' Access All Alternates in Latin lookup 0 subtable" uni2076
EndChar

StartChar: seven
Encoding: 55 55 24
Width: 500
GlyphClass: 5
Flags: MW
HStem: 588 74<159 376 159 159>
VStem: 26 429<515 646>
LayerCount: 4
Fore
SplineSet
455 646 m 1
 243 -8 l 1
 178 -8 l 1
 376 588 l 1
 159 588 l 2
 103 587 84 574 43 507 c 1
 26 515 l 1
 85 662 l 1
 455 662 l 1
 455 646 l 1
EndSplineSet
Substitution2: "'sups' Superscript in Latin lookup 14 subtable" uni2077
Substitution2: "'aalt' Access All Alternates in Latin lookup 0 subtable" uni2077
EndChar

StartChar: eight
Encoding: 56 56 25
Width: 500
GlyphClass: 5
Flags: MW
HStem: -14 28<221 291.5 221 308> 648 28<212.5 278>
VStem: 56 76<115 185.5> 62 74<521 563.5> 355 69<504.5 569.5> 369 76<103.5 152>
LayerCount: 4
Fore
SplineSet
290 371 m 1xe4
 411 280 445 233 445 155 c 0
 445 52 368 -14 248 -14 c 0
 134 -14 56 53 56 151 c 0xe4
 56 220 77 249 186 332 c 1
 81 424 62 453 62 518 c 0
 62 609 143 676 252 676 c 0
 353 676 424 617 424 534 c 0xd8
 424 466 389 424 290 371 c 1xe4
212 312 m 1
 153 264 132 223 132 158 c 0
 132 72 183 14 259 14 c 0
 324 14 369 59 369 124 c 0
 369 180 345 216 272 268 c 2
 212 312 l 1
261 389 m 1xd8
 329 433 355 474 355 535 c 0
 355 604 312 648 244 648 c 0
 181 648 136 607 136 549 c 0
 136 493 172 447 261 389 c 1xd8
EndSplineSet
Substitution2: "'sups' Superscript in Latin lookup 14 subtable" uni2078
Substitution2: "'aalt' Access All Alternates in Latin lookup 0 subtable" uni2078
EndChar

StartChar: nine
Encoding: 57 57 26
Width: 500
Flags: MW
HStem: 237 43<208 237.5> 648 28<215.5 273.5>
VStem: 30 92<414.5 502.5 414.5 507.5> 362 97<355 394 394 476.5 326.5 478>
LayerCount: 4
Fore
SplineSet
56 -2 m 1
 208 24 319 131 360 294 c 1
 307 253 265 237 210 237 c 0
 102 237 30 318 30 440 c 0
 30 575 119 676 238 676 c 0
 368 676 459 559 459 394 c 0
 459 259 398 135 294 59 c 0
 226 10 171 -9 59 -22 c 1
 56 -2 l 1
362 394 m 2
 362 562 317 648 230 648 c 0
 201 648 176 637 159 617 c 0
 138 591 122 531 122 474 c 0
 122 355 170 280 246 280 c 0
 282 280 319 294 347 317 c 0
 358 326 362 335 362 355 c 2
 362 394 l 2
EndSplineSet
Substitution2: "'sups' Superscript in Latin lookup 14 subtable" uni2079
Substitution2: "'aalt' Access All Alternates in Latin lookup 0 subtable" uni2079
EndChar

StartChar: colon
Encoding: 58 58 27
Width: 278
Flags: MW
HStem: -11 111<121 150.5> 348 111<121 150.5>
VStem: 81 111<28.5 58.5 28 59 387.5 417.5>
LayerCount: 4
Fore
SplineSet
136 459 m 0
 166 459 192 433 192 402 c 0
 192 372 166 348 135 348 c 0
 106 348 81 373 81 402 c 0
 81 434 106 459 136 459 c 0
136 100 m 0
 166 100 192 74 192 43 c 0
 192 13 166 -11 135 -11 c 0
 106 -11 81 14 81 43 c 0
 81 75 106 100 136 100 c 0
EndSplineSet
EndChar

StartChar: semicolon
Encoding: 59 59 28
Width: 278
Flags: MW
HStem: -6 108<121 142.5> 348 111<121 150.5>
VStem: 81 111<387.5 417.5 387.5 418> 180 39<-17 -12>
LayerCount: 4
Fore
SplineSet
98 -122 m 1xd0
 152 -85 180 -48 180 -16 c 0
 180 -8 174 -2 166 -2 c 0
 165 -2 164 -2 159 -4 c 0
 153 -5 146 -6 139 -6 c 0
 102 -6 80 13 80 46 c 0
 80 80 103 102 139 102 c 0
 184 102 219 64 219 13 c 0
 219 -47 176 -107 107 -141 c 1
 98 -122 l 1xd0
136 459 m 0xe0
 166 459 192 433 192 402 c 0
 192 373 166 348 135 348 c 0
 106 348 81 373 81 402 c 0
 81 434 106 459 136 459 c 0xe0
EndSplineSet
EndChar

StartChar: less
Encoding: 60 60 29
Width: 564
Flags: MW
HStem: 54 505<530 530>
VStem: 35 495<54 335 54 335>
LayerCount: 4
Fore
SplineSet
35 277 m 1
 35 335 l 1
 530 559 l 1
 530 501 l 1
 100 306 l 1
 530 111 l 1
 530 54 l 1
 35 277 l 1
EndSplineSet
EndChar

StartChar: equal
Encoding: 61 61 30
Width: 564
Flags: MW
HStem: 180 53<37 528 37 528> 380 53<37 528 37 528>
VStem: 37 491<180 233 180 233 380 433 180 433>
LayerCount: 4
Fore
SplineSet
528 380 m 1
 37 380 l 1
 37 433 l 1
 528 433 l 1
 528 380 l 1
528 180 m 1
 37 180 l 1
 37 233 l 1
 528 233 l 1
 528 180 l 1
EndSplineSet
EndChar

StartChar: greater
Encoding: 62 62 31
Width: 564
Flags: MW
HStem: 54 505<35 35>
VStem: 35 495<54 335 111 335 277 559 277 559>
LayerCount: 4
Fore
SplineSet
35 111 m 1
 465 306 l 1
 35 501 l 1
 35 559 l 1
 530 335 l 1
 530 277 l 1
 35 54 l 1
 35 111 l 1
EndSplineSet
EndChar

StartChar: question
Encoding: 63 63 32
Width: 444
Flags: MW
HStem: -8 105<203 233 203 234> 646 30<170 224.5>
VStem: 49 51<510.5 600> 165 108<28 57.5> 208 17<164 164> 303 92<503 540 500.5 559.5>
LayerCount: 4
Fore
SplineSet
208 164 m 1x6c
 209 208 219 257 238 306 c 2
 266 370 l 2
 290 425 303 480 303 526 c 0
 303 593 255 646 194 646 c 0
 146 646 100 616 100 584 c 0
 100 575 104 567 117 553 c 0
 132 536 138 524 138 510 c 0
 138 485 122 469 97 469 c 0
 65 469 49 490 49 531 c 0
 49 614 119 676 211 676 c 0
 266 676 325 653 359 618 c 0
 382 595 395 559 395 521 c 0
 395 480 382 444 350 395 c 0
 336 374 336 374 290 318 c 0
 253 272 236 232 225 164 c 1
 208 164 l 1x6c
218 97 m 0xf4
 248 97 273 73 273 43 c 0
 273 13 250 -8 218 -8 c 0
 187 -8 165 13 165 42 c 0
 165 73 188 97 218 97 c 0xf4
EndSplineSet
EndChar

StartChar: at
Encoding: 64 64 33
Width: 921
Flags: MW
HStem: -198 49<394.5 529.5> 1 42<649.5 680 649.5 703> 2 55<379 470> 408 55 637 39<386.5 573.5>
VStem: 79 64<116 343.5 116 355.5> 308 80<131 189.5> 546 75 809 45<258 388>
LayerCount: 4
Fore
SplineSet
732 -125 m 1xdf80
 622 -182 568 -198 491 -198 c 0
 258 -198 79 -11 79 232 c 0
 79 479 260 676 487 676 c 0
 694 676 854 514 854 305 c 0
 854 141 759 1 647 1 c 0xdf80
 594 1 553 38 546 94 c 1
 509 37 456 2 407 2 c 0xbf80
 351 2 308 64 308 143 c 0
 308 236 343 333 401 399 c 0
 439 443 478 463 528 463 c 0
 567 463 583 450 608 398 c 1
 619 446 l 1
 696 446 l 1
 623 124 l 2
 622 117 621 109 621 101 c 0
 621 62 635 43 664 43 c 0
 696 43 722 60 750 98 c 0
 787 149 809 223 809 293 c 0
 809 483 663 637 484 637 c 0
 289 637 143 461 143 226 c 0
 143 6 290 -149 499 -149 c 0
 574 -149 632 -133 718 -87 c 1
 732 -125 l 1xdf80
544 408 m 0
 516 410 477 385 445 344 c 0
 409 297 388 231 388 164 c 0
 388 98 414 57 455 57 c 0
 485 57 518 86 539 130 c 0xbf80
 568 191 589 275 589 327 c 0
 589 380 575 405 544 408 c 0
EndSplineSet
EndChar

StartChar: A
Encoding: 65 65 34
Width: 722
Flags: MW
HStem: 0 19<189 213 15 15> 216 41<216 447 216 461 199 447>
VStem: 15 130<0 66 19 66> 15 691<0 19 0 19>
LayerCount: 4
Fore
SplineSet
706 0 m 1xd0
 451 0 l 1
 451 19 l 1
 504 20 521 28 521 53 c 0
 521 67 514 93 502 120 c 2
 461 216 l 1
 199 216 l 1
 153 99 l 2
 148 86 145 72 145 60 c 0
 145 31 165 19 213 19 c 1
 213 0 l 1
 15 0 l 1
 15 19 l 1xe0
 63 21 75 37 139 183 c 2
 347 674 l 1
 367 674 l 1
 616 106 l 2
 651 32 661 22 706 19 c 1
 706 0 l 1xd0
447 257 m 1
 331 532 l 1
 216 257 l 1
 447 257 l 1
EndSplineSet
Substitution2: "Single Substitution lookup 17 subtable" ordfeminine
Substitution2: "'aalt' Access All Alternates in Latin lookup 0 subtable" ordfeminine
EndChar

StartChar: B
Encoding: 66 66 35
Width: 667
Flags: MW
HStem: 0 19<17 351 17 17> 326 39.5 643 19<17 297>
VStem: 113 102<109 326 365 553 553 553> 457 102<471 532.5> 478 115<156 202 156 210>
LayerCount: 4
Fore
SplineSet
17 662 m 1xf8
 297 662 l 2
 469 662 559 604 559 492 c 0
 559 450 544 414 519 392 c 0xf8
 495 371 474 361 422 348 c 1
 487 332 514 320 544 293 c 0
 576 264 593 224 593 180 c 0
 593 132 573 87 537 55 c 0xf4
 500 21 428 0 351 0 c 2
 17 0 l 1
 17 19 l 1
 99 22 112 34 113 109 c 2
 113 553 l 2
 112 628 101 638 17 643 c 1
 17 662 l 1xf8
215 78 m 2
 215 46 229 37 278 37 c 0
 344 37 385 45 417 63 c 0
 457 86 478 125 478 179 c 0
 478 241 451 282 394 305 c 0xf4
 358 320 312 326 215 326 c 1
 215 78 l 2
310 366 m 2
 406 367 457 409 457 488 c 0
 457 577 392 628 281 625 c 2
 237 624 l 2
 220 623 216 617 215 595 c 2
 215 365 l 1
 310 366 l 2
EndSplineSet
EndChar

StartChar: C
Encoding: 67 67 36
Width: 667
Flags: MW
HStem: -14 44<360.5 416.5> 636 40<322 386.5 322 410.5>
VStem: 28 116<282.5 381>
LayerCount: 4
Fore
SplineSet
597 451 m 1
 578 516 563 544 531 576 c 0
 491 615 439 636 382 636 c 0
 237 636 144 520 144 338 c 0
 144 227 175 137 230 88 c 0
 273 50 329 30 392 30 c 0
 475 30 541 60 615 131 c 1
 633 113 l 1
 573 32 473 -14 360 -14 c 0
 161 -14 28 122 28 326 c 0
 28 436 66 528 136 590 c 0
 199 645 281 676 363 676 c 0
 410 676 460 668 509 651 c 0
 524 646 539 643 548 643 c 0
 568 643 584 655 590 676 c 1
 611 676 l 1
 620 451 l 1
 597 451 l 1
EndSplineSet
EndChar

StartChar: D
Encoding: 68 68 37
Width: 722
Flags: MW
HStem: 0 37<238 300> 625 37<237 286 286 301.5>
VStem: 104 102<109 553 553 553> 576 109<285.5 379 285.5 381>
LayerCount: 4
Fore
SplineSet
16 19 m 1
 91 24 103 36 104 109 c 2
 104 553 l 2
 103 628 95 636 16 643 c 1
 16 662 l 1
 286 662 l 2
 423 662 532 626 600 557 c 0
 656 502 685 424 685 334 c 0
 685 237 648 148 583 89 c 0
 521 33 416 0 300 0 c 2
 16 0 l 1
 16 19 l 1
206 78 m 2
 206 46 218 37 258 37 c 0
 345 37 403 49 454 78 c 0
 535 125 576 209 576 327 c 0
 576 435 535 521 457 575 c 0
 409 609 345 625 258 625 c 0
 216 625 206 617 206 586 c 2
 206 78 l 2
EndSplineSet
EndChar

StartChar: E
Encoding: 69 69 38
Width: 611
Flags: MW
HStem: 0 37<306 333 306 552> 327 41<201 355 201 355> 624 38<220 234 234 369>
VStem: 99 102<109 327 368 553 553 553> 465 23<231 463 231 463> 521 23.5
LayerCount: 4
Fore
SplineSet
552 0 m 1
 12 0 l 1
 12 19 l 1
 84 23 97 37 99 109 c 2
 99 553 l 2
 97 625 85 638 12 643 c 1
 12 662 l 1
 543 662 l 1
 546 519 l 1
 521 519 l 1
 505 608 485 622 369 624 c 2
 234 624 l 2
 206 624 202 620 201 590 c 2
 201 368 l 1
 355 368 l 2
 439 370 453 382 465 463 c 1
 488 463 l 1
 488 231 l 1
 465 231 l 1
 452 313 439 325 355 327 c 2
 201 327 l 1
 201 80 l 2
 201 41 202 40 306 37 c 2
 333 37 l 2
 476 38 521 63 569 169 c 1
 597 169 l 1
 552 0 l 1
EndSplineSet
EndChar

StartChar: F
Encoding: 70 70 39
Width: 556
Flags: MW
HStem: 0 19<12 292 12 12> 327 41<201 346 201 346> 624 38<233 369 233 233>
VStem: 99 102<120 327 109 368 368 553 553 553> 456 23<231 463 231 463> 521 23.5
LayerCount: 4
Fore
SplineSet
456 231 m 1
 444 312 428 326 346 327 c 2
 201 327 l 1
 201 109 l 2
 202 36 216 22 292 19 c 1
 292 0 l 1
 12 0 l 1
 12 19 l 1
 88 24 98 35 99 120 c 2
 99 553 l 2
 97 625 85 638 12 643 c 1
 12 662 l 1
 543 662 l 1
 546 519 l 1
 521 519 l 1
 505 608 485 622 369 624 c 2
 233 624 l 2
 205 623 202 620 201 590 c 2
 201 368 l 1
 346 368 l 2
 428 370 445 384 456 463 c 1
 479 463 l 1
 479 231 l 1
 456 231 l 1
EndSplineSet
EndChar

StartChar: G
Encoding: 71 71 40
Width: 722
Flags: MW
HStem: -14 40<333 431.5> 336 18<454 709 454 709> 636 40<358 397.5 275 420>
VStem: 32 114<276 373 233 427> 542 97<85 247 247 247> 600 26
LayerCount: 4
Fore
SplineSet
709 336 m 1xf8
 652 332 641 320 639 259 c 2
 639 56 l 1xf8
 599 21 475 -14 388 -14 c 0
 278 -14 181 24 115 93 c 0
 59 152 32 227 32 325 c 0
 32 529 175 676 375 676 c 0
 420 676 466 668 511 653 c 0
 529 647 545 643 555 643 c 0
 576 643 594 656 600 676 c 1
 622 676 l 1
 630 465 l 1
 607 465 l 1
 582 526 566 552 536 581 c 0xf4
 498 617 448 636 392 636 c 0
 324 636 262 609 218 560 c 0
 174 511 146 420 146 326 c 0
 146 140 246 26 409 26 c 0
 482 26 542 53 542 85 c 2
 542 247 l 2
 540 323 532 331 454 336 c 1
 454 354 l 1
 709 354 l 1
 709 336 l 1xf8
EndSplineSet
EndChar

StartChar: H
Encoding: 72 72 41
Width: 722
Flags: MW
HStem: 0 19<19 297 19 19> 315 44<209 512 209 512> 643 19<19 297 19 297>
VStem: 107 102<120 315 359 553> 512 102<120 315 315 315 359 553 109 553>
LayerCount: 4
Fore
SplineSet
19 19 m 1
 97 24 106 35 107 120 c 2
 107 553 l 2
 106 627 96 637 19 643 c 1
 19 662 l 1
 297 662 l 1
 297 643 l 1
 220 636 210 626 209 553 c 2
 209 359 l 1
 512 359 l 1
 512 553 l 2
 511 627 501 637 424 643 c 1
 424 662 l 1
 702 662 l 1
 702 643 l 1
 625 636 615 626 614 553 c 2
 614 109 l 2
 615 37 627 25 702 19 c 1
 702 0 l 1
 424 0 l 1
 424 19 l 1
 502 24 511 35 512 120 c 2
 512 315 l 1
 209 315 l 1
 209 109 l 2
 210 37 222 25 297 19 c 1
 297 0 l 1
 19 0 l 1
 19 19 l 1
EndSplineSet
EndChar

StartChar: I
Encoding: 73 73 42
Width: 333
Flags: MW
HStem: 0 19<18 315 18 18> 643 19<18 315 18 315>
VStem: 115 102<109 553 109 553>
LayerCount: 4
Fore
SplineSet
18 19 m 1
 102 22 114 33 115 109 c 2
 115 553 l 2
 114 628 103 638 18 643 c 1
 18 662 l 1
 315 662 l 1
 315 643 l 1
 232 640 219 628 217 553 c 2
 217 109 l 2
 219 35 233 21 315 19 c 1
 315 0 l 1
 18 0 l 1
 18 19 l 1
EndSplineSet
EndChar

StartChar: J
Encoding: 74 74 43
Width: 389
Flags: MW
HStem: -14 38<137 157 137 169> 643 19<89 376 89 376>
VStem: 182 102<120.5 183 183 553>
LayerCount: 4
Fore
SplineSet
376 643 m 1
 295 637 286 628 284 553 c 2
 284 183 l 2
 284 58 223 -14 115 -14 c 0
 57 -14 16 16 16 58 c 0
 16 85 38 108 65 108 c 0
 91 108 107 92 117 57 c 0
 124 32 130 24 144 24 c 0
 170 24 182 45 182 90 c 2
 182 553 l 2
 181 627 170 637 89 643 c 1
 89 662 l 1
 376 662 l 1
 376 643 l 1
EndSplineSet
EndChar

StartChar: K
Encoding: 75 75 44
Width: 722
Flags: MW
HStem: 0 19<27 309 27 27> 643 19<27 311 27 311>
VStem: 117 102<120 296 109 348 348 553>
LayerCount: 4
Fore
SplineSet
406 662 m 1
 668 662 l 1
 668 643 l 1
 600 638 584 630 516 565 c 2
 326 377 l 1
 559 127 l 2
 650 30 664 20 716 19 c 1
 716 0 l 1
 411 0 l 1
 411 19 l 1
 423 20 434 20 439 20 c 0
 468 21 481 28 481 42 c 0
 481 66 427 136 351 212 c 2
 245 317 l 1
 219 296 l 1
 219 109 l 2
 220 35 232 24 309 19 c 1
 309 0 l 1
 27 0 l 1
 27 19 l 1
 105 24 116 35 117 120 c 2
 117 553 l 2
 115 626 104 638 27 643 c 1
 27 662 l 1
 311 662 l 1
 311 643 l 1
 230 637 220 628 219 553 c 2
 219 348 l 1
 396 509 l 2
 451 560 474 590 474 612 c 0
 474 636 466 640 406 643 c 1
 406 662 l 1
EndSplineSet
EndChar

StartChar: L
Encoding: 76 76 45
Width: 611
Flags: MW
HStem: 0 39<287 354 287 550> 643 19<12 294 12 294>
VStem: 99 102<109 553 80 553>
LayerCount: 4
Fore
SplineSet
294 643 m 1
 216 639 203 626 201 553 c 2
 201 80 l 2
 202 44 210 41 287 39 c 2
 354 39 l 1
 483 43 526 69 573 174 c 1
 598 174 l 1
 550 0 l 1
 12 0 l 1
 12 19 l 1
 84 23 97 37 99 109 c 2
 99 553 l 2
 97 625 85 638 12 643 c 1
 12 662 l 1
 294 662 l 1
 294 643 l 1
EndSplineSet
EndChar

StartChar: M
Encoding: 77 77 46
Width: 889
Flags: MW
HStem: 0 19<12 247 12 12> 643 19<14 212>
VStem: 109 44<147 550 147 553 147 553> 674 102<120 553 109 573 109 573>
LayerCount: 4
Fore
SplineSet
863 643 m 1
 790 638 778 625 776 553 c 2
 776 109 l 2
 778 37 791 23 863 19 c 1
 863 0 l 1
 583 0 l 1
 583 19 l 1
 662 24 673 35 674 120 c 2
 674 573 l 1
 418 0 l 1
 404 0 l 1
 153 550 l 1
 153 147 l 2
 155 44 170 23 247 19 c 1
 247 0 l 1
 12 0 l 1
 12 19 l 1
 94 24 107 41 109 147 c 2
 109 553 l 2
 107 628 96 639 14 643 c 1
 14 662 l 1
 212 662 l 1
 443 157 l 1
 664 662 l 1
 863 662 l 1
 863 643 l 1
EndSplineSet
EndChar

StartChar: N
Encoding: 78 78 47
Width: 722
Flags: MW
HStem: 0 19<12 247 12 12> 643 19<12 33.5>
VStem: 109 44<147 539 147 588> 568 44<178 515 -11 515>
LayerCount: 4
Fore
SplineSet
707 643 m 1
 628 636 615 619 612 515 c 2
 612 -11 l 1
 595 -11 l 1
 153 539 l 1
 153 147 l 2
 155 44 170 23 247 19 c 1
 247 0 l 1
 12 0 l 1
 12 19 l 1
 94 24 107 41 109 147 c 2
 109 588 l 1
 69 635 55 643 12 643 c 1
 12 662 l 1
 183 662 l 1
 568 178 l 1
 568 515 l 2
 565 621 552 638 472 643 c 1
 472 662 l 1
 707 662 l 1
 707 643 l 1
EndSplineSet
EndChar

StartChar: O
Encoding: 79 79 48
Width: 722
Flags: MW
HStem: -14 36<336 385.5 336 453.5> 640 36<333.5 384>
VStem: 34 114<284 380 273.5 432> 574 114<298.5 376.5 226 387.5>
LayerCount: 4
Fore
SplineSet
361 676 m 0
 457 676 541 640 604 571 c 0
 659 512 688 426 688 327 c 0
 688 125 552 -14 355 -14 c 0
 267 -14 178 25 120 88 c 0
 66 145 34 237 34 331 c 0
 34 533 170 676 361 676 c 0
361 640 m 0
 306 640 257 618 218 575 c 0
 176 528 148 431 148 329 c 0
 148 218 181 117 232 71 c 0
 268 40 313 22 359 22 c 0
 412 22 457 40 492 75 c 0
 515 98 532 123 541 148 c 0
 561 200 574 269 574 328 c 0
 574 447 543 541 489 590 c 0
 453 622 407 640 361 640 c 0
EndSplineSet
Substitution2: "Single Substitution lookup 17 subtable" ordmasculine
Substitution2: "'aalt' Access All Alternates in Latin lookup 0 subtable" ordmasculine
EndChar

StartChar: P
Encoding: 80 80 49
Width: 556
Flags: MW
HStem: 0 19<16 296 16 16> 288 40<258 310.5> 625 37<222.5 280 280 303.5>
VStem: 100 102<120 291 331 553 553 553> 433 109<448 502 448 526.5>
LayerCount: 4
Fore
SplineSet
16 662 m 1
 280 662 l 2
 374 662 461 634 501 590 c 0
 528 561 542 523 542 481 c 0
 542 415 506 354 446 322 c 0
 403 298 350 288 271 288 c 0
 245 288 228 289 202 291 c 1
 202 109 l 2
 203 35 217 21 296 19 c 1
 296 0 l 1
 16 0 l 1
 16 19 l 1
 92 26 99 35 100 120 c 2
 100 553 l 2
 99 626 90 635 16 643 c 1
 16 662 l 1
202 331 m 1
 225 329 239 328 259 328 c 0
 374 328 433 378 433 475 c 0
 433 578 371 625 236 625 c 0
 209 625 202 618 202 591 c 2
 202 331 l 1
EndSplineSet
EndChar

StartChar: Q
Encoding: 81 81 50
Width: 722
Flags: MW
HStem: -178 19 640 36<335 385.5>
VStem: 34 114<280 383 276 430.5> 574 114<283.5 389.5>
LayerCount: 4
Fore
SplineSet
701 -177 m 1
 695 -177 l 2
 685 -178 674 -178 661 -178 c 0
 501 -178 380 -136 312 -56 c 2
 265 -1 l 1
 194 23 162 43 123 85 c 0
 64 149 34 231 34 329 c 0
 34 532 170 676 361 676 c 0
 552 676 688 533 688 331 c 0
 688 220 650 129 576 63 c 0
 530 23 494 6 426 -7 c 1
 507 -112 587 -156 701 -159 c 1
 701 -177 l 1
364 640 m 0
 306 640 258 619 218 575 c 0
 177 529 148 431 148 335 c 0
 148 217 180 118 232 71 c 0
 269 39 313 22 361 22 c 0
 416 22 468 45 505 86 c 0
 545 132 574 234 574 333 c 0
 574 446 542 542 488 590 c 0
 453 621 407 640 364 640 c 0
EndSplineSet
EndChar

StartChar: R
Encoding: 82 82 51
Width: 667
Flags: MW
HStem: 0 19<17 294 17 17> 307 36 625 37<235 293 293 317.5>
VStem: 102 102<120 306 343 553 553 553> 438 109<463 507.5 440 535>
LayerCount: 4
Fore
SplineSet
659 0 m 1
 498 0 l 1
 260 308 l 1
 204 306 l 1
 204 109 l 2
 205 36 217 24 294 19 c 1
 294 0 l 1
 17 0 l 1
 17 19 l 1
 92 25 101 35 102 120 c 2
 102 553 l 2
 101 626 91 635 17 643 c 1
 17 662 l 1
 293 662 l 2
 387 662 470 636 508 595 c 0
 534 566 547 529 547 486 c 0
 547 394 493 344 366 319 c 1
 572 66 l 2
 601 32 621 22 659 19 c 1
 659 0 l 1
204 343 m 1
 300 345 335 351 381 377 c 0
 417 396 438 438 438 488 c 0
 438 582 380 625 255 625 c 0
 215 625 204 617 204 589 c 2
 204 343 l 1
EndSplineSet
EndChar

StartChar: S
Encoding: 83 83 52
Width: 556
Flags: MW
HStem: -14 36<267.5 303.5 222 345> 635 41<230 259.5 222 283.5>
VStem: 71 86<515.5 531> 72 22<-13 -13> 390 101<116.5 146.5> 426 21<676 676>
LayerCount: 4
Fore
SplineSet
469 463 m 1xe4
 444 463 l 1
 428 522 414 548 383 580 c 0
 348 616 306 635 261 635 c 0
 199 635 157 598 157 543 c 0xe4
 157 488 199 444 304 387 c 0
 436 315 491 250 491 168 c 0
 491 65 403 -14 287 -14 c 0
 248 -14 207 -6 169 9 c 0
 150 16 133 20 122 20 c 0
 107 20 95 6 94 -13 c 1
 72 -13 l 1
 42 199 l 1
 65 199 l 1
 115 77 177 22 267 22 c 0
 340 22 390 68 390 134 c 0
 390 159 385 180 376 193 c 0xd8
 351 231 299 271 227 310 c 0
 115 369 71 425 71 505 c 0
 71 557 89 599 124 630 c 0
 157 659 201 676 243 676 c 0
 276 676 313 668 350 654 c 0
 367 646 384 642 394 642 c 0
 411 642 422 653 426 676 c 1
 447 676 l 1
 469 463 l 1xe4
EndSplineSet
EndChar

StartChar: T
Encoding: 84 84 53
Width: 611
Flags: MW
HStem: 0 19<160 452 160 160> 620 42<200 254 200 200 356 356 356 410>
VStem: 20 21 254 102<120 620 109 620> 569 21<492 492>
LayerCount: 4
Fore
SplineSet
452 0 m 1
 160 0 l 1
 160 19 l 1
 244 24 253 34 254 120 c 2
 254 620 l 1
 200 620 l 2
 85 618 64 601 41 492 c 1
 17 492 l 1
 23 662 l 1
 587 662 l 1
 593 492 l 1
 569 492 l 1
 547 601 526 618 410 620 c 2
 356 620 l 1
 356 109 l 2
 357 36 370 23 452 19 c 1
 452 0 l 1
EndSplineSet
EndChar

StartChar: U
Encoding: 85 85 54
Width: 722
Flags: MW
HStem: -14 44<342.5 409.5> 643 19<14 297 14 297>
VStem: 104 102<241 553> 567 44<245 254 254 515>
LayerCount: 4
Fore
SplineSet
705 643 m 1
 624 634 613 620 611 515 c 2
 611 254 l 2
 611 177 602 131 578 89 c 0
 539 21 464 -14 355 -14 c 0
 185 -14 104 68 104 241 c 2
 104 553 l 2
 103 627 93 637 14 643 c 1
 14 662 l 1
 297 662 l 1
 297 643 l 1
 217 636 207 626 206 553 c 2
 206 233 l 2
 206 170 213 133 231 101 c 0
 258 54 307 30 378 30 c 0
 453 30 517 61 544 109 c 0
 560 139 567 177 567 245 c 2
 567 515 l 2
 565 618 550 638 473 643 c 1
 473 662 l 1
 705 662 l 1
 705 643 l 1
EndSplineSet
EndChar

StartChar: V
Encoding: 86 86 55
Width: 722
Flags: MW
HStem: 643 19<16 282 16 282>
VStem: 16 681<643 662 643 662>
LayerCount: 4
Fore
SplineSet
697 643 m 1
 649 640 638 629 605 550 c 2
 383 -11 l 1
 368 -11 l 1
 122 538 l 2
 79 627 65 641 16 643 c 1
 16 662 l 1
 282 662 l 1
 282 643 l 1
 269 642 258 641 253 641 c 0
 221 639 207 630 207 610 c 0
 207 595 215 573 248 499 c 2
 399 161 l 1
 546 528 l 2
 558 558 565 585 565 601 c 0
 565 629 547 640 492 643 c 1
 492 662 l 1
 697 662 l 1
 697 643 l 1
EndSplineSet
EndChar

StartChar: W
Encoding: 87 87 56
Width: 944
Flags: MW
HStem: 643 19<5 250 5 250>
VStem: 5 927<643 662 643 662>
LayerCount: 4
Fore
SplineSet
932 643 m 1
 879 633 868 624 849 572 c 0
 740 278 730 250 645 -11 c 1
 630 -11 l 1
 470 412 l 1
 316 -11 l 1
 301 -11 l 1
 108 526 l 2
 71 620 56 638 5 643 c 1
 5 662 l 1
 250 662 l 1
 250 643 l 1
 199 640 185 633 185 611 c 0
 185 600 189 583 196 565 c 2
 340 189 l 1
 447 471 l 1
 414 553 l 2
 380 633 370 642 313 643 c 1
 313 662 l 1
 580 662 l 1
 580 643 l 1
 526 642 503 632 503 608 c 0
 503 597 509 578 518 557 c 0
 519 554 528 532 530 527 c 2
 662 186 l 1
 787 525 l 2
 797 553 803 580 803 600 c 0
 803 627 785 638 734 643 c 1
 734 662 l 1
 932 662 l 1
 932 643 l 1
EndSplineSet
EndChar

StartChar: X
Encoding: 88 88 57
Width: 722
Flags: MW
HStem: 0 19<10 243 10 10> 643 19<22 324 22 324>
VStem: 10 694<0 19 0 19>
LayerCount: 4
Fore
SplineSet
696 643 m 1
 632 639 612 627 547 549 c 2
 401 367 l 1
 593 93 l 2
 636 35 651 25 704 19 c 1
 704 0 l 1
 407 0 l 1
 407 19 l 1
 419 20 430 21 434 21 c 0
 468 22 484 32 484 50 c 0
 484 65 467 98 433 148 c 2
 338 288 l 1
 219 140 l 2
 182 94 167 69 167 54 c 0
 167 31 185 23 243 19 c 1
 243 0 l 1
 10 0 l 1
 10 19 l 1
 61 23 66 27 155 133 c 2
 312 326 l 1
 203 486 l 2
 105 625 87 640 22 643 c 1
 22 662 l 1
 324 662 l 1
 324 643 l 1
 296 642 l 2
 263 641 248 633 248 613 c 0
 248 591 272 549 333 463 c 2
 375 404 l 1
 488 542 l 2
 518 578 528 596 528 611 c 0
 528 634 512 641 458 643 c 1
 458 662 l 1
 696 662 l 1
 696 643 l 1
EndSplineSet
EndChar

StartChar: Y
Encoding: 89 89 58
Width: 722
Flags: MW
HStem: 0 19<214 520 214 214> 643 19<22 302 22 302>
VStem: 315 102<120 294 294 294>
LayerCount: 4
Fore
SplineSet
703 643 m 1
 652 639 626 617 565 529 c 2
 417 303 l 1
 417 109 l 2
 418 32 431 21 520 19 c 1
 520 0 l 1
 214 0 l 1
 214 19 l 1
 305 23 314 32 315 120 c 2
 315 294 l 1
 184 486 l 2
 84 627 70 641 22 643 c 1
 22 662 l 1
 302 662 l 1
 302 643 l 1
 291 642 281 642 277 642 c 0
 245 640 231 632 231 613 c 0
 231 602 237 585 248 569 c 2
 396 347 l 1
 539 573 l 2
 549 588 553 600 553 610 c 0
 553 634 536 642 484 643 c 1
 484 662 l 1
 703 662 l 1
 703 643 l 1
EndSplineSet
EndChar

StartChar: Z
Encoding: 90 90 59
Width: 611
Flags: MW
HStem: 0 38<145 402 145 573> 624 38<225 446 225 225>
VStem: 9 588<0 176 15 176>
LayerCount: 4
Fore
SplineSet
597 176 m 1
 573 0 l 1
 9 0 l 1
 9 15 l 1
 446 624 l 1
 225 624 l 2
 110 621 74 592 57 491 c 1
 31 491 l 1
 51 662 l 1
 577 662 l 1
 577 647 l 1
 145 38 l 1
 402 38 l 1
 510 42 544 69 574 176 c 1
 597 176 l 1
EndSplineSet
EndChar

StartChar: bracketleft
Encoding: 91 91 60
Width: 333
Flags: MW
HStem: -156 25<213 299 213 299> 637 25<209 209 209 299>
VStem: 88 76<-79 593 -79 662 -79 662>
LayerCount: 4
Fore
SplineSet
209 637 m 2
 176 636 165 625 164 593 c 2
 164 -79 l 2
 165 -115 179 -130 213 -131 c 2
 299 -131 l 1
 299 -156 l 1
 88 -156 l 1
 88 662 l 1
 299 662 l 1
 299 637 l 1
 209 637 l 2
EndSplineSet
EndChar

StartChar: backslash
Encoding: 92 92 61
Width: 278
Flags: MW
HStem: -14 690<8 287 8 242>
VStem: 8 279
LayerCount: 4
Fore
SplineSet
58 676 m 1
 287 -14 l 1
 242 -14 l 1
 8 676 l 1
 58 676 l 1
EndSplineSet
EndChar

StartChar: bracketright
Encoding: 93 93 62
Width: 333
Flags: MW
HStem: -156 25<34 124 34 245 34 124> 637 25<34 120 34 245>
VStem: 169 76<-87 585 585 585>
LayerCount: 4
Fore
SplineSet
124 -131 m 2
 157 -130 168 -119 169 -87 c 2
 169 585 l 2
 168 621 154 636 120 637 c 2
 34 637 l 1
 34 662 l 1
 245 662 l 1
 245 -156 l 1
 34 -156 l 1
 34 -131 l 1
 124 -131 l 2
EndSplineSet
EndChar

StartChar: asciicircum
Encoding: 94 94 63
Width: 469
Flags: MW
HStem: 297 365<24 265 24 265 205 378 205 446>
VStem: 24 422<297 297>
LayerCount: 4
Fore
SplineSet
24 297 m 1
 205 662 l 1
 265 662 l 1
 446 297 l 1
 378 297 l 1
 235 586 l 1
 92 297 l 1
 24 297 l 1
EndSplineSet
EndChar

StartChar: underscore
Encoding: 95 95 64
Width: 500
Flags: MW
HStem: -125 50<0 500 0 500>
VStem: 0 500<-125 -75 -125 -75>
LayerCount: 4
Fore
SplineSet
0 -125 m 1
 0 -75 l 1
 500 -75 l 1
 500 -125 l 1
 0 -125 l 1
EndSplineSet
EndChar

StartChar: quoteleft
Encoding: 8216 8216 65
Width: 333
Flags: MW
HStem: 433 108<191.5 212.5>
VStem: 115 39<547 552>
LayerCount: 4
Fore
SplineSet
236 657 m 1
 182 619 154 584 154 551 c 0
 154 543 160 537 168 537 c 0
 169 537 170 537 175 539 c 0
 181 540 188 541 195 541 c 0
 232 541 254 522 254 490 c 0
 254 456 230 433 195 433 c 0
 149 433 115 471 115 522 c 0
 115 582 160 643 227 676 c 1
 236 657 l 1
EndSplineSet
EndChar

StartChar: a
Encoding: 97 97 66
Width: 467
Flags: MW
HStem: -10 61<115 216> 458 25<199 245.5>
VStem: 37 87<109.5 119.5> 57 87<354 421> 305 80<130 282 282 282 307 315>
LayerCount: 4
Fore
SplineSet
462 42 m 1xd8
 425 3 403 -10 368 -10 c 0
 325 -10 312 11 307 67 c 1
 242 12 203 -10 147 -10 c 0
 83 -10 37 36 37 102 c 0
 37 137 52 173 75 194 c 0xe8
 120 234 144 242 305 307 c 1
 305 371 l 2
 305 428 271 458 220 458 c 0
 178 458 144 435 144 407 c 0
 144 399 145 391 147 382 c 0
 148 374 149 369 149 365 c 0
 149 342 127 321 102 321 c 0
 77 321 57 342 57 366 c 0
 57 432 135 483 233 483 c 0
 295 483 340 464 364 426 c 0
 379 401 385 370 385 315 c 2
 385 111 l 2
 385 65 392 50 416 50 c 0
 432 50 444 55 462 70 c 1
 462 42 l 1xd8
305 282 m 1xe8
 183 239 124 199 124 136 c 2
 124 132 l 2
 124 87 154 51 200 51 c 0
 232 51 252 59 278 74 c 0
 300 87 305 98 305 130 c 2
 305 282 l 1xe8
EndSplineSet
Substitution2: "Single Substitution lookup 17 subtable" ordfeminine
Substitution2: "'aalt' Access All Alternates in Latin lookup 0 subtable" ordfeminine
EndChar

StartChar: b
Encoding: 98 98 67
Width: 530
Flags: MW
HStem: -10 34<249.5 320 249.5 327.5> 425 58<287 294> 624 15<19 56.5>
VStem: 85 88<61.5 75 75 345> 416 88<180.5 249.5>
LayerCount: 4
Fore
SplineSet
173 394 m 1
 194 447 255 483 319 483 c 0
 424 483 504 386 504 256 c 0
 504 105 397 -10 258 -10 c 0
 173 -10 85 25 85 57 c 2
 85 573 l 2
 85 615 77 624 36 624 c 0
 29 624 25 624 19 623 c 1
 19 639 l 1
 48 647 l 2
 95 660 122 668 164 683 c 1
 169 681 l 1
 173 394 l 1
173 75 m 2
 173 48 222 24 277 24 c 0
 363 24 416 94 416 211 c 0
 416 288 393 361 358 394 c 0
 336 415 309 425 279 425 c 0
 225 425 173 386 173 345 c 2
 173 75 l 2
EndSplineSet
EndChar

StartChar: c
Encoding: 99 99 68
Width: 474
Flags: MW
HStem: -10 72<235.5 263> 457 26<244 282.5>
VStem: 40 78<210.5 265> 330 102
LayerCount: 4
Fore
SplineSet
446 155 m 1
 415 93 395 63 367 39 c 0
 329 7 287 -10 239 -10 c 0
 123 -10 40 88 40 223 c 0
 40 307 69 378 122 425 c 0
 165 462 218 483 270 483 c 0
 358 483 432 434 432 375 c 0
 432 351 410 331 382 331 c 0
 359 331 342 351 333 382 c 2
 327 406 l 2
 316 445 302 457 263 457 c 0
 178 457 118 380 118 271 c 0
 118 150 187 62 284 62 c 0
 344 62 384 89 435 162 c 1
 446 155 l 1
EndSplineSet
EndChar

StartChar: d
Encoding: 100 100 69
Width: 515
Flags: MW
HStem: -10 51<218.5 250> 42 15 458 25<208 266 184.5 276.5> 624 15
VStem: 26 88<196.5 287> 357 82<105 114 114 334 334 370>
LayerCount: 4
Fore
SplineSet
506 42 m 1
 359 -10 l 1
 355 -7 l 1x7c
 355 60 l 1
 319 11 279 -10 221 -10 c 0xbc
 110 -10 26 88 26 216 c 0
 26 358 124 483 245 483 c 0
 287 483 315 472 355 438 c 1
 355 573 l 2
 355 614 346 624 309 624 c 0
 301 624 295 624 287 623 c 1
 287 639 l 1
 351 656 386 666 434 683 c 1
 439 681 l 1
 439 114 l 2
 439 68 447 57 483 57 c 0
 487 57 493 57 506 58 c 1
 506 42 l 1
357 334 m 2
 357 406 305 458 248 458 c 0
 168 458 114 377 114 258 c 0
 114 135 175 41 262 41 c 0
 293 41 321 52 339 73 c 0
 350 84 357 97 357 105 c 2xbc
 357 334 l 2
EndSplineSet
EndChar

StartChar: e
Encoding: 101 101 70
Width: 474
Flags: MW
HStem: -10 69<251 286.5> 291.5 34.5 450 33<233 261>
VStem: 40 73<152.5 292>
LayerCount: 4
Fore
SplineSet
459 165 m 1
 415 52 337 -10 236 -10 c 0
 116 -10 40 80 40 225 c 0
 40 311 68 386 118 429 c 0
 158 465 207 483 259 483 c 0
 314 483 362 461 394 424 c 0
 420 390 431 360 439 291 c 1
 113 292 l 1
 116 227 123 191 142 151 c 0
 173 91 221 59 281 59 c 0
 348 59 398 90 448 170 c 1
 459 165 l 1
334 326 m 1
 320 420 293 450 229 450 c 0
 165 450 127 411 116 326 c 1
 334 326 l 1
EndSplineSet
EndChar

StartChar: f
Encoding: 102 102 71
Width: 356
GlyphClass: 5
Flags: MW
HStem: 0 15<33 293 33 33> 444 32<34 116 34 116 200 322 200 200> 655 28<260.5 267>
VStem: 116 84<104 444>
LayerCount: 4
Fore
SplineSet
322 444 m 1
 200 444 l 1
 200 104 l 2
 200 29 211 18 293 15 c 1
 293 0 l 1
 33 0 l 1
 33 15 l 1
 104 18 116 29 116 104 c 2
 116 444 l 1
 34 444 l 1
 34 476 l 1
 116 476 l 1
 117 526 125 566 151 611 c 0
 177 656 229 683 292 683 c 0
 352 683 396 657 396 621 c 0
 396 598 378 580 354 580 c 0
 337 580 325 590 309 616 c 0
 291 645 278 655 256 655 c 0
 218 655 199 625 199 566 c 2
 199 476 l 1
 322 476 l 1
 322 444 l 1
EndSplineSet
EndChar

StartChar: g
Encoding: 103 103 72
Width: 514
Flags: MW
HStem: -229 60<205 246> -16 80 156 24<257 277.5> 407 41<402 402 402 489> 456 27<208 248.5>
VStem: 25 73<-115.5 -107.5> 68 85<301 352 352 356 301 360> 72 63<45.5 106.5> 343 79<293 298> 450 30<-71 -48>
LayerCount: 4
Fore
SplineSet
402 407 m 1xf2c0
 417 374 422 350 422 319 c 0
 422 267 406 230 371 201 c 0
 339 172 297 156 258 156 c 0
 256 156 236 159 198 162 c 1
 170 153 135 117 135 96 c 0
 135 79 160 69 217 67 c 2xf1c0
 352 61 l 2
 430 58 480 14 480 -51 c 0
 480 -91 462 -125 422 -157 c 0
 367 -202 285 -229 207 -229 c 0
 106 -229 25 -183 25 -127 c 0xf440
 25 -88 52 -54 128 1 c 1
 84 22 72 34 72 57 c 0
 72 75 78 86 101 109 c 0
 104 113 116 125 138 146 c 2xf140
 166 171 l 1
 95 206 68 246 68 312 c 0
 68 408 146 483 243 483 c 0
 277 483 306 475 350 459 c 0xfac0
 371 451 373 448 373 448 c 1
 489 448 l 1
 489 407 l 1
 402 407 l 1xf2c0
150 -2 m 1xf440
 108 -52 98 -68 98 -92 c 0
 98 -139 158 -169 252 -169 c 0
 370 -169 450 -128 450 -67 c 0
 450 -29 415 -16 320 -16 c 0
 268 -16 186 -9 150 -2 c 1xf440
153 352 m 2xfac0
 153 250 197 180 264 180 c 0
 312 180 343 219 343 277 c 0
 343 319 331 369 311 406 c 0
 294 437 265 456 232 456 c 0
 184 456 153 418 153 356 c 2
 153 352 l 2xfac0
EndSplineSet
EndChar

StartChar: h
Encoding: 104 104 73
Width: 538
Flags: MW
HStem: 0 15<18 234 18 18> 426 57<289 312> 624 15<19 52.5>
VStem: 82 84<102 360 102 395 395 573 573 594.5> 365 84<107 315 315 316 107 351.5>
LayerCount: 4
Fore
SplineSet
512 0 m 1
 294 0 l 1
 294 16 l 1
 354 21 365 33 365 107 c 2
 365 315 l 2
 365 388 339 426 285 426 c 0
 244 426 208 406 166 360 c 1
 166 102 l 2
 168 31 176 20 234 15 c 1
 234 0 l 1
 18 0 l 1
 18 15 l 1
 75 22 80 30 82 102 c 2
 82 573 l 2
 82 616 74 624 31 624 c 0
 26 624 23 624 19 623 c 1
 19 639 l 1
 46 647 l 2
 102 663 127 671 161 683 c 1
 166 680 l 1
 166 395 l 1
 212 455 258 483 320 483 c 0
 406 483 449 426 449 316 c 2
 449 107 l 2
 451 33 456 25 512 16 c 1
 512 0 l 1
EndSplineSet
EndChar

StartChar: i
Encoding: 105 105 74
Width: 278
GlyphClass: 5
Flags: MW
HStem: 0 15<23 260 23 23> 424 11 581 102<121.5 149.5 121.5 150>
VStem: 85 102<617.5 646> 102 84<102 364 364 386>
LayerCount: 4
Fore
SplineSet
23 15 m 1xc8
 91 18 102 28 102 102 c 2
 102 364 l 2
 102 408 93 424 69 424 c 0
 60 424 47 423 35 421 c 2
 27 420 l 1
 27 435 l 1
 182 490 l 1
 186 487 l 1
 186 102 l 2
 187 29 194 20 260 15 c 1
 260 0 l 1
 23 0 l 1
 23 15 l 1xc8
135 683 m 0xf0
 164 683 187 661 187 632 c 0
 187 603 165 581 135 581 c 0
 107 581 85 603 85 632 c 0
 85 660 108 683 135 683 c 0xf0
EndSplineSet
EndChar

StartChar: j
Encoding: 106 106 75
Width: 278
Flags: MW
HStem: -218 34<-3.5 68> 424 12 581 102<128.5 156.5 128.5 157>
VStem: 92 102<617.5 646> 109 84<-39.5 0 0 364 364 385.5>
LayerCount: 4
Fore
SplineSet
193 0 m 2xe8
 193 -79 171 -147 135 -179 c 0
 108 -204 68 -218 24 -218 c 0
 -31 -218 -70 -195 -70 -163 c 0
 -70 -141 -52 -124 -29 -124 c 0
 -13 -124 1 -133 19 -156 c 0
 36 -177 46 -184 61 -184 c 0
 75 -184 89 -176 95 -166 c 0
 106 -146 109 -121 109 -45 c 2
 109 364 l 2
 109 407 100 424 77 424 c 0
 67 424 52 423 37 421 c 2
 32 420 l 1
 32 436 l 1
 91 454 129 467 188 490 c 1
 193 487 l 1
 193 0 l 2xe8
142 683 m 0xf0
 171 683 194 661 194 632 c 0
 194 603 172 581 142 581 c 0
 114 581 92 603 92 632 c 0
 92 660 115 683 142 683 c 0xf0
EndSplineSet
EndChar

StartChar: k
Encoding: 107 107 76
Width: 539
Flags: MW
HStem: 0 15<19 253 19 19 305 325 325 331.5> 458 14<293 508> 625 14
VStem: 94 84<82 264 274 564 564 588>
LayerCount: 4
Fore
SplineSet
19 15 m 1
 90 26 93 29 94 82 c 2
 94 564 l 2
 94 612 85 625 51 625 c 0
 41 625 32 624 19 623 c 1
 19 639 l 1
 49 647 l 2
 107 663 136 671 174 683 c 1
 178 681 l 1
 178 274 l 1
 322 402 l 2
 337 416 346 429 346 439 c 0
 346 453 334 457 293 458 c 1
 293 472 l 1
 508 472 l 1
 508 457 l 1
 440 459 412 442 281 324 c 2
 250 296 l 1
 411 92 l 2
 455 39 488 18 534 15 c 1
 534 0 l 1
 305 0 l 1
 305 15 l 1
 325 15 l 2
 338 15 347 22 347 31 c 0
 347 37 344 43 335 54 c 0
 332 57 329 62 325 67 c 2
 178 264 l 1
 178 67 l 2
 179 30 191 19 233 16 c 2
 253 15 l 1
 253 0 l 1
 19 0 l 1
 19 15 l 1
EndSplineSet
EndChar

StartChar: l
Encoding: 108 108 77
Width: 278
GlyphClass: 5
Flags: MW
HStem: 0 15<21 257 21 21> 625 14
VStem: 98 84<87 564 564 587.5>
LayerCount: 4
Fore
SplineSet
21 15 m 1
 83 19 97 33 98 87 c 2
 98 564 l 2
 98 611 88 625 56 625 c 0
 48 625 36 624 25 623 c 2
 19 623 l 1
 19 639 l 1
 88 656 126 666 178 683 c 1
 182 681 l 1
 182 84 l 2
 183 28 194 18 257 15 c 1
 257 0 l 1
 21 0 l 1
 21 15 l 1
EndSplineSet
EndChar

StartChar: m
Encoding: 109 109 78
Width: 851
Flags: MW
HStem: 0 16<28 59.5 28 261 28 59.5 517.5 547> 422 14 428 55<324.5 337 600 615.5>
VStem: 106 84<89 355 355 366 70 380> 388 83<100 318 318 355> 669 83<91 296>
LayerCount: 4
Fore
SplineSet
28 16 m 1xbc
 91 16 104 30 106 89 c 2
 106 355 l 2
 106 405 92 422 65 422 c 0
 53 422 45 421 31 418 c 1
 31 436 l 1
 89 451 125 463 178 483 c 1
 185 481 l 1xdc
 185 402 l 1
 274 469 301 483 348 483 c 0
 405 483 441 455 460 395 c 1
 516 456 569 483 631 483 c 0
 712 483 752 420 752 296 c 2
 752 80 l 2
 752 39 764 23 798 18 c 2
 825 16 l 1
 825 0 l 1
 600 0 l 1
 600 16 l 1
 661 22 669 29 669 91 c 2
 669 313 l 2
 669 400 645 428 586 428 c 0
 536 428 503 409 471 364 c 1
 471 100 l 2
 473 33 488 16 547 16 c 1
 547 0 l 1
 316 0 l 1
 316 16 l 1
 375 19 386 30 388 90 c 2
 388 318 l 2
 388 392 360 428 314 428 c 0
 277 428 232 411 205 386 c 0
 198 379 190 369 190 366 c 2
 190 70 l 2
 191 28 208 17 261 16 c 1
 261 0 l 1
 28 0 l 1
 28 16 l 1xbc
EndSplineSet
EndChar

StartChar: n
Encoding: 110 110 79
Width: 560
Flags: MW
HStem: 0 16<30 253 30 30> 422 14 425 58<323 335>
VStem: 100 83<94 355 355 365> 388 83<104 323 323 325 85 358>
LayerCount: 4
Fore
SplineSet
30 16 m 1xb8
 88 19 100 33 100 94 c 2
 100 355 l 2
 100 406 91 422 56 422 c 0
 45 422 34 421 28 418 c 1
 28 436 l 1
 86 453 121 464 173 483 c 1
 180 481 l 1xd8
 180 398 l 1
 252 465 299 483 347 483 c 0
 425 483 471 424 471 325 c 2
 471 85 l 2
 472 34 484 21 535 16 c 1
 535 0 l 1
 317 0 l 1
 317 16 l 1
 373 19 388 36 388 104 c 2
 388 323 l 2
 388 393 363 425 307 425 c 0
 262 425 233 413 183 365 c 1
 183 70 l 2
 183 33 200 19 253 16 c 1
 253 0 l 1
 30 0 l 1
 30 16 l 1xb8
EndSplineSet
Substitution2: "'sups' Superscript in Latin lookup 14 subtable" uni207F
Substitution2: "'aalt' Access All Alternates in Latin lookup 0 subtable" uni207F
EndChar

StartChar: o
Encoding: 111 111 80
Width: 523
Flags: MW
HStem: -10 25<252.5 312.5 252.5 326> 458 25<210.5 292>
VStem: 30 92<253 310.5> 401 92<173 281>
LayerCount: 4
Fore
SplineSet
262 483 m 0
 396 483 493 385 493 246 c 0
 493 100 392 -10 260 -10 c 0
 128 -10 30 95 30 238 c 0
 30 383 124 483 262 483 c 0
248 458 m 0
 173 458 122 390 122 290 c 0
 122 216 139 138 169 84 c 0
 191 42 232 15 273 15 c 0
 352 15 401 89 401 209 c 0
 401 353 336 458 248 458 c 0
EndSplineSet
Substitution2: "Single Substitution lookup 17 subtable" ordmasculine
Substitution2: "'aalt' Access All Alternates in Latin lookup 0 subtable" ordmasculine
EndChar

StartChar: p
Encoding: 112 112 81
Width: 530
Flags: MW
HStem: -217 18<19 261> -10 30<257.5 320 257.5 341.5> 424 15 424 59<294.5 319.5>
VStem: 89 82<74.5 90 90 354> 412 88<184 280.5>
LayerCount: 4
Fore
SplineSet
19 -200 m 1xdc
 78 -194 89 -184 89 -131 c 2
 89 367 l 2
 89 414 82 424 48 424 c 0
 39 424 32 424 23 423 c 1
 23 439 l 1
 78 456 113 469 167 490 c 1
 173 488 l 1xec
 173 401 l 1
 219 458 265 483 324 483 c 0
 426 483 500 390 500 260 c 0
 500 108 404 -10 279 -10 c 0
 235 -10 211 0 173 35 c 1
 173 -124 l 2
 174 -188 186 -198 261 -199 c 1
 261 -217 l 1
 19 -217 l 1
 19 -200 l 1xdc
171 90 m 2
 171 59 233 20 282 20 c 0
 358 20 412 102 412 218 c 0
 412 343 359 424 280 424 c 0
 232 424 171 385 171 354 c 2
 171 90 l 2
EndSplineSet
EndChar

StartChar: q
Encoding: 113 113 82
Width: 523
Flags: MW
HStem: -217 17<275 511 275 275> -10 60<149 274.5> 458 25<221.5 283 196 298.5>
VStem: 30 88<218.5 291> 365 83<131 352 352 386.5>
LayerCount: 4
Fore
SplineSet
437 487 m 1
 448 486 l 1
 448 -141 l 2
 450 -184 457 -191 511 -203 c 1
 511 -217 l 1
 275 -217 l 1
 275 -200 l 1
 345 -196 363 -180 364 -124 c 2
 363 68 l 1
 317 17 259 -10 198 -10 c 0
 100 -10 30 83 30 215 c 0
 30 367 130 483 262 483 c 0
 304 483 336 474 383 447 c 1
 437 487 l 1
365 352 m 2
 365 421 331 458 266 458 c 0
 177 458 118 377 118 254 c 0
 118 183 141 113 175 81 c 0
 196 61 226 50 258 50 c 0
 291 50 327 63 350 82 c 0
 361 92 365 106 365 131 c 2
 365 352 l 2
EndSplineSet
EndChar

StartChar: r
Encoding: 114 114 83
Width: 404
Flags: MW
HStem: 0 16<28 280 28 28> 431 70<252.5 342> 444 12
VStem: 108 83<94 341 94 381 397 404>
LayerCount: 4
Fore
SplineSet
28 16 m 1xd0
 99 27 105 34 108 88 c 2
 108 381 l 2
 108 427 98 444 67 444 c 0
 54 444 45 443 30 439 c 1
 30 456 l 1
 92 476 130 490 185 513 c 1
 191 511 l 1xb0
 191 397 l 1
 245 476 277 501 323 501 c 0
 361 501 384 479 384 442 c 0
 384 411 367 393 341 393 c 0
 326 393 315 399 297 415 c 0
 284 426 275 431 268 431 c 0
 237 431 191 376 191 341 c 2
 191 94 l 2
 193 33 210 18 280 16 c 1
 280 0 l 1
 28 0 l 1
 28 16 l 1xd0
EndSplineSet
EndChar

StartChar: s
Encoding: 115 115 84
Width: 428
Flags: MW
HStem: -10 24<210.5 241.5 177 266> 469 24<184.5 218.5 163.5 239.5>
VStem: 60 66<381.5 399> 61 14<-4 163> 303 71<89.5 107.5> 327 13.5
LayerCount: 4
Fore
SplineSet
327 337 m 1xd4
 302 433 270 469 209 469 c 0
 160 469 126 440 126 396 c 0
 126 367 143 335 172 318 c 2xe4
 288 249 l 2
 350 212 374 181 374 127 c 0
 374 52 311 -10 221 -10 c 0
 200 -10 178 -6 149 1 c 0
 124 7 111 9 100 9 c 0
 87 9 82 7 75 -4 c 1
 61 -4 l 1
 61 163 l 1
 78 163 l 1xd8
 103 54 140 14 214 14 c 0
 269 14 303 44 303 91 c 0
 303 124 285 150 247 171 c 2
 185 206 l 2
 94 258 60 300 60 360 c 0xe8
 60 438 121 493 206 493 c 0
 231 493 256 488 281 479 c 0
 292 474 303 472 309 472 c 0
 315 472 320 475 327 484 c 1
 338 484 l 1
 343 337 l 1
 327 337 l 1xd4
EndSplineSet
EndChar

StartChar: t
Encoding: 116 116 85
Width: 278
Flags: MW
HStem: -10 52<133.5 221> 444 32<158 259 158 259>
VStem: 74 84<117 132 132 444>
LayerCount: 4
Fore
SplineSet
259 444 m 1
 158 444 l 1
 158 132 l 2
 158 69 173 42 210 42 c 0
 232 42 248 51 270 77 c 1
 283 66 l 1
 250 14 212 -10 163 -10 c 0
 104 -10 74 33 74 117 c 2
 74 444 l 1
 21 444 l 2
 18 446 17 448 17 451 c 0
 17 457 23 463 34 470 c 0
 63 487 93 521 151 605 c 1
 156 605 158 602 158 592 c 2
 158 476 l 1
 259 476 l 1
 259 444 l 1
EndSplineSet
EndChar

StartChar: u
Encoding: 117 117 86
Width: 558
Flags: MW
HStem: -10 61<237.5 239> 38 15<528 533> 455 18<302 302>
VStem: 90 83<126 131 131 391 391 416> 380 83<142 389 389 415>
LayerCount: 4
Fore
SplineSet
533 38 m 1x78
 480 24 442 12 390 -9 c 1
 385 -7 l 1
 385 80 l 1x78
 340 35 l 2
 312 7 261 -10 217 -10 c 0
 140 -10 90 44 90 126 c 2
 90 391 l 2
 90 441 74 456 25 458 c 1
 25 473 l 1
 173 473 l 1
 173 131 l 2
 173 87 212 51 263 51 c 0
 299 51 332 63 360 87 c 0
 375 98 380 113 380 142 c 2xb8
 380 389 l 2
 380 441 368 452 302 455 c 1
 302 473 l 1
 463 473 l 1
 463 113 l 2
 464 63 477 55 528 53 c 2
 533 53 l 1
 533 38 l 1x78
EndSplineSet
EndChar

StartChar: v
Encoding: 118 118 87
Width: 553
Flags: MW
HStem: 457 16<22 233 22 233>
VStem: 377 153<457 473 457 473>
LayerCount: 4
Fore
SplineSet
530 457 m 1
 497 454 490 447 458 376 c 2
 317 38 l 2
 301 0 293 -14 286 -14 c 0
 277 -14 268 9 256 35 c 2
 122 337 l 2
 74 446 64 455 22 457 c 1
 22 473 l 1
 233 473 l 1
 233 457 l 1
 194 454 182 447 182 428 c 0
 182 419 186 404 192 389 c 2
 308 112 l 1
 422 392 l 2
 426 403 429 413 429 424 c 0
 429 444 412 454 377 457 c 1
 377 473 l 1
 530 473 l 1
 530 457 l 1
EndSplineSet
EndChar

StartChar: w
Encoding: 119 119 88
Width: 766
Flags: MW
HStem: 458 15<22 215 22 215>
VStem: 600 143<458 473 458 473>
LayerCount: 4
Fore
SplineSet
743 473 m 1
 743 458 l 1
 722 451 718 445 699 401 c 2
 551 37 l 2
 534 -5 529 -14 521 -14 c 0
 514 -14 510 -7 495 31 c 2
 398 279 l 1
 278 27 l 2
 265 -1 257 -14 251 -14 c 0
 244 -14 236 0 223 32 c 2
 79 391 l 2
 55 445 46 456 22 458 c 1
 22 473 l 1
 215 473 l 1
 215 458 l 1
 177 454 165 445 165 423 c 0
 165 412 168 402 172 391 c 2
 278 117 l 1
 375 326 l 1
 369 345 361 365 354 385 c 0
 333 442 320 454 280 458 c 1
 280 473 l 1
 497 473 l 1
 497 458 l 1
 447 451 435 443 435 420 c 0
 435 406 435 406 454 358 c 2
 544 122 l 1
 640 356 l 2
 652 383 658 409 658 425 c 0
 658 443 647 451 600 458 c 1
 600 473 l 1
 743 473 l 1
EndSplineSet
EndChar

StartChar: x
Encoding: 120 120 89
Width: 522
Flags: MW
HStem: 0 16<154 169 17 17 486 502> 457 15<24 34 24 242 24 242>
VStem: 17 152<0 16 0 16> 17 485<0 16 0 16> 288 166<457 472 457 472>
LayerCount: 4
Fore
SplineSet
291 16 m 1xd0
 326 18 333 22 333 41 c 0
 333 48 331 54 327 60 c 2
 231 207 l 1
 148 78 l 2
 134 56 127 42 127 35 c 0
 127 21 139 16 169 16 c 1
 169 0 l 1
 17 0 l 1
 17 16 l 1
 52 19 62 26 94 69 c 2
 213 243 l 1
 115 394 l 2
 82 443 65 457 34 457 c 2
 24 457 l 1
 24 472 l 1
 242 472 l 1
 242 457 l 1
 210 456 197 449 197 434 c 0
 197 423 204 406 224 374 c 0
 226 370 235 356 251 332 c 2
 260 319 l 1
 273 340 286 359 291 365 c 0
 317 398 330 421 330 434 c 0
 330 448 319 455 288 457 c 1
 288 472 l 1
 454 472 l 1
 454 457 l 1
 420 456 389 439 369 411 c 2xe8
 282 285 l 1
 416 79 l 2
 449 33 470 16 502 16 c 1
 502 0 l 1
 291 0 l 1
 291 16 l 1xd0
EndSplineSet
EndChar

StartChar: y
Encoding: 121 121 90
Width: 548
Flags: MW
HStem: -218 102<91.5 94 74 147> 457 15<23 240 383 399.5>
VStem: 383 142<457 472 457 472>
LayerCount: 4
Fore
SplineSet
525 457 m 1
 499 454 487 443 472 409 c 2
 289 -18 l 2
 227 -162 181 -218 113 -218 c 0
 70 -218 40 -193 41 -160 c 0
 42 -135 62 -116 86 -116 c 0
 102 -116 119 -120 137 -127 c 0
 148 -132 157 -134 163 -134 c 0
 177 -134 199 -115 214 -90 c 0
 233 -59 250 3 251 19 c 0
 251 35 241 73 213 125 c 0
 209 136 208 138 196 165 c 2
 75 423 l 2
 67 441 50 453 23 457 c 1
 23 472 l 1
 240 472 l 1
 239 456 l 1
 194 454 178 446 177 427 c 0
 177 417 180 402 187 388 c 2
 308 122 l 1
 427 413 l 2
 430 420 432 426 432 430 c 0
 433 447 416 457 383 457 c 1
 383 472 l 1
 525 472 l 1
 525 457 l 1
EndSplineSet
EndChar

StartChar: z
Encoding: 122 122 91
Width: 444
Flags: MW
HStem: 0 25<139 284 284 334.5> 447 25<128.5 161 161 306>
VStem: 55.5 17.5
LayerCount: 4
Fore
SplineSet
423 0 m 1
 27 0 l 1
 27 16 l 1
 306 447 l 1
 161 447 l 2
 96 447 82 423 73 349 c 1
 54 349 l 1
 57 472 l 1
 422 472 l 1
 422 457 l 1
 139 25 l 1
 284 25 l 2
 385 25 400 47 419 146 c 1
 438 142 l 1
 423 0 l 1
EndSplineSet
EndChar

StartChar: braceleft
Encoding: 123 123 92
Width: 480
Flags: MW
HStem: -181 11<288 350> 669 11<288 350>
VStem: 185 74<-41 121 -47 136 -47 136 378 541 541 541>
LayerCount: 4
Fore
SplineSet
350 -181 m 1
 226 -181 188 -149 185 -41 c 2
 185 136 l 2
 184 206 166 231 100 250 c 1
 166 268 184 293 185 363 c 2
 185 541 l 2
 187 647 226 680 350 680 c 1
 350 669 l 1
 282 653 260 622 259 546 c 2
 259 378 l 2
 258 294 239 268 165 249 c 1
 239 231 258 205 259 121 c 2
 259 -47 l 2
 260 -123 282 -154 350 -170 c 1
 350 -181 l 1
EndSplineSet
EndChar

StartChar: bar
Encoding: 124 124 93
Width: 200
Flags: MW
HStem: -155 831<67 133 67 133>
VStem: 67 66<-155 676 -155 676>
LayerCount: 4
Fore
SplineSet
67 676 m 1
 133 676 l 1
 133 -155 l 1
 67 -155 l 1
 67 676 l 1
EndSplineSet
EndChar

StartChar: braceright
Encoding: 125 125 94
Width: 480
Flags: MW
HStem: -181 11<130 192> 669 11<130 192>
VStem: 221 74<-42 121 121 121 378 540>
LayerCount: 4
Fore
SplineSet
130 680 m 1
 254 680 292 648 295 540 c 2
 295 363 l 2
 296 293 314 268 380 250 c 1
 314 231 296 206 295 136 c 2
 295 -42 l 2
 293 -148 254 -181 130 -181 c 1
 130 -170 l 1
 197 -154 220 -123 221 -47 c 2
 221 121 l 2
 222 205 241 231 315 250 c 1
 241 268 222 293 221 378 c 2
 221 546 l 2
 220 622 197 653 130 669 c 1
 130 680 l 1
EndSplineSet
EndChar

StartChar: asciitilde
Encoding: 126 126 95
Width: 541
Flags: MW
HStem: 186 66<363.5 389.5 363.5 402> 254 66<152.5 178.5>
VStem: 40 462<235 271>
LayerCount: 4
Fore
SplineSet
502 271 m 1
 456 207 425 186 379 186 c 0xa0
 334 186 316 193 227 240 c 0
 210 249 189 254 168 254 c 0
 137 254 120 242 94 203 c 1
 40 235 l 1
 86 299 117 320 163 320 c 0x60
 208 320 226 313 315 266 c 0
 332 257 353 252 374 252 c 0
 405 252 422 264 448 303 c 1
 502 271 l 1
EndSplineSet
EndChar

StartChar: exclamdown
Encoding: 161 161 96
Width: 333
Flags: MW
HStem: 362 105<148.5 178.5>
VStem: 110 106<-164 -132>
LayerCount: 4
Fore
SplineSet
170 282 m 1
 179 174 l 2
 183 127 189 81 196 36 c 0
 208 -35 216 -106 216 -140 c 0
 216 -189 196 -218 163 -218 c 0
 129 -218 110 -190 110 -138 c 0
 110 -126 111 -113 112 -101 c 2
 157 282 l 1
 170 282 l 1
164 467 m 0
 194 467 218 445 218 416 c 0
 218 386 194 362 163 362 c 0
 133 362 110 386 110 417 c 0
 110 446 133 467 164 467 c 0
EndSplineSet
EndChar

StartChar: cent
Encoding: 162 162 97
Width: 500
Flags: MW
HStem: -9 73<248.5 317.5> 430 30<225 274.5>
VStem: 53 77<224 286.5>
LayerCount: 4
Fore
SplineSet
356 444 m 1
 404 425 431 395 431 360 c 0
 431 333 413 315 388 315 c 0
 363 315 348 328 330 367 c 1
 229 76 l 1
 252 67 268 64 288 64 c 0
 347 64 383 89 435 164 c 1
 448 156 l 1
 414 86 395 59 360 29 c 0
 332 5 295 -9 257 -9 c 0
 240 -9 225 -7 201 0 c 1
 152 -138 l 1
 118 -138 l 1
 169 12 l 1
 132 33 117 46 99 71 c 0
 70 110 53 164 53 219 c 0
 53 354 149 460 273 460 c 0
 287 460 300 459 324 455 c 1
 368 579 l 1
 403 579 l 1
 356 444 l 1
313 421 m 1
 295 428 283 430 266 430 c 0
 184 430 130 362 130 260 c 0
 130 188 149 143 198 98 c 1
 313 421 l 1
EndSplineSet
EndChar

StartChar: sterling
Encoding: 163 163 98
Width: 500
Flags: MW
HStem: -8 28<67 89 67 97.5> -7 83<323.5 346> 94 36<75.5 101.5> 328 45<23 130 23 131 23 130 222 344 222 222> 649 27<273 321.5>
VStem: 12 26<46 69 46 77> 123 85<491.5 514> 132 90.5 152 72 359 89<597 609.5 567.5 614.5>
LayerCount: 4
Fore
SplineSet
344 328 m 1xbe40
 222 328 l 1
 223 301 l 2
 224 286 224 273 224 273 c 2
 224 240 221 220 199 111 c 1
 264 84 299 76 348 76 c 0
 394 76 430 91 461 125 c 0
 471 136 478 141 484 141 c 0
 488 141 490 140 490 137 c 0
 490 119 468 75 447 51 c 0
 415 14 370 -7 322 -7 c 0x7d40
 279 -7 246 7 178 54 c 1
 138 6 115 -8 80 -8 c 0
 38 -8 12 16 12 54 c 0
 12 100 48 130 103 130 c 0
 118 130 130 129 149 125 c 1
 151 133 152 139 152 146 c 0xbcc0
 152 164 146 219 135 295 c 2
 133 311 l 1
 131 328 l 1xbd40
 23 328 l 1
 23 373 l 1
 130 373 l 1
 125 399 123 417 123 442 c 0
 123 586 198 676 318 676 c 0
 393 676 448 636 448 583 c 0
 448 552 427 530 398 530 c 0
 368 530 360 544 359 597 c 0
 359 632 340 649 303 649 c 0
 243 649 208 598 208 510 c 0
 208 473 211 440 219 373 c 1
 344 373 l 1
 344 328 l 1xbe40
89 94 m 0xbe40
 55 94 38 81 38 57 c 0
 38 35 55 20 79 20 c 0
 99 20 112 26 125 43 c 0
 136 55 142 68 142 76 c 0
 142 84 114 94 89 94 c 0xbe40
EndSplineSet
EndChar

StartChar: fraction
Encoding: 8260 8260 99
Width: 250
Flags: MW
HStem: -26 702<-125 408 -125 408>
VStem: -125 533
LayerCount: 4
Fore
SplineSet
-82 -26 m 1
 -125 -26 l 1
 365 676 l 1
 408 676 l 1
 -82 -26 l 1
EndSplineSet
EndChar

StartChar: yen
Encoding: 165 165 100
Width: 500
Flags: MW
HStem: 0 19<123 367 123 123> 182 40<28 202 28 202 287 460> 312 40<28 172 28 195 28 172 314 460> 643 19<-41 202 -41 202 329 343>
VStem: 202 85<120 182 109 182 222 298>
LayerCount: 4
Fore
SplineSet
367 0 m 1
 123 0 l 1
 123 19 l 1
 190 22 201 36 202 120 c 2
 202 182 l 1
 28 182 l 1
 28 222 l 1
 202 222 l 1
 202 298 l 1
 195 312 l 1
 28 312 l 1
 28 352 l 1
 172 352 l 1
 77 525 l 2
 22 624 5 640 -41 643 c 1
 -41 662 l 1
 202 662 l 1
 202 643 l 1
 155 642 137 635 137 614 c 0
 137 601 142 584 150 569 c 2
 268 348 l 1
 380 568 l 2
 389 585 394 602 394 613 c 0
 394 631 373 643 343 643 c 2
 329 643 l 1
 329 662 l 1
 524 662 l 1
 524 643 l 1
 473 632 443 605 406 536 c 2
 314 352 l 1
 460 352 l 1
 460 312 l 1
 294 312 l 1
 287 298 l 1
 287 222 l 1
 460 222 l 1
 460 182 l 1
 287 182 l 1
 287 109 l 2
 288 38 304 20 367 19 c 1
 367 0 l 1
EndSplineSet
EndChar

StartChar: florin
Encoding: 402 402 101
Width: 500
Flags: MW
HStem: -211 28<-1 13.5 -1 22> 410 40<102 205 112 195 291 391> 664 28<392.5 410>
VStem: -88 85<-143.5 -133> 416 85<612 622>
LayerCount: 4
Fore
SplineSet
102 410 m 1
 112 450 l 1
 205 450 l 1
 241 560 268 612 309 651 c 0
 339 679 372 692 413 692 c 0
 467 692 501 666 501 626 c 0
 501 598 484 581 458 581 c 0
 434 581 416 598 416 619 c 0
 416 625 417 630 420 638 c 0
 423 647 423 648 423 651 c 0
 423 659 415 664 405 664 c 0
 364 664 326 609 306 519 c 2
 291 450 l 1
 400 450 l 1
 391 410 l 1
 279 410 l 1
 223 151 l 2
 198 36 165 -62 130 -123 c 0
 97 -180 49 -211 -5 -211 c 0
 -54 -211 -88 -185 -88 -146 c 0
 -88 -120 -71 -103 -45 -103 c 0
 -23 -103 -3 -120 -3 -140 c 0
 -3 -147 -5 -153 -9 -163 c 0
 -11 -167 -12 -170 -12 -173 c 0
 -12 -178 -5 -183 3 -183 c 0
 24 -183 48 -166 62 -141 c 0
 91 -89 91 -89 134 123 c 0
 161 259 163 265 176 323 c 2
 195 410 l 1
 102 410 l 1
EndSplineSet
EndChar

StartChar: section
Encoding: 167 167 102
Width: 500
Flags: MW
HStem: -148 21<224.5 269.5 224.5 285.5> 125 21<292 292 292 310> 383 22<171 188 152 206.5> 655 21<225.5 268.5>
VStem: 70 53<301 320> 104 102<-43 -32.5> 110 56<571 590.5> 279 98<561.5 576> 330 56<-59 -30.5> 374 52<210 225>
LayerCount: 4
Fore
SplineSet
292 125 m 1xf880
 367 60 386 31 386 -21 c 0
 386 -97 329 -148 242 -148 c 0
 164 -148 104 -104 104 -48 c 0
 104 -17 127 6 158 6 c 0
 185 6 206 -12 206 -36 c 0
 206 -50 198 -64 183 -77 c 0
 176 -83 172 -88 172 -92 c 0xf480
 172 -110 206 -127 243 -127 c 0
 296 -127 330 -97 330 -50 c 0
 330 -11 306 21 241 65 c 0
 119 149 70 212 70 286 c 0xf880
 70 354 119 405 185 405 c 0
 191 405 200 405 210 404 c 1
 130 470 110 500 110 554 c 0
 110 627 166 676 249 676 c 0
 322 676 377 634 377 578 c 0
 377 545 358 525 326 525 c 0
 298 525 279 543 279 568 c 0
 279 584 289 601 305 612 c 0
 311 617 313 620 313 623 c 0xf3
 313 641 286 655 251 655 c 0
 200 655 166 626 166 584 c 0
 166 558 180 530 200 513 c 2
 337 400 l 2
 395 352 426 298 426 245 c 0xf240
 426 175 378 125 310 125 c 2
 292 125 l 1xf880
191 383 m 0
 151 383 123 355 123 316 c 0
 123 286 135 263 169 229 c 0
 230 169 267 146 305 146 c 0
 342 146 374 177 374 212 c 0
 374 238 355 271 321 305 c 0xf840
 274 351 222 383 191 383 c 0
EndSplineSet
EndChar

StartChar: currency
Encoding: 164 164 103
Width: 500
Flags: MW
HStem: 115 64<227.5 274.5> 481 64<227 275.5 227 292.5>
VStem: 35 68<306 354> 397 68<307 355.5 307 372>
LayerCount: 4
Fore
SplineSet
76 204 m 1
 47 246 35 282 35 330 c 0
 35 378 47 416 76 456 c 1
 -22 554 l 1
 28 602 l 1
 124 506 l 1
 168 534 203 545 251 545 c 0
 300 545 337 533 376 506 c 1
 474 602 l 1
 522 554 l 1
 426 456 l 1
 455 413 465 380 465 331 c 0
 465 283 455 249 426 204 c 1
 522 108 l 1
 474 58 l 1
 376 156 l 1
 336 128 298 115 251 115 c 0
 204 115 166 127 124 156 c 1
 28 58 l 1
 -22 108 l 1
 76 204 l 1
253 481 m 0
 169 481 103 415 103 330 c 0
 103 247 169 179 251 179 c 0
 332 179 397 246 397 331 c 0
 397 413 332 481 253 481 c 0
EndSplineSet
EndChar

StartChar: quotesingle
Encoding: 39 39 104
Width: 180
Flags: MW
HStem: 431 245<80 80 80 101>
VStem: 48 85<626.5 646.5>
LayerCount: 4
Fore
SplineSet
80 431 m 1
 62 528 48 618 48 635 c 0
 48 658 67 676 91 676 c 0
 114 676 133 658 133 636 c 0
 133 607 124 547 108 471 c 0
 106 462 104 448 101 431 c 1
 80 431 l 1
EndSplineSet
EndChar

StartChar: quotedblleft
Encoding: 8220 8220 105
Width: 444
Flags: MW
HStem: 433 108<119.5 140.5 351.5 372.5>
VStem: 43 39<547 552> 275 39<547 552>
LayerCount: 4
Fore
SplineSet
164 657 m 1
 110 619 82 584 82 551 c 0
 82 543 88 537 96 537 c 0
 97 537 98 537 103 539 c 0
 109 540 116 541 123 541 c 0
 160 541 182 522 182 490 c 0
 182 456 158 433 123 433 c 0
 78 433 43 471 43 522 c 0
 43 582 87 643 155 676 c 1
 164 657 l 1
396 657 m 1
 342 619 314 584 314 551 c 0
 314 543 320 537 328 537 c 0
 329 537 330 537 335 539 c 0
 341 540 348 541 355 541 c 0
 392 541 414 522 414 490 c 0
 414 456 390 433 355 433 c 0
 309 433 275 471 275 522 c 0
 275 582 319 643 387 676 c 1
 396 657 l 1
EndSplineSet
EndChar

StartChar: guillemotleft
Encoding: 171 171 106
Width: 500
Flags: MW
HStem: 33 383<251.5 256.5 251 257 443.5 448.5 251 449>
VStem: 42 414<222 408.5>
LayerCount: 4
Fore
SplineSet
107 281 m 2
 113 285 118 290 123 295 c 2
 126 297 l 2
 133 303 141 310 150 318 c 0
 179 344 209 374 211 377 c 0
 228 398 248 416 254 416 c 0
 259 416 264 411 264 406 c 0
 264 393 239 353 210 317 c 0
 177 278 160 257 135 224 c 1
 141 215 142 215 145 211 c 0
 222 113 263 55 263 42 c 0
 263 36 260 33 254 33 c 0
 249 33 247 34 243 39 c 0
 182 99 145 133 73 195 c 2
 42 222 l 1
 107 281 l 2
299 281 m 2
 305 285 310 290 315 295 c 2
 318 297 l 2
 325 303 333 310 342 318 c 0
 371 344 401 374 403 377 c 0
 420 398 440 416 446 416 c 0
 451 416 456 411 456 406 c 0
 456 393 431 353 402 317 c 0
 369 278 352 257 327 224 c 1
 333 215 334 215 337 211 c 0
 414 113 455 55 455 42 c 0
 455 36 452 33 446 33 c 0
 441 33 439 34 435 39 c 0
 374 99 337 133 265 195 c 2
 234 222 l 1
 299 281 l 2
EndSplineSet
EndChar

StartChar: guilsinglleft
Encoding: 8249 8249 107
Width: 333
Flags: MW
HStem: 33 383<272.5 277.5 272 278>
VStem: 63 222<222 408.5>
LayerCount: 4
Fore
SplineSet
128 281 m 2
 134 285 139 290 144 295 c 2
 147 297 l 2
 154 303 162 310 171 318 c 0
 200 344 230 374 232 377 c 0
 249 398 269 416 275 416 c 0
 280 416 285 411 285 406 c 0
 285 393 260 353 231 317 c 0
 198 278 181 257 156 224 c 1
 162 215 163 215 166 211 c 0
 243 113 284 55 284 42 c 0
 284 36 281 33 275 33 c 0
 270 33 268 34 264 39 c 0
 203 99 166 133 94 195 c 2
 63 222 l 1
 128 281 l 2
EndSplineSet
EndChar

StartChar: guilsinglright
Encoding: 8250 8250 108
Width: 333
Flags: MW
HStem: 33 383<55.5 60.5>
VStem: 48 222<222 408.5>
LayerCount: 4
Fore
SplineSet
239 195 m 2
 168 134 128 97 69 39 c 0
 65 34 63 33 58 33 c 0
 52 33 49 36 49 42 c 0
 49 55 90 113 167 211 c 1
 173 218 l 1
 177 224 l 1
 152 257 135 278 102 317 c 0
 73 353 48 393 48 406 c 0
 48 411 53 416 58 416 c 0
 64 416 84 398 101 377 c 0
 103 374 133 344 162 318 c 0
 173 309 181 302 186 297 c 0
 188 296 194 290 205 281 c 2
 270 222 l 1
 239 195 l 2
EndSplineSet
EndChar

StartChar: fi
Encoding: 64257 64257 109
Width: 556
GlyphClass: 3
Flags: MW
HStem: 0 15<30 34 249 253 30 34 306 310 525 529> 414 34<30 98 30 98 185 300> 650 29<252.5 299>
VStem: 98 87<95 414 95 414 448 455 455 519> 374 87<95 331 331 364.5>
LayerCount: 4
Fore
SplineSet
98 448 m 1
 98 455 l 2
 98 588 185 679 311 679 c 0
 391 679 444 650 444 607 c 0
 444 583 428 566 406 566 c 0
 387 566 378 573 353 608 c 0
 331 640 314 650 284 650 c 0
 221 650 185 603 185 519 c 2
 185 448 l 1
 300 448 l 2
 372 449 400 451 461 460 c 1
 461 95 l 2
 460 38 476 18 525 15 c 2
 529 15 l 1
 529 0 l 1
 306 0 l 1
 306 15 l 1
 310 15 l 2
 359 18 375 38 374 95 c 2
 374 331 l 2
 374 398 364 413 320 414 c 2
 185 414 l 1
 185 95 l 2
 184 38 200 18 249 15 c 2
 253 15 l 1
 253 0 l 1
 30 0 l 1
 30 15 l 1
 34 15 l 2
 83 18 99 38 98 95 c 2
 98 414 l 1
 30 414 l 1
 30 448 l 1
 98 448 l 1
EndSplineSet
Ligature2: "'liga' Standard Ligatures in Latin lookup 11 subtable" f i
Ligature2: "'liga' Standard Ligatures in Latin lookup 9 subtable" f i
Ligature2: "'liga' Standard Ligatures in Latin lookup 7 subtable" f i
Ligature2: "'liga' Standard Ligatures in Latin lookup 3 subtable" f i
EndChar

StartChar: fl
Encoding: 64258 64258 110
Width: 556
GlyphClass: 3
Flags: MW
HStem: 0 15<28 31 246 249 28 31 302 305 520 524> 414 34<28 95 28 95 182 369> 650 29<238.5 257>
VStem: 95 87<95 414 95 414 448 461 461 489> 369 87<95 414 414 414 448 585 585 585>
LayerCount: 4
Fore
SplineSet
95 448 m 1
 95 461 l 2
 95 517 109 567 135 607 c 0
 168 656 209 679 268 679 c 0
 310 679 345 669 374 647 c 1
 456 680 l 1
 456 95 l 2
 455 39 471 18 520 15 c 2
 524 15 l 1
 524 0 l 1
 302 0 l 1
 302 15 l 1
 305 15 l 2
 354 18 370 38 369 95 c 2
 369 414 l 1
 182 414 l 1
 182 95 l 2
 181 38 197 18 246 15 c 2
 249 15 l 1
 249 0 l 1
 28 0 l 1
 28 15 l 1
 31 15 l 2
 80 18 96 39 95 95 c 2
 95 414 l 1
 28 414 l 1
 28 448 l 1
 95 448 l 1
369 448 m 1
 369 585 l 1
 363 580 357 578 346 578 c 0
 325 578 313 588 293 623 c 0
 282 641 267 650 247 650 c 0
 200 650 182 609 182 507 c 2
 182 448 l 1
 369 448 l 1
EndSplineSet
Ligature2: "'liga' Standard Ligatures in Latin lookup 13 subtable" f l
Ligature2: "'liga' Standard Ligatures in Latin lookup 12 subtable" f l
Ligature2: "'liga' Standard Ligatures in Latin lookup 10 subtable" f l
Ligature2: "'liga' Standard Ligatures in Latin lookup 8 subtable" f l
Ligature2: "'liga' Standard Ligatures in Latin lookup 6 subtable" f l
Ligature2: "'liga' Standard Ligatures in Latin lookup 5 subtable" f l
Ligature2: "'liga' Standard Ligatures in Latin lookup 4 subtable" f l
EndChar

StartChar: endash
Encoding: 8211 8211 111
Width: 500
Flags: MW
HStem: 201 49<0 500 0 500>
VStem: 0 500<201 250 201 250>
LayerCount: 4
Fore
SplineSet
500 250 m 1
 500 201 l 1
 0 201 l 1
 0 250 l 1
 500 250 l 1
EndSplineSet
EndChar

StartChar: dagger
Encoding: 8224 8224 112
Width: 500
Flags: MW
HStem: 438 18<240 240 261 261>
VStem: 240.5 22
LayerCount: 4
Fore
SplineSet
241 -149 m 1
 240 -26 l 2
 238 78 220 198 198 253 c 1
 227 284 240 339 240 438 c 1
 205 435 188 431 149 416 c 0
 125 406 115 404 103 404 c 0
 74 404 59 419 59 447 c 0
 59 473 76 491 99 491 c 0
 109 491 128 486 147 478 c 0
 188 461 206 457 240 456 c 1
 240 509 236 533 216 584 c 0
 209 603 204 620 204 630 c 0
 204 654 226 676 250 676 c 0
 275 676 297 654 297 630 c 0
 297 620 292 603 285 584 c 0
 265 534 261 510 261 456 c 1
 297 457 313 461 354 478 c 0
 373 486 392 491 403 491 c 0
 425 491 442 472 442 447 c 0
 442 422 426 404 404 404 c 0
 392 404 372 409 352 416 c 0
 311 432 295 435 261 438 c 1
 261 340 274 283 303 253 c 1
 278 196 265 100 263 -26 c 2
 262 -149 l 1
 241 -149 l 1
EndSplineSet
EndChar

StartChar: daggerdbl
Encoding: 8225 8225 113
Width: 500
Flags: MW
HStem: 67 18<239 239 260 260> 438 18<240 240 261 261>
VStem: 239 21<40 67>
LayerCount: 4
Fore
SplineSet
261 456 m 1
 297 457 313 461 354 478 c 0
 373 486 392 491 403 491 c 0
 425 491 442 472 442 447 c 0
 442 422 426 404 404 404 c 0
 392 404 372 409 352 416 c 0
 311 432 295 435 261 438 c 1
 260 341 270 297 301 260 c 1
 270 226 260 183 260 85 c 1
 294 88 309 91 351 107 c 0
 371 114 390 119 402 119 c 0
 425 119 441 102 441 75 c 0
 441 50 424 32 401 32 c 0
 391 32 372 37 353 45 c 0
 311 62 296 66 260 67 c 1
 260 13 264 -11 284 -61 c 0
 291 -80 296 -97 296 -107 c 0
 296 -131 274 -153 249 -153 c 0
 225 -153 203 -131 203 -107 c 0
 203 -97 208 -80 215 -61 c 0
 235 -11 239 13 239 67 c 1
 205 66 187 62 146 45 c 0
 127 37 109 32 98 32 c 0
 74 32 58 50 58 76 c 0
 58 102 74 119 97 119 c 0
 108 119 128 114 148 107 c 0
 190 91 205 88 239 85 c 1
 240 183 228 233 199 260 c 1
 229 299 241 351 240 438 c 1
 205 435 188 431 149 416 c 0
 125 406 115 404 103 404 c 0
 74 404 59 419 59 447 c 0
 59 473 76 491 99 491 c 0
 109 491 128 486 147 478 c 0
 188 461 206 457 240 456 c 1
 240 509 236 533 216 584 c 0
 209 603 204 620 204 630 c 0
 204 654 226 676 250 676 c 0
 275 676 297 654 297 630 c 0
 297 620 292 603 285 584 c 0
 265 534 261 510 261 456 c 1
EndSplineSet
EndChar

StartChar: periodcentered
Encoding: 183 183 114
Width: 250
Flags: MW
HStem: 199 111<110 139.5>
VStem: 70 111<238.5 268.5 238 269>
LayerCount: 4
Fore
SplineSet
125 310 m 0
 155 310 181 284 181 253 c 0
 181 223 155 199 124 199 c 0
 95 199 70 224 70 253 c 0
 70 285 95 310 125 310 c 0
EndSplineSet
EndChar

StartChar: paragraph
Encoding: 182 182 115
Width: 453
Flags: MW
HStem: 273 22<185 185> 640 22<185 463 251 309 251 251>
VStem: -9 76<436 516 417 542> 185 66<-180 273 273 273 295 640> 309 66<-180 553 -180 640>
LayerCount: 4
Fore
SplineSet
251 -180 m 1
 185 -180 l 1
 185 273 l 1
 122 275 94 283 61 306 c 0
 14 339 -9 395 -9 477 c 0
 -9 607 53 662 200 662 c 2
 463 662 l 1
 463 643 l 1
 386 636 376 626 375 553 c 2
 375 -180 l 1
 309 -180 l 1
 309 640 l 1
 251 640 l 1
 251 -180 l 1
185 640 m 1
 145 637 128 631 110 618 c 0
 81 597 67 552 67 480 c 0
 67 354 99 304 185 295 c 1
 185 640 l 1
EndSplineSet
EndChar

StartChar: bullet
Encoding: 8226 8226 116
Width: 350
Flags: MW
HStem: 196 270<137.5 212>
VStem: 40 270<294 368 293 369.5>
LayerCount: 4
Fore
SplineSet
174 466 m 0
 251 466 310 407 310 329 c 0
 310 257 249 196 175 196 c 0
 100 196 40 256 40 332 c 0
 40 407 99 466 174 466 c 0
EndSplineSet
EndChar

StartChar: quotesinglbase
Encoding: 8218 8218 117
Width: 333
Flags: MW
HStem: -6 108<120.5 141.5>
VStem: 179 39<-17 -12>
LayerCount: 4
Fore
SplineSet
97 -122 m 1
 151 -85 179 -48 179 -16 c 0
 179 -8 173 -2 165 -2 c 0
 164 -2 163 -2 158 -4 c 0
 152 -5 145 -6 138 -6 c 0
 101 -6 79 13 79 45 c 0
 79 79 103 102 138 102 c 0
 183 102 218 63 218 13 c 0
 218 -47 173 -108 106 -141 c 1
 97 -122 l 1
EndSplineSet
EndChar

StartChar: quotedblbase
Encoding: 8222 8222 118
Width: 444
Flags: MW
HStem: -6 108<86.5 107.5 318.5 339.5>
VStem: 145 39<-17 -12> 377 39<-17 -12>
LayerCount: 4
Fore
SplineSet
63 -122 m 1
 117 -84 145 -48 145 -16 c 0
 145 -8 139 -2 131 -2 c 0
 130 -2 129 -2 124 -4 c 0
 118 -5 111 -6 104 -6 c 0
 67 -6 45 13 45 45 c 0
 45 79 69 102 104 102 c 0
 149 102 184 63 184 13 c 0
 184 -47 140 -108 72 -141 c 1
 63 -122 l 1
295 -122 m 1
 349 -85 377 -48 377 -16 c 0
 377 -8 371 -2 363 -2 c 0
 362 -2 361 -2 356 -4 c 0
 350 -5 343 -6 336 -6 c 0
 299 -6 277 13 277 45 c 0
 277 79 301 102 336 102 c 0
 381 102 416 63 416 13 c 0
 416 -47 371 -108 304 -141 c 1
 295 -122 l 1
EndSplineSet
EndChar

StartChar: quotedblright
Encoding: 8221 8221 119
Width: 444
Flags: MW
HStem: 568 108<71.5 92.5 303.5 324.5>
VStem: 130 39<557 562> 362 39<557 562>
LayerCount: 4
Fore
SplineSet
48 452 m 1
 102 489 130 526 130 558 c 0
 130 566 124 572 116 572 c 0
 115 572 114 572 109 570 c 0
 103 569 96 568 89 568 c 0
 52 568 30 587 30 619 c 0
 30 653 54 676 89 676 c 0
 134 676 169 637 169 587 c 0
 169 527 124 466 57 433 c 1
 48 452 l 1
280 452 m 1
 334 489 362 525 362 558 c 0
 362 566 356 572 348 572 c 0
 347 572 346 572 341 570 c 0
 335 569 328 568 321 568 c 0
 284 568 262 587 262 619 c 0
 262 653 286 676 321 676 c 0
 366 676 401 637 401 587 c 0
 401 527 356 466 289 433 c 1
 280 452 l 1
EndSplineSet
EndChar

StartChar: guillemotright
Encoding: 187 187 120
Width: 500
Flags: MW
HStem: 33 383<51.5 56.5 243.5 248.5>
VStem: 44 414<222 408.5>
LayerCount: 4
Fore
SplineSet
427 195 m 2
 356 134 316 97 257 39 c 0
 253 34 251 33 246 33 c 0
 240 33 237 36 237 42 c 0
 237 55 278 113 355 211 c 1
 361 218 l 1
 365 224 l 1
 340 257 323 278 290 317 c 0
 261 353 236 393 236 406 c 0
 236 411 241 416 246 416 c 0
 252 416 272 398 289 377 c 0
 291 374 321 344 350 318 c 0
 361 309 369 302 374 297 c 0
 376 296 382 290 393 281 c 2
 458 222 l 1
 427 195 l 2
235 195 m 2
 164 134 124 97 65 39 c 0
 61 34 59 33 54 33 c 0
 48 33 45 36 45 42 c 0
 45 55 86 113 163 211 c 1
 169 218 l 1
 173 224 l 1
 148 257 131 278 98 317 c 0
 69 353 44 393 44 406 c 0
 44 411 49 416 54 416 c 0
 60 416 80 398 97 377 c 0
 99 374 129 344 158 318 c 0
 169 309 177 302 182 297 c 0
 184 296 190 290 201 281 c 2
 266 222 l 1
 235 195 l 2
EndSplineSet
EndChar

StartChar: ellipsis
Encoding: 8230 8230 121
Width: 1000
Flags: MW
HStem: -11 111<151 180.5 484 513.5 817 846.5>
VStem: 111 111<28.5 58.5 28 59> 444 111<28.5 58.5 28 59> 777 111<28.5 58.5 28 59>
LayerCount: 4
Fore
SplineSet
166 100 m 0
 196 100 222 74 222 43 c 0
 222 13 196 -11 165 -11 c 0
 136 -11 111 14 111 43 c 0
 111 75 136 100 166 100 c 0
499 100 m 0
 529 100 555 74 555 43 c 0
 555 13 529 -11 498 -11 c 0
 469 -11 444 14 444 43 c 0
 444 75 469 100 499 100 c 0
832 100 m 0
 862 100 888 74 888 43 c 0
 888 13 862 -11 831 -11 c 0
 802 -11 777 14 777 43 c 0
 777 75 802 100 832 100 c 0
EndSplineSet
EndChar

StartChar: perthousand
Encoding: 8240 8240 122
Width: 1000
Flags: MW
HStem: -27 27<471.5 512.5 471.5 533.5 802 840> 303 26<472 513 805.5 836.5> 322 24<145 185 145 207.5> 651 26<143 184>
VStem: 24 79<448 548 446.5 550.5> 228 78<451.5 549 446 549.5> 353 78<101.5 201> 556 79<101 198> 682 78<100 177.5> 885 78<125 183.5 125 202.5>
LayerCount: 4
Fore
SplineSet
523 706 m 1xdfc0
 567 706 l 1
 137 -18 l 1
 90 -18 l 1
 523 706 l 1xdfc0
822 329 m 0
 851 329 884 315 909 294 c 0
 944 263 963 214 963 153 c 0
 963 97 949 52 923 21 c 0
 897 -9 858 -27 822 -27 c 0
 742 -27 682 48 682 149 c 0
 682 206 698 255 725 285 c 0
 749 311 789 329 822 329 c 0
821 303 m 0
 780 303 760 254 760 150 c 0
 760 50 781 0 823 0 c 0
 864 0 885 52 885 154 c 0
 885 251 863 303 821 303 c 0
496 329 m 0
 574 329 635 251 635 151 c 0
 635 49 574 -27 493 -27 c 0
 413 -27 353 49 353 149 c 0
 353 253 413 329 496 329 c 0
493 303 m 0
 451 303 431 254 431 152 c 0
 431 51 451 0 492 0 c 0
 533 0 556 53 556 149 c 0
 556 247 533 303 493 303 c 0
165 677 m 0
 247 677 306 601 306 497 c 0
 306 395 248 322 167 322 c 0x2c
 84 322 24 397 24 499 c 0
 24 602 83 677 165 677 c 0
163 651 m 0
 123 651 103 601 103 495 c 0
 103 398 125 346 165 346 c 0x2c
 205 346 228 402 228 501 c 0
 228 598 205 651 163 651 c 0
EndSplineSet
EndChar

StartChar: questiondown
Encoding: 191 191 123
Width: 444
Flags: MW
HStem: -218 30<209.5 264 209.5 269> 361 105<201 231.5>
VStem: 39 92<-82 -45 -101.5 -42.5> 163 108<400 429.5 400 430.5> 209 17<294 294> 334 51<-142 -52.5>
LayerCount: 4
Fore
SplineSet
226 294 m 1xac
 225 250 215 200 196 152 c 2
 168 88 l 2
 144 33 131 -22 131 -68 c 0
 131 -135 179 -188 240 -188 c 0
 288 -188 334 -158 334 -126 c 0
 334 -117 329 -109 317 -95 c 0
 302 -78 296 -66 296 -52 c 0
 296 -27 312 -11 337 -11 c 0
 368 -11 385 -32 385 -73 c 0
 385 -156 315 -218 223 -218 c 0
 168 -218 109 -195 75 -160 c 0
 52 -137 39 -101 39 -63 c 0
 39 -22 52 14 84 63 c 0
 98 84 98 84 144 140 c 0
 180 186 198 226 209 294 c 1
 226 294 l 1xac
217 466 m 0xf4
 248 466 271 444 271 415 c 0
 271 385 247 361 216 361 c 0
 186 361 163 384 163 416 c 0
 163 445 185 466 217 466 c 0xf4
EndSplineSet
EndChar

StartChar: grave
Encoding: 96 96 124
Width: 333
Flags: MW
HStem: 507 171<57.5 217 57.5 257>
VStem: 34 223<507 656.5>
LayerCount: 4
Fore
SplineSet
217 507 m 1
 63 604 l 2
 44 616 34 631 34 647 c 0
 34 666 47 678 68 678 c 0
 83 678 92 673 110 655 c 2
 257 507 l 1
 217 507 l 1
EndSplineSet
EndChar

StartChar: acute
Encoding: 180 180 125
Width: 333
Flags: MW
HStem: 507 171<76 276>
VStem: 76 224<507 656>
LayerCount: 4
Fore
SplineSet
76 507 m 1
 223 655 l 2
 241 673 250 678 265 678 c 0
 287 678 300 666 300 646 c 0
 300 630 291 617 270 604 c 2
 116 507 l 1
 76 507 l 1
EndSplineSet
EndChar

StartChar: circumflex
Encoding: 710 710 126
Width: 333
Flags: MW
HStem: 507 167<11 197 11 197 135 322 135 288>
VStem: 11 311<507 507>
LayerCount: 4
Fore
SplineSet
288 507 m 1
 166 610 l 1
 45 507 l 1
 11 507 l 1
 135 674 l 1
 197 674 l 1
 322 507 l 1
 288 507 l 1
EndSplineSet
EndChar

StartChar: tilde
Encoding: 732 732 127
Width: 333
Flags: MW
HStem: 532 56<241.5 253.5> 578 55<77 87>
VStem: 1 330<532 638>
LayerCount: 4
Fore
SplineSet
331 638 m 1xa0
 310 562 281 532 226 532 c 0
 201 532 186 536 145 556 c 2xa0
 122 567 l 2
 107 574 93 578 81 578 c 0
 58 578 41 563 30 532 c 1
 1 532 l 1
 16 597 52 633 102 633 c 0
 124 633 149 627 172 615 c 2x60
 196 603 l 2
 215 594 234 588 249 588 c 0
 272 588 285 600 302 638 c 1
 331 638 l 1xa0
EndSplineSet
EndChar

StartChar: macron
Encoding: 175 175 128
Width: 333
Flags: MW
HStem: 545 49<16 316 16 316>
VStem: 16 300<545 594 545 594>
LayerCount: 4
Fore
SplineSet
316 594 m 1
 316 545 l 1
 16 545 l 1
 16 594 l 1
 316 594 l 1
EndSplineSet
EndChar

StartChar: breve
Encoding: 728 728 129
Width: 333
Flags: MW
HStem: 507 60<141 196 135 207>
VStem: 26 29<664 664>
LayerCount: 4
Fore
SplineSet
307 664 m 1
 295 558 249 507 165 507 c 0
 117 507 78 526 53 561 c 0
 34 589 27 613 26 664 c 1
 55 664 l 1
 69 597 103 567 167 567 c 0
 225 567 249 588 278 664 c 1
 307 664 l 1
EndSplineSet
EndChar

StartChar: dotaccent
Encoding: 729 729 130
Width: 333
Flags: MW
HStem: 523 100<153 179.5 153 179.5>
VStem: 118 98<559.5 586.5 559 587>
LayerCount: 4
Fore
SplineSet
166 623 m 0
 193 623 216 600 216 573 c 0
 216 545 193 523 166 523 c 0
 139 523 118 545 118 574 c 0
 118 600 140 623 166 623 c 0
EndSplineSet
EndChar

StartChar: dieresis
Encoding: 168 168 131
Width: 333
Flags: MW
HStem: 523 100<53 79.5 53 79.5 252 278.5>
VStem: 18 98<559.5 586.5 559 587> 217 98<559.5 586.5 559 587>
LayerCount: 4
Fore
SplineSet
66 623 m 0
 93 623 116 600 116 573 c 0
 116 545 93 523 66 523 c 0
 39 523 18 545 18 574 c 0
 18 600 40 623 66 623 c 0
265 623 m 0
 292 623 315 600 315 573 c 0
 315 545 292 523 265 523 c 0
 238 523 217 545 217 574 c 0
 217 600 239 623 265 623 c 0
EndSplineSet
EndChar

StartChar: ring
Encoding: 730 730 132
Width: 333
Flags: MW
HStem: 512 34<147.5 184 147.5 193.5> 677 34<149 184.5>
VStem: 67 34<593.5 630 593.5 639> 232 34<593 629>
LayerCount: 4
Fore
SplineSet
166 711 m 0
 221 711 266 666 266 611 c 0
 266 556 221 512 166 512 c 0
 110 512 67 556 67 612 c 0
 67 666 112 711 166 711 c 0
167 677 m 0
 131 677 101 648 101 612 c 0
 101 575 130 546 165 546 c 0
 203 546 232 575 232 611 c 0
 232 647 202 677 167 677 c 0
EndSplineSet
EndChar

StartChar: cedilla
Encoding: 184 184 133
Width: 333
Flags: MW
HStem: -215 35<120.5 148 120.5 174.5> -100 38<127 202>
VStem: 186 75<-149.5 -123>
LayerCount: 4
Fore
SplineSet
139 0 m 1
 174 0 l 1
 149 -65 l 1
 159 -63 165 -62 175 -62 c 0
 229 -62 261 -87 261 -131 c 0
 261 -183 213 -215 136 -215 c 0
 105 -215 81 -210 52 -199 c 1
 66 -168 l 1
 93 -177 110 -180 131 -180 c 0
 165 -180 186 -163 186 -136 c 0
 186 -110 171 -100 133 -100 c 0
 121 -100 113 -101 105 -104 c 1
 98 -99 l 1
 139 0 l 1
EndSplineSet
EndChar

StartChar: hungarumlaut
Encoding: 733 733 134
Width: 333
Flags: MW
HStem: 507 171<-10 190 146 190 171.5 186>
VStem: -10 380<507 656>
LayerCount: 4
Fore
SplineSet
146 507 m 1
 293 655 l 2
 311 673 320 678 335 678 c 0
 357 678 370 666 370 646 c 0
 370 630 361 617 340 604 c 2
 186 507 l 1
 146 507 l 1
-10 507 m 1
 137 655 l 2
 155 673 164 678 179 678 c 0
 201 678 214 666 214 646 c 0
 214 630 205 617 184 604 c 2
 30 507 l 1
 -10 507 l 1
EndSplineSet
EndChar

StartChar: ogonek
Encoding: 731 731 135
Width: 333
Flags: MW
HStem: -165 56<147 157.5>
VStem: 64 56<-81 -73.5>
LayerCount: 4
Fore
SplineSet
249 -89 m 1
 212 -142 178 -165 137 -165 c 0
 95 -165 64 -132 64 -90 c 0
 64 -57 80 -30 118 0 c 1
 164 0 l 1
 133 -25 120 -46 120 -69 c 0
 120 -93 136 -109 158 -109 c 0
 179 -109 198 -100 229 -73 c 1
 249 -89 l 1
EndSplineSet
EndChar

StartChar: caron
Encoding: 711 711 136
Width: 333
Flags: MW
HStem: 507 167<11 197 11 135>
VStem: 11 311<674 674>
LayerCount: 4
Fore
SplineSet
197 507 m 1
 135 507 l 1
 11 674 l 1
 45 674 l 1
 166 571 l 1
 288 674 l 1
 322 674 l 1
 197 507 l 1
EndSplineSet
EndChar

StartChar: emdash
Encoding: 8212 8212 137
Width: 1000
Flags: MW
HStem: 201 49<0 1000 0 1000>
VStem: 0 1000<201 250 201 250>
LayerCount: 4
Fore
SplineSet
1000 250 m 1
 1000 201 l 1
 0 201 l 1
 0 250 l 1
 1000 250 l 1
EndSplineSet
EndChar

StartChar: AE
Encoding: 198 198 138
Width: 889
Flags: MW
HStem: 0 19<198 199 0 0> 0 38<566 642 566 819> 260 39<239 398 239 398 222 398> 329 37<497 608 497 642 497 608> 626 36<514 524 524 611>
VStem: 398 99<108 260 260 260 299 329 366 596> 740 21<229 463 229 463> 793 23<521 662>
LayerCount: 4
Fore
SplineSet
793 521 m 1x5f
 781 612 756 626 611 626 c 2
 524 626 l 2
 504 626 498 619 497 596 c 2
 497 366 l 1
 608 366 l 2
 713 368 733 383 740 463 c 1
 761 463 l 1
 761 229 l 1
 740 229 l 1
 733 306 713 327 642 329 c 2
 497 329 l 1
 497 91 l 2
 497 67 500 50 505 47 c 0
 509 42 535 38 566 38 c 2
 642 38 l 2
 754 40 781 58 839 168 c 1
 863 168 l 1
 819 0 l 1
 309 0 l 1
 309 19 l 1
 326 21 l 2x5f
 389 30 396 39 398 108 c 2
 398 260 l 1
 222 260 l 1
 194 207 l 2
 153 129 130 71 130 49 c 0
 130 34 155 23 198 19 c 1
 199 19 l 1
 199 0 l 1
 0 0 l 1
 0 19 l 1
 43 25 55 36 88 97 c 2xbf
 333 581 l 2
 339 592 342 603 342 609 c 0
 342 631 317 640 252 642 c 1
 252 662 l 1
 816 662 l 1
 816 521 l 1
 793 521 l 1x5f
398 299 m 1x7f
 398 618 l 1
 239 299 l 1
 398 299 l 1x7f
EndSplineSet
EndChar

StartChar: ordfeminine
Encoding: 170 170 139
Width: 276
Flags: MW
HStem: 394 47<54.5 111.5> 648 28<109.5 132.5>
VStem: 4 63<442 498> 16 60<623 628.5> 158 71<474 551 551 551>
LayerCount: 4
Fore
SplineSet
270 424 m 1xd8
 246 401 234 394 211 394 c 0
 184 394 172 406 166 438 c 1
 133 407 105 394 75 394 c 0
 34 394 4 422 4 462 c 0
 4 482 12 502 26 513 c 0xe8
 53 536 66 542 157 576 c 1
 157 606 l 2
 157 633 144 648 121 648 c 0
 98 648 76 637 76 625 c 0
 76 621 77 616 78 611 c 0
 79 608 79 605 79 603 c 0
 79 590 65 578 48 578 c 0
 30 578 16 591 16 609 c 0
 16 648 61 676 124 676 c 0
 194 676 229 644 229 580 c 2
 229 465 l 2
 229 436 231 430 242 430 c 0
 252 430 260 433 270 442 c 1
 270 424 l 1xd8
158 551 m 1xe8
 88 526 67 511 67 485 c 0
 67 461 84 441 105 441 c 0
 118 441 130 444 147 452 c 0
 154 459 158 466 158 474 c 2
 158 551 l 1xe8
EndSplineSet
EndChar

StartChar: Lslash
Encoding: 321 321 140
Width: 611
Flags: MW
HStem: 0 39<287 354 287 550> 643 19<12 294 12 294>
VStem: 99 102<109 276 276 276 325 335 384 553>
LayerCount: 4
Fore
SplineSet
99 553 m 2
 97 625 85 638 12 643 c 1
 12 662 l 1
 294 662 l 1
 294 643 l 1
 216 639 203 626 201 553 c 2
 201 384 l 1
 356 473 l 1
 356 424 l 1
 201 335 l 1
 201 80 l 2
 202 44 210 41 287 39 c 2
 354 39 l 1
 483 43 526 69 573 174 c 1
 598 174 l 1
 550 0 l 1
 12 0 l 1
 12 19 l 1
 84 23 97 37 99 109 c 2
 99 276 l 1
 12 226 l 1
 12 275 l 1
 99 325 l 1
 99 553 l 2
EndSplineSet
EndChar

StartChar: Oslash
Encoding: 216 216 141
Width: 722
Flags: MW
HStem: -14 36<332 427 332 456.5> 640 36<295.5 389>
VStem: 34 114<298 425.5 286 431.5> 574 114<234.5 364 229.5 374.5>
LayerCount: 4
Fore
SplineSet
570 604 m 1
 611 566 628 546 646 511 c 0
 673 461 688 396 688 332 c 0
 688 127 554 -14 359 -14 c 0
 292 -14 246 -1 184 36 c 1
 105 -80 l 1
 56 -80 l 1
 151 59 l 1
 109 97 93 117 75 152 c 0
 49 202 34 266 34 330 c 0
 34 533 169 676 362 676 c 0
 428 676 473 663 537 627 c 1
 609 734 l 1
 658 734 l 1
 570 604 l 1
219 88 m 1
 262 41 303 22 361 22 c 0
 493 22 574 139 574 330 c 0
 574 419 561 475 527 540 c 1
 219 88 l 1
502 575 m 1
 458 621 417 640 361 640 c 0
 230 640 148 521 148 330 c 0
 148 242 160 187 194 123 c 1
 502 575 l 1
EndSplineSet
EndChar

StartChar: OE
Encoding: 338 338 142
Width: 889
Flags: MW
HStem: -6 37<263.5 307.5> 0 39 329.5 37 626 36<585 636 585 585> 632 36<289.5 338.5 289.5 355.5>
VStem: 19 112<268 379.5> 420 100<131 329 366 527 527 563.5> 756 21<230 464 230 464> 804 23<521 662>
LayerCount: 4
Fore
SplineSet
804 521 m 1x7780
 793 610 766 626 636 626 c 2
 585 626 l 2
 524 624 520 623 520 602 c 2
 520 366 l 1
 624 367 l 2
 730 370 749 384 756 464 c 1
 777 464 l 1
 777 230 l 1
 756 230 l 1
 749 307 728 328 658 330 c 2
 520 329 l 1
 520 84 l 2
 522 45 529 39 576 38 c 2
 700 40 l 2
 763 42 799 73 850 168 c 1
 874 168 l 1
 830 0 l 1
 480 0 l 2x77
 440 0 431 0 389 -3 c 2
 374 -4 l 1
 359 -4 l 2
 335 -5 315 -6 300 -6 c 0
 227 -6 159 21 109 71 c 0
 49 130 19 214 19 322 c 0
 19 437 56 537 119 593 c 0
 174 642 248 668 331 668 c 0xaf
 346 668 348 668 396 665 c 0
 442 663 481 662 501 662 c 2
 827 662 l 1
 827 521 l 1
 804 521 l 1x7780
420 527 m 2xaf
 420 600 390 632 321 632 c 0
 200 632 131 521 131 326 c 0
 131 134 197 31 320 31 c 0
 391 31 420 60 420 131 c 2
 420 527 l 2xaf
EndSplineSet
EndChar

StartChar: ordmasculine
Encoding: 186 186 143
Width: 310
Flags: MW
HStem: 394 33<147.5 183 147.5 195> 643 33<128.5 174>
VStem: 6 73<549.5 576> 231 73<500 552>
LayerCount: 4
Fore
SplineSet
159 676 m 0
 244 676 304 621 304 542 c 0
 304 458 239 394 151 394 c 0
 67 394 6 452 6 533 c 0
 6 619 67 676 159 676 c 0
150 643 m 0
 107 643 79 614 79 569 c 0
 79 530 88 489 104 461 c 0
 116 439 135 427 160 427 c 0
 206 427 231 458 231 514 c 0
 231 590 198 643 150 643 c 0
EndSplineSet
EndChar

StartChar: ae
Encoding: 230 230 144
Width: 667
Flags: MW
HStem: -10 48<173.5 179> -10 67<455.5 458> 277 30<355 521 355 616 354 521> 431 29<432.5 469> 436 24<191.5 225>
VStem: 38 87<101 130> 60 87<337 354 336.5 382.5> 273.5 80.5 521 95<277 307>
LayerCount: 4
Fore
SplineSet
632 149 m 1x7580
 604 90 586 62 558 38 c 0
 523 6 481 -10 435 -10 c 0x6d80
 377 -10 340 11 306 63 c 1
 238 6 204 -10 154 -10 c 0
 86 -10 38 35 38 100 c 0xad80
 38 160 80 201 187 245 c 2
 273 281 l 1
 275 344 l 2
 275 367 270 398 263 414 c 0
 256 428 237 436 213 436 c 0
 170 436 147 419 145 386 c 2
 145 380 l 1
 146 369 l 2
 147 363 147 356 147 352 c 0
 147 321 132 304 104 304 c 0
 77 304 60 322 60 352 c 0
 60 413 129 460 219 460 c 0xab80
 269 460 298 449 337 415 c 1
 382 450 409 460 456 460 c 0
 557 460 604 406 616 277 c 1
 354 277 l 1
 354 177 359 146 381 107 c 0
 397 77 435 57 476 57 c 0
 533 57 572 83 620 154 c 1
 632 149 l 1x7580
273 253 m 1xb580
 152 209 125 185 125 125 c 0
 125 77 155 38 192 38 c 0
 228 38 293 70 293 88 c 0
 293 89 293 90 292 91 c 0
 281 127 275 164 274 201 c 2
 273 253 l 1xb580
521 307 m 1
 519 395 496 431 442 431 c 0
 385 431 360 395 355 307 c 1
 521 307 l 1
EndSplineSet
EndChar

StartChar: dotlessi
Encoding: 305 305 145
Width: 278
Flags: MW
HStem: 0 15<16 253 16 16> 394 11
VStem: 95 84<102 334 334 356>
LayerCount: 4
Fore
SplineSet
16 15 m 1
 84 18 93 28 95 102 c 2
 95 334 l 2
 95 378 86 394 62 394 c 0
 53 394 40 393 28 391 c 2
 20 390 l 1
 20 405 l 1
 175 460 l 1
 179 457 l 1
 179 102 l 2
 180 29 187 20 253 15 c 1
 253 0 l 1
 16 0 l 1
 16 15 l 1
EndSplineSet
EndChar

StartChar: lslash
Encoding: 322 322 146
Width: 278
Flags: MW
HStem: 0 15<21 257 21 21> 625 14
VStem: 98 84<87 318 318 318 362 375 419 564 564 587.5>
LayerCount: 4
Fore
SplineSet
98 564 m 2
 98 611 88 625 56 625 c 0
 48 625 36 624 25 623 c 2
 19 623 l 1
 19 639 l 1
 88 656 126 666 178 683 c 1
 182 681 l 1
 182 419 l 1
 259 472 l 1
 259 428 l 1
 182 375 l 1
 182 84 l 2
 183 28 194 18 257 15 c 1
 257 0 l 1
 21 0 l 1
 21 15 l 1
 83 19 97 33 98 87 c 2
 98 318 l 1
 20 264 l 1
 20 308 l 1
 98 362 l 1
 98 564 l 2
EndSplineSet
EndChar

StartChar: oslash
Encoding: 248 248 147
Width: 500
Flags: MW
HStem: -10 28<244 298.5 244 310.5> 432 28<201.5 252.5>
VStem: 29 90<241.5 295> 380 90<164.5 235>
LayerCount: 4
Fore
SplineSet
372 426 m 1
 403 404 416 392 432 368 c 0
 456 331 470 282 470 234 c 0
 470 95 374 -10 247 -10 c 0
 212 -10 189 -5 154 11 c 1
 89 -112 l 1
 52 -112 l 1
 125 28 l 1
 91 55 78 70 62 97 c 0
 41 135 29 181 29 227 c 0
 29 363 120 460 249 460 c 0
 282 460 306 455 341 442 c 1
 398 551 l 1
 437 551 l 1
 372 426 l 1
179 60 m 1
 204 30 227 18 261 18 c 0
 336 18 380 86 380 203 c 0
 380 267 369 312 340 366 c 1
 179 60 l 1
317 396 m 1
 290 422 268 432 237 432 c 0
 166 432 119 370 119 276 c 0
 119 207 131 150 158 92 c 1
 317 396 l 1
EndSplineSet
EndChar

StartChar: oe
Encoding: 339 339 148
Width: 722
Flags: MW
HStem: -10 26<200.5 270> -10 67<530.5 550> 277 30<420 579 419 674 420 420> 431 29<214.5 263 207 265.5 486.5 523>
VStem: 30 90<186.5 256> 343 77<139 277> 579 95<277 334 277 362>
LayerCount: 4
Fore
SplineSet
690 139 m 1x7e
 638 31 589 -10 511 -10 c 0x7e
 449 -10 413 17 383 85 c 1
 345 16 304 -10 236 -10 c 0xbe
 115 -10 30 85 30 218 c 0
 30 294 59 369 105 412 c 0
 139 444 182 460 232 460 c 0
 294 460 334 440 384 384 c 1
 425 440 459 460 514 460 c 0
 565 460 612 437 640 398 c 0
 663 367 671 338 674 277 c 1
 420 277 l 1
 424 190 433 153 459 107 c 0
 477 77 512 57 549 57 c 0
 597 57 632 81 679 145 c 1
 690 139 l 1x7e
229 431 m 0
 200 431 176 420 154 398 c 0
 134 377 120 323 120 271 c 0
 120 102 161 16 240 16 c 0xbe
 308 16 343 79 343 199 c 0
 343 348 302 431 229 431 c 0
579 307 m 1
 579 334 l 2
 579 390 546 431 500 431 c 0
 447 431 420 390 419 307 c 1
 579 307 l 1
EndSplineSet
EndChar

StartChar: germandbls
Encoding: 223 223 149
Width: 500
Flags: MW
HStem: -9 29<300.5 331 300.5 339.5> 0 15<12 157 12 12> 357 20 656 27<217 271.5>
VStem: 73 84<84 454 454 489> 192 88 334 87<495 560.5> 374 94<131 214.5 131 217.5>
LayerCount: 4
Fore
SplineSet
12 15 m 1x7a
 62 18 71 29 73 84 c 2
 73 454 l 2
 73 524 82 569 103 606 c 0
 132 657 183 683 251 683 c 0
 355 683 421 624 421 531 c 0x5a
 421 459 391 426 284 377 c 1
 345 365 374 354 406 326 c 0
 446 292 468 243 468 186 c 0
 468 76 390 -9 289 -9 c 0
 232 -9 192 21 192 64 c 0
 192 91 211 112 237 112 c 0
 259 112 277 95 279 72 c 2
 281 50 l 2
 283 28 291 20 310 20 c 0
 352 20 374 65 374 150 c 0xbd
 374 285 330 354 242 357 c 0
 219 358 210 363 210 374 c 0
 210 383 218 387 239 389 c 0
 304 396 334 437 334 517 c 0
 334 604 300 656 243 656 c 0
 190 656 157 614 157 549 c 2
 157 0 l 1
 12 0 l 1
 12 15 l 1x7a
EndSplineSet
EndChar

StartChar: uni00B9
Encoding: 185 185 150
Width: 300
Flags: MW
HStem: 270 24<57 248 57 57>
VStem: 110 81<330 583 583 594>
LayerCount: 4
Fore
SplineSet
248 270 m 1
 57 270 l 1
 57 294 l 1
 99 296 109 303 110 326 c 2
 110 583 l 2
 110 605 108 611 102 611 c 0
 95 611 95 611 59 598 c 1
 59 621 l 1
 177 676 l 1
 191 673 l 1
 191 330 l 2
 192 304 204 296 248 294 c 1
 248 270 l 1
EndSplineSet
EndChar

StartChar: logicalnot
Encoding: 172 172 151
Width: 564
Flags: MW
HStem: 319 64<31 469 31 535>
VStem: 469 66<113 319 319 319>
LayerCount: 4
Fore
SplineSet
535 383 m 1
 535 113 l 1
 469 113 l 1
 469 319 l 1
 31 319 l 1
 31 383 l 1
 535 383 l 1
EndSplineSet
EndChar

StartChar: uni00B5
Encoding: 181 181 152
Width: 500
Flags: MW
HStem: -10 37<393 468.5> -10 62<205 234.5>
VStem: 59 88<115.5 144 144 450> 341 88<115 450>
LayerCount: 4
Fore
SplineSet
429 92 m 2xb0
 429 46 438 27 461 27 c 0
 476 27 487 33 511 55 c 1
 511 47 l 1
 478 4 455 -10 417 -10 c 0xb0
 369 -10 346 17 344 80 c 1
 304 17 262 -10 207 -10 c 0
 156 -10 121 13 90 64 c 1
 94 27 96 17 109 -33 c 0
 122 -84 127 -112 127 -141 c 0
 127 -192 112 -218 81 -218 c 0
 52 -218 35 -192 35 -148 c 0
 35 -126 40 -83 47 -43 c 0
 57 15 59 33 59 54 c 2
 59 450 l 1
 147 450 l 1
 147 144 l 2
 147 87 179 52 231 52 c 0
 278 52 317 74 341 115 c 1x70
 341 450 l 1
 429 450 l 1
 429 92 l 2xb0
EndSplineSet
EndChar

StartChar: trademark
Encoding: 8482 8482 153
Width: 980
Flags: MW
HStem: 402 12<243 361 243 243> 641 21<260 279 260 260 325 344 325 325> 650 12<436 436 784 784>
VStem: 279 46<446 641> 404 14.5 475 23<446 602 446 618 446 630.5> 702 46<446 611 611 611>
LayerCount: 4
Fore
SplineSet
420 592 m 1xbe
 405 592 l 1
 403 600 l 2
 396 634 386 640 344 641 c 2
 325 641 l 1
 325 446 l 2
 325 421 330 416 361 414 c 1
 361 402 l 1
 243 402 l 1
 243 414 l 1
 274 416 279 421 279 446 c 2
 279 641 l 1
 260 641 l 2
 215 640 207 634 199 592 c 1
 184 592 l 1
 187 662 l 1
 417 662 l 1xde
 420 592 l 1xbe
701 662 m 1xbe
 784 662 l 1
 784 650 l 1
 754 648 748 643 748 618 c 2
 748 446 l 2
 748 421 753 416 784 414 c 1
 784 402 l 1
 666 402 l 1
 666 414 l 1
 697 416 702 421 702 446 c 2
 702 611 l 1
 603 402 l 1
 594 402 l 1
 498 602 l 1
 498 446 l 2
 497 421 504 415 537 414 c 1
 537 402 l 1
 436 402 l 1
 436 414 l 1
 469 415 475 421 475 446 c 2
 475 618 l 2
 475 643 469 649 436 650 c 1
 436 662 l 1
 521 662 l 1
 612 471 l 1
 701 662 l 1xbe
EndSplineSet
EndChar

StartChar: Eth
Encoding: 208 208 154
Width: 722
Flags: MW
HStem: 0 37<238 300> 315 44<21 104 21 104 206 352> 625 37<236 286 286 300.5>
VStem: 104 102<109 315 359 553 553 553> 576 109<285.5 379 285.5 381>
LayerCount: 4
Fore
SplineSet
16 662 m 1
 286 662 l 2
 423 662 532 626 600 557 c 0
 656 502 685 424 685 334 c 0
 685 237 648 148 583 89 c 0
 521 33 416 0 300 0 c 2
 16 0 l 1
 16 19 l 1
 91 24 103 36 104 109 c 2
 104 315 l 1
 21 315 l 1
 21 359 l 1
 104 359 l 1
 104 553 l 2
 103 628 95 636 16 643 c 1
 16 662 l 1
352 315 m 1
 206 315 l 1
 206 78 l 2
 206 46 218 37 258 37 c 0
 345 37 403 49 454 78 c 0
 535 125 576 209 576 327 c 0
 576 435 535 521 457 575 c 0
 409 609 345 625 256 625 c 0
 216 625 206 617 206 586 c 2
 206 359 l 1
 352 359 l 1
 352 315 l 1
EndSplineSet
EndChar

StartChar: onehalf
Encoding: 189 189 155
Width: 750
GlyphClass: 3
Flags: MW
HStem: 6 52<538 675 538 701> 277 11<38 216 38 38> 349 50<570.5 583.5>
VStem: 91 68<330 583 583 596.5> 639 70<271.5 297>
LayerCount: 4
Fore
SplineSet
216 277 m 1
 38 277 l 1
 38 288 l 1
 77 290 90 300 91 326 c 2
 91 583 l 2
 91 610 88 618 76 618 c 0
 69 618 67 617 40 608 c 1
 40 617 l 1
 152 669 l 1
 159 668 l 1
 159 330 l 2
 160 301 174 291 216 288 c 1
 216 277 l 1
150 -14 m 1
 101 -14 l 1
 554 676 l 1
 600 676 l 1
 150 -14 l 1
701 6 m 1
 459 6 l 1
 459 20 l 1
 556 125 l 2
 613 188 639 234 639 275 c 0
 639 319 607 349 560 349 c 0
 521 349 491 327 470 282 c 1
 456 290 l 1
 470 331 481 349 499 366 c 0
 521 387 554 399 587 399 c 0
 656 399 709 353 709 294 c 0
 709 249 685 204 635 154 c 2
 538 58 l 1
 675 58 l 2
 704 59 715 64 728 83 c 1
 734 81 l 1
 701 6 l 1
EndSplineSet
Ligature2: "'frac' Diagonal Fractions in Latin lookup 15 subtable" one slash two
EndChar

StartChar: plusminus
Encoding: 177 177 156
Width: 564
Flags: MW
HStem: 60 53<37 528 37 528> 342 53<37 256 37 256 309 528>
VStem: 256 53<182 342 182 342 395 615>
LayerCount: 4
Fore
SplineSet
37 113 m 1
 528 113 l 1
 528 60 l 1
 37 60 l 1
 37 113 l 1
256 615 m 1
 309 615 l 1
 309 395 l 1
 528 395 l 1
 528 342 l 1
 309 342 l 1
 309 182 l 1
 256 182 l 1
 256 342 l 1
 37 342 l 1
 37 395 l 1
 256 395 l 1
 256 615 l 1
EndSplineSet
EndChar

StartChar: Thorn
Encoding: 222 222 157
Width: 556
Flags: MW
HStem: 0 19<16 296 16 16> 158 40<258 310.5> 494 38<221 282 282 303> 643 19<16 293 16 293>
VStem: 100 102<120 161 201 461> 433 109<318 396.5>
LayerCount: 4
Fore
SplineSet
296 0 m 1
 16 0 l 1
 16 19 l 1
 92 26 99 35 100 120 c 2
 100 553 l 2
 99 626 90 635 16 643 c 1
 16 662 l 1
 293 662 l 1
 293 643 l 1
 211 636 201 623 202 532 c 1
 282 532 l 2
 442 532 542 462 542 351 c 0
 542 285 505 224 446 192 c 0
 403 168 350 158 271 158 c 0
 245 158 228 159 202 161 c 1
 202 109 l 2
 203 35 217 21 296 19 c 1
 296 0 l 1
202 201 m 1
 224 199 238 198 259 198 c 0
 374 198 433 248 433 345 c 0
 433 448 372 494 234 494 c 0
 208 494 202 487 202 461 c 2
 202 201 l 1
EndSplineSet
EndChar

StartChar: onequarter
Encoding: 188 188 158
Width: 750
GlyphClass: 3
Flags: MW
HStem: 95 50<467 593 467 595 424 593 661 712> 277 11<38 216 38 38>
VStem: 91 68<330 583 583 596.5> 593 68<145 315 315 315>
LayerCount: 4
Fore
SplineSet
216 277 m 1
 38 277 l 1
 38 288 l 1
 77 290 90 300 91 326 c 2
 91 583 l 2
 91 610 88 618 76 618 c 0
 69 618 67 617 40 608 c 1
 40 617 l 1
 152 669 l 1
 159 668 l 1
 159 330 l 2
 160 301 174 291 216 288 c 1
 216 277 l 1
712 95 m 1
 661 95 l 1
 661 0 l 1
 595 0 l 1
 595 95 l 1
 424 95 l 1
 424 141 l 1
 618 399 l 1
 661 399 l 1
 661 145 l 1
 712 145 l 1
 712 95 l 1
593 315 m 1
 467 145 l 1
 593 145 l 1
 593 315 l 1
181 -14 m 1
 132 -14 l 1
 585 676 l 1
 631 676 l 1
 181 -14 l 1
EndSplineSet
Ligature2: "'frac' Diagonal Fractions in Latin lookup 15 subtable" one slash four
EndChar

StartChar: divide
Encoding: 247 247 159
Width: 564
Flags: MW
HStem: 50 98<269 295.5> 280 53<37 528 37 528> 465 98<269 295.5>
VStem: 234 98<85 111 84 111.5 500 526>
LayerCount: 4
Fore
SplineSet
37 280 m 1
 37 333 l 1
 528 333 l 1
 528 280 l 1
 37 280 l 1
282 563 m 0
 309 563 332 540 332 512 c 0
 332 487 309 465 282 465 c 0
 256 465 234 487 234 513 c 0
 234 540 256 563 282 563 c 0
282 148 m 0
 309 148 332 125 332 97 c 0
 332 71 309 50 282 50 c 0
 256 50 234 72 234 98 c 0
 234 125 256 148 282 148 c 0
EndSplineSet
EndChar

StartChar: brokenbar
Encoding: 166 166 160
Width: 200
Flags: MW
HStem: -153 797<67 133 67 133>
VStem: 67 66<-153 177 -153 177 315 644>
LayerCount: 4
Fore
SplineSet
67 177 m 1
 133 177 l 1
 133 -153 l 1
 67 -153 l 1
 67 177 l 1
67 644 m 1
 133 644 l 1
 133 315 l 1
 67 315 l 1
 67 644 l 1
EndSplineSet
EndChar

StartChar: degree
Encoding: 176 176 161
Width: 400
Flags: MW
HStem: 390 34<171 228 171 238.5> 642 34<171.5 228.5>
VStem: 57 39<503.5 563 503.5 573> 304 39<503 562.5>
LayerCount: 4
Fore
SplineSet
200 676 m 0
 281 676 343 613 343 532 c 0
 343 452 279 390 198 390 c 0
 120 390 57 454 57 533 c 0
 57 613 120 676 200 676 c 0
200 642 m 0
 143 642 96 593 96 533 c 0
 96 474 143 424 199 424 c 0
 257 424 304 473 304 533 c 0
 304 592 257 642 200 642 c 0
EndSplineSet
EndChar

StartChar: thorn
Encoding: 254 254 162
Width: 500
Flags: MW
HStem: -217 18<5 247 5 5> -10 32<239.5 299 239.5 319.5> 400 60<275.5 298> 624 15<9 46.5>
VStem: 75 84<-124 33 73 88 88 334 382 573 573 594> 384 86<174.5 265.5>
LayerCount: 4
Fore
SplineSet
5 -199 m 1
 64 -194 75 -184 75 -131 c 2
 75 573 l 2
 75 615 67 624 26 624 c 0
 19 624 15 624 9 623 c 1
 9 639 l 1
 78 658 106 666 154 683 c 1
 159 680 l 1
 159 382 l 1
 204 436 248 460 303 460 c 0
 400 460 470 371 470 247 c 0
 470 102 379 -10 260 -10 c 0
 218 -10 195 0 159 33 c 1
 159 -124 l 2
 160 -188 172 -198 247 -199 c 1
 247 -217 l 1
 5 -217 l 1
 5 -199 l 1
159 88 m 2
 159 58 216 22 263 22 c 0
 335 22 384 97 384 207 c 0
 384 324 335 400 261 400 c 0
 215 400 159 364 159 334 c 2
 159 88 l 2
EndSplineSet
EndChar

StartChar: threequarters
Encoding: 190 190 163
Width: 750
GlyphClass: 3
Flags: MW
HStem: 95 50<467 593 467 595 424 593 661 712> 272 38<131.5 151> 627 46<133 151>
VStem: 193 66<581.5 590> 213 71<365.5 406> 593 68<145 315 315 315>
LayerCount: 4
Fore
SplineSet
97 489 m 1xf4
 168 514 193 536 193 574 c 0
 193 606 170 627 132 627 c 0
 95 627 75 614 45 572 c 1
 27 585 l 1
 38 604 39 606 44 614 c 0
 69 652 110 673 156 673 c 0
 214 673 259 639 259 596 c 0
 259 567 245 550 194 513 c 1xf4
 226 500 231 497 243 487 c 0
 269 466 284 435 284 403 c 0
 284 328 205 272 97 272 c 0
 48 272 20 288 20 317 c 0
 20 335 33 349 50 349 c 0
 60 349 70 344 88 331 c 0
 110 315 122 310 141 310 c 0
 184 310 213 339 213 382 c 0
 213 430 171 472 123 472 c 0
 122 472 119 472 116 471 c 2xec
 98 469 l 1
 97 489 l 1xf4
712 95 m 1xec
 661 95 l 1
 661 0 l 1
 595 0 l 1
 595 95 l 1
 424 95 l 1
 424 141 l 1
 618 399 l 1
 661 399 l 1
 661 145 l 1
 712 145 l 1
 712 95 l 1xec
593 315 m 1
 467 145 l 1
 593 145 l 1
 593 315 l 1
195 -14 m 1
 146 -14 l 1
 599 676 l 1
 645 676 l 1
 195 -14 l 1
EndSplineSet
Ligature2: "'frac' Diagonal Fractions in Latin lookup 15 subtable" three slash four
EndChar

StartChar: uni00B2
Encoding: 178 178 164
Width: 300
Flags: MW
HStem: 270 65<107 228 107 259> 613 63<125.5 132>
VStem: 185 92<545.5 558>
LayerCount: 4
Fore
SplineSet
259 270 m 1
 6 270 l 1
 6 293 l 1
 104 400 l 2
 154 455 185 507 185 537 c 0
 185 579 152 613 112 613 c 0
 75 613 48 591 26 543 c 1
 1 557 l 1
 17 603 27 622 48 641 c 0
 71 664 105 676 146 676 c 0
 224 676 277 633 277 570 c 0
 277 521 254 481 193 420 c 2
 107 335 l 1
 228 335 l 2
 256 336 265 340 279 362 c 1
 296 355 l 1
 259 270 l 1
EndSplineSet
EndChar

StartChar: registered
Encoding: 174 174 165
Width: 760
Flags: MW
HStem: -14 42<302.5 458 302.5 475.5> 152 8<501 565> 152 15<219 381 219 219> 314 19<332 375 375 380 332 375> 501 19<332 373 332 332> 634 42<302.5 460.5>
VStem: 38 55<247.5 413 247.5 426.5> 268 64<215 314 333 456 456 471> 444 67<404 448> 667 55<246 411.5>
LayerCount: 4
Fore
SplineSet
219 520 m 1xbfc0
 396 520 l 2
 466 520 511 484 511 428 c 0
 511 380 484 345 432 324 c 1
 489 245 l 2
 517 206 541 180 565 160 c 1
 565 152 l 1
 501 152 l 2
 487 149 461 179 432 231 c 0xdfc0
 421 251 417 258 380 314 c 1
 332 314 l 1
 332 215 l 2
 332 185 334 178 339 175 c 0
 347 171 350 170 381 167 c 1
 381 152 l 1
 219 152 l 1
 219 167 l 1
 250 170 253 171 261 175 c 0
 266 178 268 185 268 215 c 2
 268 456 l 2
 268 486 266 494 261 497 c 0
 253 501 252 501 219 505 c 1
 219 520 l 1xbfc0
332 333 m 1
 375 333 l 2
 419 333 444 365 444 422 c 0
 444 474 420 501 373 501 c 2
 332 501 l 1
 332 333 l 1
381 676 m 0
 574 676 722 523 722 325 c 0
 722 138 570 -14 381 -14 c 0
 189 -14 38 138 38 330 c 0
 38 523 190 676 381 676 c 0
381 634 m 0
 224 634 93 496 93 330 c 0
 93 165 224 28 381 28 c 0
 535 28 667 166 667 326 c 0
 667 497 540 634 381 634 c 0
EndSplineSet
EndChar

StartChar: minus
Encoding: 8722 8722 166
Width: 564
Flags: MW
HStem: 280 53<37 528 37 528>
VStem: 37 491<280 333 280 333>
LayerCount: 4
Fore
SplineSet
528 280 m 1
 37 280 l 1
 37 333 l 1
 528 333 l 1
 528 280 l 1
EndSplineSet
EndChar

StartChar: eth
Encoding: 240 240 167
Width: 500
Flags: MW
HStem: -10 28<241 273.5> 432 28<201.5 265 181 279.5>
VStem: 29 90<241.5 290> 381 90<237 269>
LayerCount: 4
Fore
SplineSet
147 510 m 1
 114 540 l 1
 235 604 l 1
 188 637 154 651 102 660 c 1
 144 683 l 1
 210 677 245 666 296 636 c 1
 391 686 l 1
 424 656 l 1
 333 608 l 1
 384 559 402 535 424 490 c 0
 455 427 471 355 471 285 c 0
 471 189 437 95 382 43 c 0
 346 8 300 -10 247 -10 c 0
 122 -10 29 90 29 223 c 0
 29 357 121 460 241 460 c 0
 289 460 316 447 367 400 c 1
 352 474 329 515 270 575 c 1
 147 510 l 1
237 432 m 0
 166 432 119 370 119 277 c 0
 119 206 135 135 163 83 c 0
 185 42 221 18 261 18 c 0
 337 18 381 85 381 201 c 0
 381 337 322 432 237 432 c 0
EndSplineSet
EndChar

StartChar: multiply
Encoding: 215 215 168
Width: 564
Flags: MW
HStem: 71 470<86 86 86 479>
VStem: 47 470<109 109 109 502>
LayerCount: 4
Fore
SplineSet
47 502 m 1
 86 541 l 1
 282 344 l 1
 479 541 l 1
 517 502 l 1
 320 306 l 1
 517 109 l 1
 479 71 l 1
 282 268 l 1
 86 71 l 1
 47 109 l 1
 243 306 l 1
 47 502 l 1
EndSplineSet
EndChar

StartChar: uni00B3
Encoding: 179 179 169
Width: 300
Flags: MW
HStem: 262 48<133 153.5> 620 56<126 150.5>
VStem: 189 76<579 586> 210 81<359 393.5>
LayerCount: 4
Fore
SplineSet
93 489 m 1xe0
 163 512 189 534 189 571 c 0
 189 601 168 620 133 620 c 0
 97 620 77 607 46 563 c 1
 21 581 l 1
 56 649 95 676 157 676 c 0
 218 676 265 640 265 593 c 0xe0
 265 565 248 542 205 511 c 1
 262 488 291 450 291 398 c 0
 291 320 209 262 98 262 c 0
 45 262 15 280 15 312 c 0
 15 333 30 349 50 349 c 0
 61 349 72 344 91 330 c 0
 113 314 124 310 142 310 c 0
 183 310 210 337 210 378 c 0
 210 409 196 434 169 449 c 0
 154 458 129 465 117 463 c 2xd0
 94 460 l 1
 93 489 l 1xe0
EndSplineSet
EndChar

StartChar: copyright
Encoding: 169 169 170
Width: 760
Flags: MW
HStem: -14 42<302.5 459 302.5 476.5> 111 27<340.5 412.5> 398 128<528 537 528 528> 505 21<338.5 404.5 323 421> 634 42<304.5 461>
VStem: 38 55<247.5 414 247.5 427.5> 156 78<264.5 374.5> 667 55<248.5 413>
LayerCount: 4
Fore
SplineSet
386 676 m 0xdf
 571 676 722 521 722 330 c 0
 722 137 572 -14 381 -14 c 0
 189 -14 38 138 38 330 c 0
 38 525 190 676 386 676 c 0xdf
385 634 m 0
 224 634 93 498 93 330 c 0
 93 165 224 28 381 28 c 0
 537 28 667 166 667 331 c 0
 667 495 537 634 385 634 c 0
547 398 m 1xef
 528 398 l 1
 505 469 457 505 385 505 c 0
 292 505 234 436 234 324 c 0
 234 205 291 138 390 138 c 0
 452 138 496 160 537 213 c 1
 555 204 l 1
 505 138 452 111 373 111 c 0
 250 111 156 199 156 314 c 0
 156 435 256 526 390 526 c 0
 419 526 441 522 481 508 c 0
 485 506 492 505 496 505 c 0xdf
 506 505 512 510 518 526 c 1
 537 526 l 1
 547 398 l 1xef
EndSplineSet
EndChar

StartChar: Aacute
Encoding: 193 193 171
Width: 722
Flags: MW
HStem: 0 19<189 213 15 15> 216 41<216 447 216 461 199 447>
VStem: 15 130<0 66 19 66> 15 691<0 19 0 19>
LayerCount: 4
Fore
SplineSet
706 0 m 1xd0
 451 0 l 1
 451 19 l 1
 504 20 521 28 521 53 c 0
 521 67 514 93 502 120 c 2
 461 216 l 1
 199 216 l 1
 153 99 l 2
 148 86 145 72 145 60 c 0
 145 31 165 19 213 19 c 1
 213 0 l 1
 15 0 l 1
 15 19 l 1xe0
 63 21 75 37 139 183 c 2
 347 674 l 1
 367 674 l 1
 616 106 l 2
 651 32 661 22 706 19 c 1
 706 0 l 1xd0
447 257 m 1
 331 532 l 1
 216 257 l 1
 447 257 l 1
283 719 m 1
 430 867 l 2
 448 885 457 890 472 890 c 0
 494 890 507 878 507 858 c 0
 507 842 498 829 477 816 c 2
 323 719 l 1
 283 719 l 1
EndSplineSet
EndChar

StartChar: Acircumflex
Encoding: 194 194 172
Width: 722
Flags: MW
HStem: 0 19<189 213 15 15> 216 41<216 447 216 461 199 447> 719 167<201 387 201 387 325 512 325 478>
VStem: 15 130<0 66 19 66> 15 691<0 19 0 19>
LayerCount: 4
Fore
SplineSet
706 0 m 1xc8
 451 0 l 1
 451 19 l 1
 504 20 521 28 521 53 c 0
 521 67 514 93 502 120 c 2
 461 216 l 1
 199 216 l 1
 153 99 l 2
 148 86 145 72 145 60 c 0
 145 31 165 19 213 19 c 1
 213 0 l 1
 15 0 l 1
 15 19 l 1xf0
 63 21 75 37 139 183 c 2
 347 674 l 1
 367 674 l 1
 616 106 l 2
 651 32 661 22 706 19 c 1
 706 0 l 1xc8
447 257 m 1
 331 532 l 1
 216 257 l 1
 447 257 l 1
478 719 m 1
 356 822 l 1
 235 719 l 1
 201 719 l 1
 325 886 l 1
 387 886 l 1
 512 719 l 1
 478 719 l 1
EndSplineSet
EndChar

StartChar: Adieresis
Encoding: 196 196 173
Width: 722
Flags: MW
HStem: 0 19<189 213 15 15> 216 41<216 447 216 461 199 447> 735 100<241 267.5 241 267.5 440 466.5>
VStem: 15 130<0 66 19 66> 206 98<771.5 798.5 771 799> 405 98<771.5 798.5 771 799>
LayerCount: 4
Fore
SplineSet
706 0 m 1
 451 0 l 1
 451 19 l 1
 504 20 521 28 521 53 c 0
 521 67 514 93 502 120 c 2
 461 216 l 1
 199 216 l 1
 153 99 l 2
 148 86 145 72 145 60 c 0
 145 31 165 19 213 19 c 1
 213 0 l 1
 15 0 l 1
 15 19 l 1
 63 21 75 37 139 183 c 2
 347 674 l 1
 367 674 l 1
 616 106 l 2
 651 32 661 22 706 19 c 1
 706 0 l 1
447 257 m 1
 331 532 l 1
 216 257 l 1
 447 257 l 1
254 835 m 0
 281 835 304 812 304 785 c 0
 304 757 281 735 254 735 c 0
 227 735 206 757 206 786 c 0
 206 812 228 835 254 835 c 0
453 835 m 0
 480 835 503 812 503 785 c 0
 503 757 480 735 453 735 c 0
 426 735 405 757 405 786 c 0
 405 812 427 835 453 835 c 0
EndSplineSet
EndChar

StartChar: Agrave
Encoding: 192 192 174
Width: 722
Flags: MW
HStem: 0 19<189 213 15 15> 216 41<216 447 216 461 199 447>
VStem: 15 130<0 66 19 66> 15 691<0 19 0 19>
LayerCount: 4
Fore
SplineSet
706 0 m 1xd0
 451 0 l 1
 451 19 l 1
 504 20 521 28 521 53 c 0
 521 67 514 93 502 120 c 2
 461 216 l 1
 199 216 l 1
 153 99 l 2
 148 86 145 72 145 60 c 0
 145 31 165 19 213 19 c 1
 213 0 l 1
 15 0 l 1
 15 19 l 1xe0
 63 21 75 37 139 183 c 2
 347 674 l 1
 367 674 l 1
 616 106 l 2
 651 32 661 22 706 19 c 1
 706 0 l 1xd0
447 257 m 1
 331 532 l 1
 216 257 l 1
 447 257 l 1
397 719 m 1
 243 816 l 2
 224 828 214 843 214 859 c 0
 214 878 227 890 248 890 c 0
 263 890 272 885 290 867 c 2
 437 719 l 1
 397 719 l 1
EndSplineSet
EndChar

StartChar: Aring
Encoding: 197 197 175
Width: 722
Flags: MW
HStem: 0 19<189 213 15 15> 216 41<216 447 216 461 199 447> 716 34<332.5 369 332.5 378.5> 881 34<334 369.5>
VStem: 15 130<0 66 19 66> 252 34<797.5 834 797.5 843> 417 34<797 833>
LayerCount: 4
Fore
SplineSet
706 0 m 1
 451 0 l 1
 451 19 l 1
 504 20 521 28 521 53 c 0
 521 67 514 93 502 120 c 2
 461 216 l 1
 199 216 l 1
 153 99 l 2
 148 86 145 72 145 60 c 0
 145 31 165 19 213 19 c 1
 213 0 l 1
 15 0 l 1
 15 19 l 1
 63 21 75 37 139 183 c 2
 347 674 l 1
 367 674 l 1
 616 106 l 2
 651 32 661 22 706 19 c 1
 706 0 l 1
447 257 m 1
 331 532 l 1
 216 257 l 1
 447 257 l 1
351 915 m 0
 406 915 451 870 451 815 c 0
 451 760 406 716 351 716 c 0
 295 716 252 760 252 816 c 0
 252 870 297 915 351 915 c 0
352 881 m 0
 316 881 286 852 286 816 c 0
 286 779 315 750 350 750 c 0
 388 750 417 779 417 815 c 0
 417 851 387 881 352 881 c 0
EndSplineSet
EndChar

StartChar: Atilde
Encoding: 195 195 176
Width: 722
Flags: MW
HStem: 0 19<189 213 15 15> 216 41<216 447 216 461 199 447> 744 56<436.5 448.5> 790 55<272 282>
VStem: 15 130<0 66 19 66> 15 691<0 19 0 19>
LayerCount: 4
Fore
SplineSet
706 0 m 1xc4
 451 0 l 1
 451 19 l 1
 504 20 521 28 521 53 c 0
 521 67 514 93 502 120 c 2
 461 216 l 1
 199 216 l 1
 153 99 l 2
 148 86 145 72 145 60 c 0
 145 31 165 19 213 19 c 1
 213 0 l 1
 15 0 l 1
 15 19 l 1xe8
 63 21 75 37 139 183 c 2
 347 674 l 1
 367 674 l 1
 616 106 l 2
 651 32 661 22 706 19 c 1
 706 0 l 1xc4
447 257 m 1
 331 532 l 1
 216 257 l 1
 447 257 l 1
526 850 m 1
 505 774 476 744 421 744 c 0
 396 744 381 748 340 768 c 2xe4
 317 779 l 2
 302 786 288 790 276 790 c 0
 253 790 236 775 225 744 c 1
 196 744 l 1
 211 809 247 845 297 845 c 0
 319 845 344 839 367 827 c 2xd4
 391 815 l 2
 410 806 429 800 444 800 c 0
 467 800 480 812 497 850 c 1
 526 850 l 1
EndSplineSet
EndChar

StartChar: Ccedilla
Encoding: 199 199 177
Width: 667
Flags: MW
HStem: -215 35<287.5 315 287.5 341.5> -100 38<294 369> -14 44<360.5 416.5> 636 40<322 386.5 322 410.5>
VStem: 28 116<282.5 380.5> 353 75<-149.5 -123>
LayerCount: 4
Fore
SplineSet
316 -65 m 1
 326 -63 332 -62 342 -62 c 0
 396 -62 428 -87 428 -131 c 0
 428 -183 380 -215 303 -215 c 0
 272 -215 248 -210 219 -199 c 1
 233 -168 l 1
 260 -177 277 -180 298 -180 c 0
 332 -180 353 -163 353 -136 c 0
 353 -110 338 -100 300 -100 c 0
 288 -100 280 -101 272 -104 c 1
 265 -99 l 1
 302 -10 l 1
 135 14 28 144 28 325 c 0
 28 436 66 528 136 590 c 0
 199 645 281 676 363 676 c 0
 410 676 460 668 509 651 c 0
 524 646 539 643 548 643 c 0
 568 643 584 655 590 676 c 1
 611 676 l 1
 620 451 l 1
 597 451 l 1
 578 516 563 544 531 576 c 0
 491 615 439 636 382 636 c 0
 237 636 144 520 144 338 c 0
 144 227 175 137 230 88 c 0
 273 50 329 30 392 30 c 0
 475 30 541 60 615 131 c 1
 633 113 l 1
 573 33 473 -14 360 -14 c 0
 352 -14 345 -14 336 -13 c 1
 316 -65 l 1
EndSplineSet
EndChar

StartChar: Eacute
Encoding: 201 201 178
Width: 611
Flags: MW
HStem: 0 37<306 333 306 552> 327 41<201 355 201 355> 624 38<220 234 234 369>
VStem: 99 102<109 327 368 553 553 553> 465 23<231 463 231 463> 521 23.5
LayerCount: 4
Fore
SplineSet
552 0 m 1
 12 0 l 1
 12 19 l 1
 84 23 97 37 99 109 c 2
 99 553 l 2
 97 625 85 638 12 643 c 1
 12 662 l 1
 543 662 l 1
 546 519 l 1
 521 519 l 1
 505 608 485 622 369 624 c 2
 234 624 l 2
 206 624 202 620 201 590 c 2
 201 368 l 1
 355 368 l 2
 439 370 453 382 465 463 c 1
 488 463 l 1
 488 231 l 1
 465 231 l 1
 452 313 439 325 355 327 c 2
 201 327 l 1
 201 80 l 2
 201 41 202 40 306 37 c 2
 333 37 l 2
 476 38 521 63 569 169 c 1
 597 169 l 1
 552 0 l 1
233 719 m 1
 380 867 l 2
 398 885 407 890 422 890 c 0
 444 890 457 878 457 858 c 0
 457 842 448 829 427 816 c 2
 273 719 l 1
 233 719 l 1
EndSplineSet
EndChar

StartChar: Ecircumflex
Encoding: 202 202 179
Width: 611
Flags: MW
HStem: 0 37<306 333 306 552> 327 41<201 355 201 355> 624 38<220 234 234 369> 719 167<151 337 151 337 275 462 275 428>
VStem: 99 102<109 327 368 553 553 553> 465 23<231 463 231 463> 521 23.5
LayerCount: 4
Fore
SplineSet
552 0 m 1
 12 0 l 1
 12 19 l 1
 84 23 97 37 99 109 c 2
 99 553 l 2
 97 625 85 638 12 643 c 1
 12 662 l 1
 543 662 l 1
 546 519 l 1
 521 519 l 1
 505 608 485 622 369 624 c 2
 234 624 l 2
 206 624 202 620 201 590 c 2
 201 368 l 1
 355 368 l 2
 439 370 453 382 465 463 c 1
 488 463 l 1
 488 231 l 1
 465 231 l 1
 452 313 439 325 355 327 c 2
 201 327 l 1
 201 80 l 2
 201 41 202 40 306 37 c 2
 333 37 l 2
 476 38 521 63 569 169 c 1
 597 169 l 1
 552 0 l 1
428 719 m 1
 306 822 l 1
 185 719 l 1
 151 719 l 1
 275 886 l 1
 337 886 l 1
 462 719 l 1
 428 719 l 1
EndSplineSet
EndChar

StartChar: Edieresis
Encoding: 203 203 180
Width: 611
Flags: MW
HStem: 0 37<306 333 306 552> 327 41<201 355 201 355> 624 38<220 234 234 369> 735 100<193 219.5 193 219.5 392 418.5>
VStem: 99 102<109 327 368 553 553 553> 158 98<771.5 798.5 771 799> 357 98<771.5 798.5 771 799> 465 23<231 463 231 463> 521 23.5
LayerCount: 4
Fore
SplineSet
552 0 m 1xe980
 12 0 l 1
 12 19 l 1
 84 23 97 37 99 109 c 2
 99 553 l 2
 97 625 85 638 12 643 c 1
 12 662 l 1
 543 662 l 1
 546 519 l 1
 521 519 l 1
 505 608 485 622 369 624 c 2
 234 624 l 2
 206 624 202 620 201 590 c 2
 201 368 l 1
 355 368 l 2
 439 370 453 382 465 463 c 1
 488 463 l 1
 488 231 l 1
 465 231 l 1
 452 313 439 325 355 327 c 2
 201 327 l 1
 201 80 l 2
 201 41 202 40 306 37 c 2
 333 37 l 2
 476 38 521 63 569 169 c 1
 597 169 l 1
 552 0 l 1xe980
206 835 m 0xf780
 233 835 256 812 256 785 c 0
 256 757 233 735 206 735 c 0
 179 735 158 757 158 786 c 0
 158 812 180 835 206 835 c 0xf780
405 835 m 0
 432 835 455 812 455 785 c 0
 455 757 432 735 405 735 c 0
 378 735 357 757 357 786 c 0
 357 812 379 835 405 835 c 0
EndSplineSet
EndChar

StartChar: Egrave
Encoding: 200 200 181
Width: 611
Flags: MW
HStem: 0 37<306 333 306 552> 327 41<201 355 201 355> 624 38<220 234 234 369>
VStem: 99 102<109 327 368 553 553 553> 465 23<231 463 231 463> 521 23.5
LayerCount: 4
Fore
SplineSet
552 0 m 1
 12 0 l 1
 12 19 l 1
 84 23 97 37 99 109 c 2
 99 553 l 2
 97 625 85 638 12 643 c 1
 12 662 l 1
 543 662 l 1
 546 519 l 1
 521 519 l 1
 505 608 485 622 369 624 c 2
 234 624 l 2
 206 624 202 620 201 590 c 2
 201 368 l 1
 355 368 l 2
 439 370 453 382 465 463 c 1
 488 463 l 1
 488 231 l 1
 465 231 l 1
 452 313 439 325 355 327 c 2
 201 327 l 1
 201 80 l 2
 201 41 202 40 306 37 c 2
 333 37 l 2
 476 38 521 63 569 169 c 1
 597 169 l 1
 552 0 l 1
342 719 m 1
 188 816 l 2
 169 827 159 843 159 859 c 0
 159 878 172 890 193 890 c 0
 208 890 216 885 235 867 c 2
 382 719 l 1
 342 719 l 1
EndSplineSet
EndChar

StartChar: Iacute
Encoding: 205 205 182
Width: 333
Flags: MW
HStem: 0 19<18 315 18 18> 643 19<18 315 18 315>
VStem: 115 102<109 553 109 553>
LayerCount: 4
Fore
SplineSet
18 19 m 1
 102 22 114 33 115 109 c 2
 115 553 l 2
 114 628 103 638 18 643 c 1
 18 662 l 1
 315 662 l 1
 315 643 l 1
 232 640 219 628 217 553 c 2
 217 109 l 2
 219 35 233 21 315 19 c 1
 315 0 l 1
 18 0 l 1
 18 19 l 1
93 719 m 1
 240 867 l 2
 258 885 267 890 282 890 c 0
 304 890 317 878 317 858 c 0
 317 842 308 829 287 816 c 2
 133 719 l 1
 93 719 l 1
EndSplineSet
EndChar

StartChar: Icircumflex
Encoding: 206 206 183
Width: 333
Flags: MW
HStem: 0 19<18 315 18 18> 643 19<18 315 18 315> 719 167<11 197 11 197 135 322 135 288>
VStem: 115 102<109 553 109 553>
LayerCount: 4
Fore
SplineSet
18 19 m 1
 102 22 114 33 115 109 c 2
 115 553 l 2
 114 628 103 638 18 643 c 1
 18 662 l 1
 315 662 l 1
 315 643 l 1
 232 640 219 628 217 553 c 2
 217 109 l 2
 219 35 233 21 315 19 c 1
 315 0 l 1
 18 0 l 1
 18 19 l 1
288 719 m 1
 166 822 l 1
 45 719 l 1
 11 719 l 1
 135 886 l 1
 197 886 l 1
 322 719 l 1
 288 719 l 1
EndSplineSet
EndChar

StartChar: Idieresis
Encoding: 207 207 184
Width: 333
Flags: MW
HStem: 0 19<18 315 18 18> 643 19<18 315 18 315> 735 100<53 79.5 53 79.5 252 278.5>
VStem: 18 98<771.5 798.5 771 799> 115 102<109 553 109 553> 217 98<0 553 0 109 771.5 798.5>
LayerCount: 4
Fore
SplineSet
18 19 m 1xc8
 102 22 114 33 115 109 c 2
 115 553 l 2
 114 628 103 638 18 643 c 1
 18 662 l 1
 315 662 l 1
 315 643 l 1
 232 640 219 628 217 553 c 2
 217 109 l 2
 219 35 233 21 315 19 c 1
 315 0 l 1
 18 0 l 1
 18 19 l 1xc8
66 835 m 0xf4
 93 835 116 812 116 785 c 0
 116 757 93 735 66 735 c 0
 39 735 18 757 18 786 c 0
 18 812 40 835 66 835 c 0xf4
265 835 m 0
 292 835 315 812 315 785 c 0
 315 757 292 735 265 735 c 0
 238 735 217 757 217 786 c 0
 217 812 239 835 265 835 c 0
EndSplineSet
EndChar

StartChar: Igrave
Encoding: 204 204 185
Width: 333
Flags: MW
HStem: 0 19<18 315 18 18> 643 19<18 315 18 315>
VStem: 115 102<109 553 109 553>
LayerCount: 4
Fore
SplineSet
18 19 m 1
 102 22 114 33 115 109 c 2
 115 553 l 2
 114 628 103 638 18 643 c 1
 18 662 l 1
 315 662 l 1
 315 643 l 1
 232 640 219 628 217 553 c 2
 217 109 l 2
 219 35 233 21 315 19 c 1
 315 0 l 1
 18 0 l 1
 18 19 l 1
203 719 m 1
 49 816 l 2
 30 827 20 843 20 859 c 0
 20 878 33 890 54 890 c 0
 69 890 77 885 96 867 c 2
 243 719 l 1
 203 719 l 1
EndSplineSet
EndChar

StartChar: Ntilde
Encoding: 209 209 186
Width: 722
Flags: MW
HStem: 0 19<12 247 12 12> 643 19<12 33.5> 744 56<436.5 448.5> 790 55<272 282>
VStem: 109 44<147 539 147 588> 568 44<178 515 -11 515>
LayerCount: 4
Fore
SplineSet
707 643 m 1xec
 628 636 615 619 612 515 c 2
 612 -11 l 1
 595 -11 l 1
 153 539 l 1
 153 147 l 2
 155 44 170 23 247 19 c 1
 247 0 l 1
 12 0 l 1
 12 19 l 1
 94 24 107 41 109 147 c 2
 109 588 l 1
 69 635 55 643 12 643 c 1
 12 662 l 1
 183 662 l 1
 568 178 l 1
 568 515 l 2
 565 621 552 638 472 643 c 1
 472 662 l 1
 707 662 l 1
 707 643 l 1xec
526 850 m 1
 505 774 476 744 421 744 c 0
 396 744 381 748 340 768 c 2xec
 317 779 l 2
 302 786 288 790 276 790 c 0
 253 790 236 775 225 744 c 1
 196 744 l 1
 211 809 247 845 297 845 c 0
 319 845 344 839 367 827 c 2xdc
 391 815 l 2
 410 806 429 800 444 800 c 0
 467 800 480 812 497 850 c 1
 526 850 l 1
EndSplineSet
EndChar

StartChar: Oacute
Encoding: 211 211 187
Width: 722
Flags: MW
HStem: -14 36<336 385.5 336 453.5> 640 36<333.5 384>
VStem: 34 114<284 380 273.5 432> 574 114<298.5 376.5 226 387.5>
LayerCount: 4
Fore
SplineSet
361 676 m 0
 457 676 541 640 604 571 c 0
 659 512 688 426 688 327 c 0
 688 125 552 -14 355 -14 c 0
 267 -14 178 25 120 88 c 0
 66 145 34 237 34 331 c 0
 34 533 170 676 361 676 c 0
361 640 m 0
 306 640 257 618 218 575 c 0
 176 528 148 431 148 329 c 0
 148 218 181 117 232 71 c 0
 268 40 313 22 359 22 c 0
 412 22 457 40 492 75 c 0
 515 98 532 123 541 148 c 0
 561 200 574 269 574 328 c 0
 574 447 543 541 489 590 c 0
 453 622 407 640 361 640 c 0
288 719 m 1
 435 867 l 2
 453 885 462 890 477 890 c 0
 499 890 512 878 512 858 c 0
 512 842 503 829 482 816 c 2
 328 719 l 1
 288 719 l 1
EndSplineSet
EndChar

StartChar: Ocircumflex
Encoding: 212 212 188
Width: 722
Flags: MW
HStem: -14 36<336 385.5 336 453.5> 640 36<333.5 384> 719 167<206 392 206 392 330 517 330 483>
VStem: 34 114<284 380 273.5 432> 574 114<298.5 376.5 226 387.5>
LayerCount: 4
Fore
SplineSet
361 676 m 0
 457 676 541 640 604 571 c 0
 659 512 688 426 688 327 c 0
 688 125 552 -14 355 -14 c 0
 267 -14 178 25 120 88 c 0
 66 145 34 237 34 331 c 0
 34 533 170 676 361 676 c 0
361 640 m 0
 306 640 257 618 218 575 c 0
 176 528 148 431 148 329 c 0
 148 218 181 117 232 71 c 0
 268 40 313 22 359 22 c 0
 412 22 457 40 492 75 c 0
 515 98 532 123 541 148 c 0
 561 200 574 269 574 328 c 0
 574 447 543 541 489 590 c 0
 453 622 407 640 361 640 c 0
483 719 m 1
 361 822 l 1
 240 719 l 1
 206 719 l 1
 330 886 l 1
 392 886 l 1
 517 719 l 1
 483 719 l 1
EndSplineSet
EndChar

StartChar: Odieresis
Encoding: 214 214 189
Width: 722
Flags: MW
HStem: -14 36<336 385.5 336 453.5> 640 36<333.5 384> 735 100<248 274.5 248 274.5 447 473.5>
VStem: 34 114<284 380 273.5 432> 213 98<771.5 798.5 771 799> 412 98<771.5 798.5 771 799> 574 114<298.5 376.5 226 387.5>
LayerCount: 4
Fore
SplineSet
361 676 m 0
 457 676 541 640 604 571 c 0
 659 512 688 426 688 327 c 0
 688 125 552 -14 355 -14 c 0
 267 -14 178 25 120 88 c 0
 66 145 34 237 34 331 c 0
 34 533 170 676 361 676 c 0
361 640 m 0
 306 640 257 618 218 575 c 0
 176 528 148 431 148 329 c 0
 148 218 181 117 232 71 c 0
 268 40 313 22 359 22 c 0
 412 22 457 40 492 75 c 0
 515 98 532 123 541 148 c 0
 561 200 574 269 574 328 c 0
 574 447 543 541 489 590 c 0
 453 622 407 640 361 640 c 0
261 835 m 0
 288 835 311 812 311 785 c 0
 311 757 288 735 261 735 c 0
 234 735 213 757 213 786 c 0
 213 812 235 835 261 835 c 0
460 835 m 0
 487 835 510 812 510 785 c 0
 510 757 487 735 460 735 c 0
 433 735 412 757 412 786 c 0
 412 812 434 835 460 835 c 0
EndSplineSet
EndChar

StartChar: Ograve
Encoding: 210 210 190
Width: 722
Flags: MW
HStem: -14 36<336 385.5 336 453.5> 640 36<333.5 384>
VStem: 34 114<284 380 273.5 432> 574 114<298.5 376.5 226 387.5>
LayerCount: 4
Fore
SplineSet
361 676 m 0
 457 676 541 640 604 571 c 0
 659 512 688 426 688 327 c 0
 688 125 552 -14 355 -14 c 0
 267 -14 178 25 120 88 c 0
 66 145 34 237 34 331 c 0
 34 533 170 676 361 676 c 0
361 640 m 0
 306 640 257 618 218 575 c 0
 176 528 148 431 148 329 c 0
 148 218 181 117 232 71 c 0
 268 40 313 22 359 22 c 0
 412 22 457 40 492 75 c 0
 515 98 532 123 541 148 c 0
 561 200 574 269 574 328 c 0
 574 447 543 541 489 590 c 0
 453 622 407 640 361 640 c 0
397 719 m 1
 243 816 l 2
 224 828 214 843 214 859 c 0
 214 878 227 890 248 890 c 0
 263 890 272 885 290 867 c 2
 437 719 l 1
 397 719 l 1
EndSplineSet
EndChar

StartChar: Otilde
Encoding: 213 213 191
Width: 722
Flags: MW
HStem: -14 36<336 385.5 336 453.5> 640 36<333.5 384> 744 56<436.5 448.5> 790 55<272 282>
VStem: 34 114<284 380 273.5 432> 574 114<298.5 376.5 226 387.5>
LayerCount: 4
Fore
SplineSet
361 676 m 0xec
 457 676 541 640 604 571 c 0
 659 512 688 426 688 327 c 0
 688 125 552 -14 355 -14 c 0
 267 -14 178 25 120 88 c 0
 66 145 34 237 34 331 c 0
 34 533 170 676 361 676 c 0xec
361 640 m 0
 306 640 257 618 218 575 c 0
 176 528 148 431 148 329 c 0
 148 218 181 117 232 71 c 0
 268 40 313 22 359 22 c 0
 412 22 457 40 492 75 c 0
 515 98 532 123 541 148 c 0
 561 200 574 269 574 328 c 0
 574 447 543 541 489 590 c 0
 453 622 407 640 361 640 c 0
526 850 m 1
 505 774 476 744 421 744 c 0
 396 744 381 748 340 768 c 2xec
 317 779 l 2
 302 786 288 790 276 790 c 0
 253 790 236 775 225 744 c 1
 196 744 l 1
 211 809 247 845 297 845 c 0
 319 845 344 839 367 827 c 2xdc
 391 815 l 2
 410 806 429 800 444 800 c 0
 467 800 480 812 497 850 c 1
 526 850 l 1
EndSplineSet
EndChar

StartChar: Scaron
Encoding: 352 352 192
Width: 556
Flags: MW
HStem: -14 36<267.5 303.5 222 345> 635 41<230 259.5 222 283.5> 719 167<123 309 123 247>
VStem: 71 86<515.5 531> 72 22<-13 -13> 390 101<116.5 146.5> 426 21<676 676>
LayerCount: 4
Fore
SplineSet
469 463 m 1xd2
 444 463 l 1
 428 522 414 548 383 580 c 0
 348 616 306 635 261 635 c 0
 199 635 157 598 157 543 c 0xf2
 157 488 199 444 304 387 c 0
 436 315 491 250 491 168 c 0
 491 65 403 -14 287 -14 c 0
 248 -14 207 -6 169 9 c 0
 150 16 133 20 122 20 c 0
 107 20 95 6 94 -13 c 1
 72 -13 l 1
 42 199 l 1
 65 199 l 1
 115 77 177 22 267 22 c 0
 340 22 390 68 390 134 c 0
 390 159 385 180 376 193 c 0xcc
 351 231 299 271 227 310 c 0
 115 369 71 425 71 505 c 0
 71 557 89 599 124 630 c 0
 157 659 201 676 243 676 c 0
 276 676 313 668 350 654 c 0
 367 646 384 642 394 642 c 0
 411 642 422 653 426 676 c 1
 447 676 l 1
 469 463 l 1xd2
309 719 m 1
 247 719 l 1
 123 886 l 1
 157 886 l 1
 278 783 l 1
 400 886 l 1
 434 886 l 1
 309 719 l 1
EndSplineSet
EndChar

StartChar: Uacute
Encoding: 218 218 193
Width: 722
Flags: MW
HStem: -14 44<342.5 409.5> 643 19<14 297 14 297>
VStem: 104 102<241 553> 567 44<245 254 254 515>
LayerCount: 4
Fore
SplineSet
705 643 m 1
 624 634 613 620 611 515 c 2
 611 254 l 2
 611 177 602 131 578 89 c 0
 539 21 464 -14 355 -14 c 0
 185 -14 104 68 104 241 c 2
 104 553 l 2
 103 627 93 637 14 643 c 1
 14 662 l 1
 297 662 l 1
 297 643 l 1
 217 636 207 626 206 553 c 2
 206 233 l 2
 206 170 213 133 231 101 c 0
 258 54 307 30 378 30 c 0
 453 30 517 61 544 109 c 0
 560 139 567 177 567 245 c 2
 567 515 l 2
 565 618 550 638 473 643 c 1
 473 662 l 1
 705 662 l 1
 705 643 l 1
313 719 m 1
 460 867 l 2
 478 885 487 890 502 890 c 0
 524 890 537 878 537 858 c 0
 537 842 528 829 507 816 c 2
 353 719 l 1
 313 719 l 1
EndSplineSet
EndChar

StartChar: Ucircumflex
Encoding: 219 219 194
Width: 722
Flags: MW
HStem: -14 44<342.5 409.5> 643 19<14 297 14 297> 719 167<225 411 225 411 349 536 349 502>
VStem: 104 102<241 553> 567 44<245 254 254 515>
LayerCount: 4
Fore
SplineSet
705 643 m 1
 624 634 613 620 611 515 c 2
 611 254 l 2
 611 177 602 131 578 89 c 0
 539 21 464 -14 355 -14 c 0
 185 -14 104 68 104 241 c 2
 104 553 l 2
 103 627 93 637 14 643 c 1
 14 662 l 1
 297 662 l 1
 297 643 l 1
 217 636 207 626 206 553 c 2
 206 233 l 2
 206 170 213 133 231 101 c 0
 258 54 307 30 378 30 c 0
 453 30 517 61 544 109 c 0
 560 139 567 177 567 245 c 2
 567 515 l 2
 565 618 550 638 473 643 c 1
 473 662 l 1
 705 662 l 1
 705 643 l 1
502 719 m 1
 380 822 l 1
 259 719 l 1
 225 719 l 1
 349 886 l 1
 411 886 l 1
 536 719 l 1
 502 719 l 1
EndSplineSet
EndChar

StartChar: Udieresis
Encoding: 220 220 195
Width: 722
Flags: MW
HStem: -14 44<342.5 409.5> 643 19<14 297 14 297> 735 100<266 292.5 266 292.5 465 491.5>
VStem: 104 102<241 553> 231 98<771.5 798.5 771 799> 430 98<771.5 798.5 771 799> 567 44<245 254 254 515>
LayerCount: 4
Fore
SplineSet
705 643 m 1
 624 634 613 620 611 515 c 2
 611 254 l 2
 611 177 602 131 578 89 c 0
 539 21 464 -14 355 -14 c 0
 185 -14 104 68 104 241 c 2
 104 553 l 2
 103 627 93 637 14 643 c 1
 14 662 l 1
 297 662 l 1
 297 643 l 1
 217 636 207 626 206 553 c 2
 206 233 l 2
 206 170 213 133 231 101 c 0
 258 54 307 30 378 30 c 0
 453 30 517 61 544 109 c 0
 560 139 567 177 567 245 c 2
 567 515 l 2
 565 618 550 638 473 643 c 1
 473 662 l 1
 705 662 l 1
 705 643 l 1
279 835 m 0xfe
 306 835 329 812 329 785 c 0
 329 757 306 735 279 735 c 0
 252 735 231 757 231 786 c 0
 231 812 253 835 279 835 c 0xfe
478 835 m 0
 505 835 528 812 528 785 c 0
 528 757 505 735 478 735 c 0
 451 735 430 757 430 786 c 0
 430 812 452 835 478 835 c 0
EndSplineSet
EndChar

StartChar: Ugrave
Encoding: 217 217 196
Width: 722
Flags: MW
HStem: -14 44<342.5 409.5> 643 19<14 297 14 297>
VStem: 104 102<241 553> 567 44<245 254 254 515>
LayerCount: 4
Fore
SplineSet
705 643 m 1
 624 634 613 620 611 515 c 2
 611 254 l 2
 611 177 602 131 578 89 c 0
 539 21 464 -14 355 -14 c 0
 185 -14 104 68 104 241 c 2
 104 553 l 2
 103 627 93 637 14 643 c 1
 14 662 l 1
 297 662 l 1
 297 643 l 1
 217 636 207 626 206 553 c 2
 206 233 l 2
 206 170 213 133 231 101 c 0
 258 54 307 30 378 30 c 0
 453 30 517 61 544 109 c 0
 560 139 567 177 567 245 c 2
 567 515 l 2
 565 618 550 638 473 643 c 1
 473 662 l 1
 705 662 l 1
 705 643 l 1
415 719 m 1
 261 816 l 2
 242 827 232 843 232 859 c 0
 232 878 245 890 266 890 c 0
 281 890 289 885 308 867 c 2
 455 719 l 1
 415 719 l 1
EndSplineSet
EndChar

StartChar: Yacute
Encoding: 221 221 197
Width: 722
Flags: MW
HStem: 0 19<214 520 214 214> 643 19<22 302 22 302>
VStem: 315 102<120 294 294 294>
LayerCount: 4
Fore
SplineSet
703 643 m 1
 652 639 626 617 565 529 c 2
 417 303 l 1
 417 109 l 2
 418 32 431 21 520 19 c 1
 520 0 l 1
 214 0 l 1
 214 19 l 1
 305 23 314 32 315 120 c 2
 315 294 l 1
 184 486 l 2
 84 627 70 641 22 643 c 1
 22 662 l 1
 302 662 l 1
 302 643 l 1
 291 642 281 642 277 642 c 0
 245 640 231 632 231 613 c 0
 231 602 237 585 248 569 c 2
 396 347 l 1
 539 573 l 2
 549 588 553 600 553 610 c 0
 553 634 536 642 484 643 c 1
 484 662 l 1
 703 662 l 1
 703 643 l 1
346 719 m 1
 493 867 l 2
 511 885 520 890 535 890 c 0
 557 890 570 878 570 858 c 0
 570 842 561 829 540 816 c 2
 386 719 l 1
 346 719 l 1
EndSplineSet
EndChar

StartChar: Ydieresis
Encoding: 376 376 198
Width: 722
Flags: MW
HStem: 0 19<214 520 214 214> 643 19<22 302 22 302> 735 100<281 307.5 281 307.5 480 506.5>
VStem: 246 98<771.5 798.5 771 799> 315 102<120 294 294 294> 445 98<771.5 798.5 771 799>
LayerCount: 4
Fore
SplineSet
703 643 m 1xc8
 652 639 626 617 565 529 c 2
 417 303 l 1
 417 109 l 2
 418 32 431 21 520 19 c 1
 520 0 l 1
 214 0 l 1
 214 19 l 1
 305 23 314 32 315 120 c 2
 315 294 l 1
 184 486 l 2
 84 627 70 641 22 643 c 1
 22 662 l 1
 302 662 l 1
 302 643 l 1
 291 642 281 642 277 642 c 0
 245 640 231 632 231 613 c 0
 231 602 237 585 248 569 c 2
 396 347 l 1
 539 573 l 2
 549 588 553 600 553 610 c 0
 553 634 536 642 484 643 c 1
 484 662 l 1
 703 662 l 1
 703 643 l 1xc8
294 835 m 0xf4
 321 835 344 812 344 785 c 0
 344 757 321 735 294 735 c 0
 267 735 246 757 246 786 c 0
 246 812 268 835 294 835 c 0xf4
493 835 m 0
 520 835 543 812 543 785 c 0
 543 757 520 735 493 735 c 0
 466 735 445 757 445 786 c 0
 445 812 467 835 493 835 c 0
EndSplineSet
EndChar

StartChar: Zcaron
Encoding: 381 381 199
Width: 611
Flags: MW
HStem: 0 38<145 402 145 573> 624 38<225 446 225 225> 719 167<168 354 168 292>
VStem: 9 588<0 176 15 176>
LayerCount: 4
Fore
SplineSet
597 176 m 1
 573 0 l 1
 9 0 l 1
 9 15 l 1
 446 624 l 1
 225 624 l 2
 110 621 74 592 57 491 c 1
 31 491 l 1
 51 662 l 1
 577 662 l 1
 577 647 l 1
 145 38 l 1
 402 38 l 1
 510 42 544 69 574 176 c 1
 597 176 l 1
354 719 m 1
 292 719 l 1
 168 886 l 1
 202 886 l 1
 323 783 l 1
 445 886 l 1
 479 886 l 1
 354 719 l 1
EndSplineSet
EndChar

StartChar: aacute
Encoding: 225 225 200
Width: 444
Flags: MW
HStem: -10 58<111.5 198.5> 436 24<191 235.5>
VStem: 37 88<103.5 113.5> 56 83<336.5 400.5> 287 81<123 268 268 268 292 300>
LayerCount: 4
Fore
SplineSet
442 40 m 1xd8
 407 2 386 -10 352 -10 c 0
 311 -10 293 10 288 63 c 1
 227 11 186 -10 142 -10 c 0
 81 -10 37 34 37 97 c 0
 37 130 51 164 73 184 c 0xe8
 116 222 133 230 287 292 c 1
 287 353 l 2
 287 407 260 436 211 436 c 0
 171 436 139 414 139 387 c 0
 139 380 140 372 142 363 c 0
 143 356 144 351 144 347 c 0
 144 325 123 305 99 305 c 0
 75 305 56 325 56 348 c 0
 56 411 130 460 224 460 c 0
 283 460 326 441 348 405 c 0
 363 381 368 352 368 300 c 2
 368 105 l 2
 368 61 375 47 398 47 c 0
 413 47 425 52 442 66 c 1
 442 40 l 1xd8
287 268 m 1xe8
 170 227 126 189 125 129 c 2
 125 125 l 2
 125 82 153 48 188 48 c 0
 209 48 236 56 261 70 c 0
 282 82 287 93 287 123 c 2
 287 268 l 1xe8
123 507 m 1
 270 655 l 2
 288 673 297 678 312 678 c 0
 334 678 347 666 347 646 c 0
 347 630 338 617 317 604 c 2
 163 507 l 1
 123 507 l 1
EndSplineSet
EndChar

StartChar: acircumflex
Encoding: 226 226 201
Width: 444
Flags: MW
HStem: -10 58<111.5 198.5> 436 24<191 235.5> 507 167<67 253 67 253 191 378 191 344>
VStem: 37 88<103.5 113.5> 56 83<336.5 400.5> 287 81<123 268 268 268 292 300>
LayerCount: 4
Fore
SplineSet
442 40 m 1xcc
 407 2 386 -10 352 -10 c 0
 311 -10 293 10 288 63 c 1
 227 11 186 -10 142 -10 c 0
 81 -10 37 34 37 97 c 0
 37 130 51 164 73 184 c 0xd4
 116 222 133 230 287 292 c 1
 287 353 l 2
 287 407 260 436 211 436 c 0
 171 436 139 414 139 387 c 0
 139 380 140 372 142 363 c 0
 143 356 144 351 144 347 c 0
 144 325 123 305 99 305 c 0
 75 305 56 325 56 348 c 0
 56 411 130 460 224 460 c 0
 283 460 326 441 348 405 c 0
 363 381 368 352 368 300 c 2
 368 105 l 2
 368 61 375 47 398 47 c 0
 413 47 425 52 442 66 c 1
 442 40 l 1xcc
287 268 m 1xf4
 170 227 126 189 125 129 c 2
 125 125 l 2
 125 82 153 48 188 48 c 0
 209 48 236 56 261 70 c 0
 282 82 287 93 287 123 c 2
 287 268 l 1xf4
344 507 m 1
 222 610 l 1
 101 507 l 1
 67 507 l 1
 191 674 l 1
 253 674 l 1
 378 507 l 1
 344 507 l 1
EndSplineSet
EndChar

StartChar: adieresis
Encoding: 228 228 202
Width: 444
Flags: MW
HStem: -10 58<111.5 198.5> 436 24<191 235.5> 523 100<109 135.5 109 135.5 308 334.5>
VStem: 37 88<103.5 113.5> 56 83<336.5 400.5> 74 98<559.5 586.5 559 587> 273 98<559.5 586.5 559 587> 287 81<123 268 268 268 292 300>
LayerCount: 4
Fore
SplineSet
442 40 m 1xc9
 407 2 386 -10 352 -10 c 0
 311 -10 293 10 288 63 c 1
 227 11 186 -10 142 -10 c 0
 81 -10 37 34 37 97 c 0
 37 130 51 164 73 184 c 0xd1
 116 222 133 230 287 292 c 1
 287 353 l 2
 287 407 260 436 211 436 c 0
 171 436 139 414 139 387 c 0
 139 380 140 372 142 363 c 0
 143 356 144 351 144 347 c 0
 144 325 123 305 99 305 c 0
 75 305 56 325 56 348 c 0
 56 411 130 460 224 460 c 0
 283 460 326 441 348 405 c 0
 363 381 368 352 368 300 c 2
 368 105 l 2
 368 61 375 47 398 47 c 0
 413 47 425 52 442 66 c 1
 442 40 l 1xc9
287 268 m 1xd1
 170 227 126 189 125 129 c 2
 125 125 l 2
 125 82 153 48 188 48 c 0
 209 48 236 56 261 70 c 0
 282 82 287 93 287 123 c 2
 287 268 l 1xd1
122 623 m 0xe6
 149 623 172 600 172 573 c 0
 172 545 149 523 122 523 c 0
 95 523 74 545 74 574 c 0
 74 600 96 623 122 623 c 0xe6
321 623 m 0
 348 623 371 600 371 573 c 0
 371 545 348 523 321 523 c 0
 294 523 273 545 273 574 c 0
 273 600 295 623 321 623 c 0
EndSplineSet
EndChar

StartChar: agrave
Encoding: 224 224 203
Width: 444
Flags: MW
HStem: -10 58<111.5 198.5> 436 24<191 235.5>
VStem: 37 88<103.5 113.5> 56 83<336.5 400.5> 287 81<123 268 268 268 292 300>
LayerCount: 4
Fore
SplineSet
442 40 m 1xd8
 407 2 386 -10 352 -10 c 0
 311 -10 293 10 288 63 c 1
 227 11 186 -10 142 -10 c 0
 81 -10 37 34 37 97 c 0
 37 130 51 164 73 184 c 0xe8
 116 222 133 230 287 292 c 1
 287 353 l 2
 287 407 260 436 211 436 c 0
 171 436 139 414 139 387 c 0
 139 380 140 372 142 363 c 0
 143 356 144 351 144 347 c 0
 144 325 123 305 99 305 c 0
 75 305 56 325 56 348 c 0
 56 411 130 460 224 460 c 0
 283 460 326 441 348 405 c 0
 363 381 368 352 368 300 c 2
 368 105 l 2
 368 61 375 47 398 47 c 0
 413 47 425 52 442 66 c 1
 442 40 l 1xd8
287 268 m 1xe8
 170 227 126 189 125 129 c 2
 125 125 l 2
 125 82 153 48 188 48 c 0
 209 48 236 56 261 70 c 0
 282 82 287 93 287 123 c 2
 287 268 l 1xe8
289 507 m 1
 135 604 l 2
 116 616 106 631 106 647 c 0
 106 666 119 678 140 678 c 0
 155 678 164 673 182 655 c 2
 329 507 l 1
 289 507 l 1
EndSplineSet
EndChar

StartChar: aring
Encoding: 229 229 204
Width: 444
Flags: MW
HStem: -10 58<111.5 198.5> 436 24<191 235.5> 523 34<203.5 240 203.5 249.5> 688 34<205 240.5>
VStem: 37 88<103.5 113.5> 56 83<336.5 400.5> 123 34<604.5 641 604.5 650> 287 81<123 268 268 268 292 300> 288 34<604 640>
LayerCount: 4
Fore
SplineSet
442 40 m 1xf3
 407 2 386 -10 352 -10 c 0
 311 -10 293 10 288 63 c 1
 227 11 186 -10 142 -10 c 0
 81 -10 37 34 37 97 c 0
 37 130 51 164 73 184 c 0xf9
 116 222 133 230 287 292 c 1
 287 353 l 2
 287 407 260 436 211 436 c 0
 171 436 139 414 139 387 c 0
 139 380 140 372 142 363 c 0
 143 356 144 351 144 347 c 0
 144 325 123 305 99 305 c 0
 75 305 56 325 56 348 c 0xf5
 56 411 130 460 224 460 c 0
 283 460 326 441 348 405 c 0
 363 381 368 352 368 300 c 2
 368 105 l 2
 368 61 375 47 398 47 c 0
 413 47 425 52 442 66 c 1
 442 40 l 1xf3
287 268 m 1xf9
 170 227 126 189 125 129 c 2
 125 125 l 2
 125 82 153 48 188 48 c 0
 209 48 236 56 261 70 c 0
 282 82 287 93 287 123 c 2
 287 268 l 1xf9
222 722 m 0xf280
 277 722 322 677 322 622 c 0
 322 567 277 523 222 523 c 0
 166 523 123 567 123 623 c 0
 123 677 168 722 222 722 c 0xf280
223 688 m 0
 187 688 157 659 157 623 c 0
 157 586 186 557 221 557 c 0
 259 557 288 586 288 622 c 0
 288 658 258 688 223 688 c 0
EndSplineSet
EndChar

StartChar: atilde
Encoding: 227 227 205
Width: 444
Flags: MW
HStem: -10 58<111.5 198.5> 436 24<191 235.5> 532 56<297 309> 578 55<133 142.5>
VStem: 37 88<103.5 113.5> 56 83<336.5 400.5> 287 81<123 268 268 268 292 300>
LayerCount: 4
Fore
SplineSet
442 40 m 1xc6
 407 2 386 -10 352 -10 c 0
 311 -10 293 10 288 63 c 1
 227 11 186 -10 142 -10 c 0
 81 -10 37 34 37 97 c 0
 37 130 51 164 73 184 c 0xca
 116 222 133 230 287 292 c 1
 287 353 l 2
 287 407 260 436 211 436 c 0
 171 436 139 414 139 387 c 0
 139 380 140 372 142 363 c 0
 143 356 144 351 144 347 c 0
 144 325 123 305 99 305 c 0
 75 305 56 325 56 348 c 0
 56 411 130 460 224 460 c 0
 283 460 326 441 348 405 c 0
 363 381 368 352 368 300 c 2
 368 105 l 2
 368 61 375 47 398 47 c 0
 413 47 425 52 442 66 c 1
 442 40 l 1xc6
287 268 m 1xea
 170 227 126 189 125 129 c 2
 125 125 l 2
 125 82 153 48 188 48 c 0
 209 48 236 56 261 70 c 0
 282 82 287 93 287 123 c 2
 287 268 l 1xea
387 638 m 1
 366 562 337 532 281 532 c 0
 256 532 242 536 201 556 c 2xe6
 178 567 l 2
 163 574 148 578 137 578 c 0
 113 578 97 563 86 532 c 1
 57 532 l 1
 72 597 108 633 158 633 c 0
 180 633 204 627 228 615 c 2xd6
 252 603 l 2
 270 594 290 588 304 588 c 0
 327 588 340 600 358 638 c 1
 387 638 l 1
EndSplineSet
EndChar

StartChar: ccedilla
Encoding: 231 231 206
Width: 444
Flags: MW
HStem: -180 29<176.5 204 176.5 230.5> -84 31<183 258.5> 431 29<219.5 256>
VStem: 25 77<199.5 252> 242 75<-125.5 -103>
LayerCount: 4
Fore
SplineSet
205 -55 m 1
 215 -54 222 -53 232 -53 c 0
 285 -53 317 -74 317 -110 c 0
 317 -153 269 -180 192 -180 c 0
 161 -180 137 -176 108 -166 c 1
 122 -141 l 1
 149 -148 166 -151 187 -151 c 0
 221 -151 242 -137 242 -114 c 0
 242 -92 227 -84 189 -84 c 0
 177 -84 169 -85 161 -88 c 1
 154 -83 l 1
 192 -8 l 1
 91 5 25 93 25 212 c 0
 25 292 53 360 103 404 c 0
 144 440 195 460 244 460 c 0
 328 460 398 413 398 357 c 0
 398 334 377 315 351 315 c 0
 329 315 311 332 303 361 c 2
 297 383 l 2
 287 420 274 431 238 431 c 0
 157 431 102 361 102 257 c 0
 102 142 165 62 257 62 c 0
 314 62 350 86 398 156 c 1
 412 147 l 1
 362 44 303 -6 226 -9 c 1
 205 -55 l 1
EndSplineSet
EndChar

StartChar: eacute
Encoding: 233 233 207
Width: 444
Flags: MW
HStem: -10 69<230.5 266> 277 32<105 309 105 411 103 309> 424 36<215 241.5>
VStem: 31 72<145 277>
LayerCount: 4
Fore
SplineSet
430 157 m 1
 388 49 314 -10 218 -10 c 0
 103 -10 31 76 31 214 c 0
 31 296 58 367 105 408 c 0
 143 442 190 460 240 460 c 0
 292 460 338 439 368 403 c 0
 393 371 403 342 411 277 c 1
 103 277 l 1
 105 215 112 183 130 145 c 0
 159 88 202 59 259 59 c 0
 323 59 366 88 414 164 c 1
 430 157 l 1
309 309 m 1
 296 396 272 424 211 424 c 0
 150 424 116 388 105 309 c 1
 309 309 l 1
147 507 m 1
 294 655 l 2
 312 673 321 678 336 678 c 0
 358 678 371 666 371 646 c 0
 371 630 362 617 341 604 c 2
 187 507 l 1
 147 507 l 1
EndSplineSet
EndChar

StartChar: ecircumflex
Encoding: 234 234 208
Width: 444
Flags: MW
HStem: -10 69<233.5 269> 277 32<108 312 108 414 106 312> 424 36<218 244.5> 507 167<83 269 83 269 207 394 207 360>
VStem: 34 72<145 277>
LayerCount: 4
Fore
SplineSet
433 157 m 1
 391 49 317 -10 221 -10 c 0
 106 -10 34 76 34 214 c 0
 34 296 61 367 108 408 c 0
 146 442 193 460 243 460 c 0
 295 460 341 439 371 403 c 0
 396 371 406 342 414 277 c 1
 106 277 l 1
 108 215 115 183 133 145 c 0
 162 88 205 59 262 59 c 0
 326 59 369 88 417 164 c 1
 433 157 l 1
312 309 m 1
 299 396 275 424 214 424 c 0
 153 424 119 388 108 309 c 1
 312 309 l 1
360 507 m 1
 238 610 l 1
 117 507 l 1
 83 507 l 1
 207 674 l 1
 269 674 l 1
 394 507 l 1
 360 507 l 1
EndSplineSet
EndChar

StartChar: edieresis
Encoding: 235 235 209
Width: 444
Flags: MW
HStem: -10 69<233.5 269> 277 32<108 312 108 414 106 312> 424 36<218 244.5> 523 100<129 155.5 129 155.5 328 354.5>
VStem: 34 72<145 277> 94 98<559.5 586.5 559 587> 293 98<559.5 586.5 559 587>
LayerCount: 4
Fore
SplineSet
433 157 m 1xfa
 391 49 317 -10 221 -10 c 0
 106 -10 34 76 34 214 c 0
 34 296 61 367 108 408 c 0
 146 442 193 460 243 460 c 0
 295 460 341 439 371 403 c 0
 396 371 406 342 414 277 c 1
 106 277 l 1
 108 215 115 183 133 145 c 0
 162 88 205 59 262 59 c 0
 326 59 369 88 417 164 c 1
 433 157 l 1xfa
312 309 m 1
 299 396 275 424 214 424 c 0
 153 424 119 388 108 309 c 1
 312 309 l 1
142 623 m 0xf6
 169 623 192 600 192 573 c 0
 192 545 169 523 142 523 c 0
 115 523 94 545 94 574 c 0
 94 600 116 623 142 623 c 0xf6
341 623 m 0
 368 623 391 600 391 573 c 0
 391 545 368 523 341 523 c 0
 314 523 293 545 293 574 c 0
 293 600 315 623 341 623 c 0
EndSplineSet
EndChar

StartChar: egrave
Encoding: 232 232 210
Width: 444
Flags: MW
HStem: -10 69<231.5 267> 277 32<106 310 106 412 104 310> 424 36<216 242.5>
VStem: 32 72<145 277>
LayerCount: 4
Fore
SplineSet
431 157 m 1
 389 49 315 -10 219 -10 c 0
 104 -10 32 76 32 214 c 0
 32 296 59 367 106 408 c 0
 144 442 191 460 241 460 c 0
 293 460 339 439 369 403 c 0
 394 371 404 342 412 277 c 1
 104 277 l 1
 106 215 113 183 131 145 c 0
 160 88 203 59 260 59 c 0
 324 59 367 88 415 164 c 1
 431 157 l 1
310 309 m 1
 297 396 273 424 212 424 c 0
 151 424 117 388 106 309 c 1
 310 309 l 1
307 507 m 1
 153 604 l 2
 134 616 124 631 124 647 c 0
 124 666 137 678 158 678 c 0
 173 678 182 673 200 655 c 2
 347 507 l 1
 307 507 l 1
EndSplineSet
EndChar

StartChar: iacute
Encoding: 237 237 211
Width: 278
Flags: MW
HStem: 0 15<16 253 16 16> 394 11
VStem: 95 84<102 334 334 356>
LayerCount: 4
Fore
SplineSet
16 15 m 1
 84 18 93 28 95 102 c 2
 95 334 l 2
 95 378 86 394 62 394 c 0
 53 394 40 393 28 391 c 2
 20 390 l 1
 20 405 l 1
 175 460 l 1
 179 457 l 1
 179 102 l 2
 180 29 187 20 253 15 c 1
 253 0 l 1
 16 0 l 1
 16 15 l 1
46 507 m 1
 193 655 l 2
 211 673 220 678 235 678 c 0
 257 678 270 666 270 646 c 0
 270 630 261 617 240 604 c 2
 86 507 l 1
 46 507 l 1
EndSplineSet
EndChar

StartChar: icircumflex
Encoding: 238 238 212
Width: 278
Flags: MW
HStem: 0 15<16 253 16 16> 394 11 507 167<-28 158 -28 158 96 283 96 249>
VStem: 95 84<102 334 334 356>
LayerCount: 4
Fore
SplineSet
16 15 m 1
 84 18 93 28 95 102 c 2
 95 334 l 2
 95 378 86 394 62 394 c 0
 53 394 40 393 28 391 c 2
 20 390 l 1
 20 405 l 1
 175 460 l 1
 179 457 l 1
 179 102 l 2
 180 29 187 20 253 15 c 1
 253 0 l 1
 16 0 l 1
 16 15 l 1
249 507 m 1
 127 610 l 1
 6 507 l 1
 -28 507 l 1
 96 674 l 1
 158 674 l 1
 283 507 l 1
 249 507 l 1
EndSplineSet
EndChar

StartChar: idieresis
Encoding: 239 239 213
Width: 278
Flags: MW
HStem: 0 15<16 253 16 16> 394 11 523 100<46 72.5 46 72.5 205 231.5>
VStem: 11 98<559.5 586.5 559 587> 95 84<102 334 334 356> 170 98<559.5 586.5 559 587>
LayerCount: 4
Fore
SplineSet
59 623 m 0xb4
 86 623 109 600 109 573 c 0
 109 545 86 523 59 523 c 0
 32 523 11 545 11 574 c 0
 11 600 33 623 59 623 c 0xb4
218 623 m 0
 245 623 268 600 268 573 c 0
 268 545 245 523 218 523 c 0
 191 523 170 545 170 574 c 0
 170 600 192 623 218 623 c 0
16 15 m 1xc8
 84 18 93 28 95 102 c 2
 95 334 l 2
 95 378 86 394 62 394 c 0
 53 394 40 393 28 391 c 2
 20 390 l 1
 20 405 l 1
 175 460 l 1
 179 457 l 1
 179 102 l 2
 180 29 187 20 253 15 c 1
 253 0 l 1
 16 0 l 1
 16 15 l 1xc8
EndSplineSet
EndChar

StartChar: igrave
Encoding: 236 236 214
Width: 278
Flags: MW
HStem: 0 15<16 253 16 16> 394 11
VStem: 95 84<102 334 334 356>
LayerCount: 4
Fore
SplineSet
16 15 m 1
 84 18 93 28 95 102 c 2
 95 334 l 2
 95 378 86 394 62 394 c 0
 53 394 40 393 28 391 c 2
 20 390 l 1
 20 405 l 1
 175 460 l 1
 179 457 l 1
 179 102 l 2
 180 29 187 20 253 15 c 1
 253 0 l 1
 16 0 l 1
 16 15 l 1
175 507 m 1
 21 604 l 2
 2 616 -8 631 -8 647 c 0
 -8 666 5 678 26 678 c 0
 41 678 50 673 68 655 c 2
 215 507 l 1
 175 507 l 1
EndSplineSet
EndChar

StartChar: ntilde
Encoding: 241 241 215
Width: 500
Flags: MW
HStem: 0 15<18 230 18 18> 402 13 405 55<283 291.5> 532 56<325 337> 578 55<161 170.5>
VStem: 80 84<90 338 338 348> 340 84<99 308 308 310 81 341>
LayerCount: 4
Fore
SplineSet
18 15 m 1xb6
 68 18 79 31 80 90 c 2
 80 338 l 2
 80 387 71 402 43 402 c 0
 32 402 22 401 16 398 c 1
 16 415 l 1
 71 431 105 442 154 460 c 1
 161 458 l 1xd6
 161 379 l 1
 229 443 260 460 306 460 c 0
 380 460 424 404 424 310 c 2
 424 81 l 2
 425 32 436 20 485 15 c 1
 485 0 l 1
 277 0 l 1
 277 15 l 1
 326 18 338 34 340 99 c 2
 340 308 l 2
 340 374 316 405 267 405 c 0
 234 405 211 393 164 348 c 1
 164 67 l 2
 164 31 180 18 230 15 c 1
 230 0 l 1
 18 0 l 1
 18 15 l 1xb6
415 638 m 1
 394 562 365 532 309 532 c 0
 284 532 270 536 229 556 c 2xb6
 206 567 l 2
 191 574 176 578 165 578 c 0
 141 578 125 563 114 532 c 1
 85 532 l 1
 100 597 136 633 186 633 c 0
 208 633 232 627 256 615 c 2xae
 280 603 l 2
 298 594 318 588 332 588 c 0
 355 588 368 600 386 638 c 1
 415 638 l 1
EndSplineSet
EndChar

StartChar: oacute
Encoding: 243 243 216
Width: 500
Flags: MW
HStem: -10 28<240.5 297.5 240.5 311> 432 28<201 279>
VStem: 29 90<239.5 295> 380 90<164.5 267.5>
LayerCount: 4
Fore
SplineSet
250 460 m 0
 378 460 470 366 470 234 c 0
 470 95 374 -10 248 -10 c 0
 122 -10 29 90 29 226 c 0
 29 364 119 460 250 460 c 0
237 432 m 0
 165 432 119 370 119 275 c 0
 119 204 135 134 163 82 c 0
 184 42 221 18 260 18 c 0
 335 18 380 85 380 199 c 0
 380 336 321 432 237 432 c 0
154 507 m 1
 301 655 l 2
 319 673 328 678 344 678 c 0
 365 678 378 666 378 646 c 0
 378 630 369 617 348 604 c 2
 194 507 l 1
 154 507 l 1
EndSplineSet
EndChar

StartChar: ocircumflex
Encoding: 244 244 217
Width: 500
Flags: MW
HStem: -10 28<240.5 297.5 240.5 311> 432 28<201 279> 507 167<95 281 95 281 219 406 219 372>
VStem: 29 90<239.5 295> 380 90<164.5 267.5>
LayerCount: 4
Fore
SplineSet
250 460 m 0
 378 460 470 366 470 234 c 0
 470 95 374 -10 248 -10 c 0
 122 -10 29 90 29 226 c 0
 29 364 119 460 250 460 c 0
237 432 m 0
 165 432 119 370 119 275 c 0
 119 204 135 134 163 82 c 0
 184 42 221 18 260 18 c 0
 335 18 380 85 380 199 c 0
 380 336 321 432 237 432 c 0
372 507 m 1
 250 610 l 1
 129 507 l 1
 95 507 l 1
 219 674 l 1
 281 674 l 1
 406 507 l 1
 372 507 l 1
EndSplineSet
EndChar

StartChar: odieresis
Encoding: 246 246 218
Width: 500
Flags: MW
HStem: -10 28<240.5 297.5 240.5 311> 432 28<201 279> 523 100<137 163.5 137 163.5 336 362.5>
VStem: 29 90<239.5 295> 102 98<559.5 586.5 559 587> 301 98<559.5 586.5 559 587> 380 90<164.5 267.5>
LayerCount: 4
Fore
SplineSet
250 460 m 0xd2
 378 460 470 366 470 234 c 0
 470 95 374 -10 248 -10 c 0
 122 -10 29 90 29 226 c 0
 29 364 119 460 250 460 c 0xd2
237 432 m 0
 165 432 119 370 119 275 c 0
 119 204 135 134 163 82 c 0
 184 42 221 18 260 18 c 0
 335 18 380 85 380 199 c 0
 380 336 321 432 237 432 c 0
150 623 m 0xec
 177 623 200 600 200 573 c 0
 200 545 177 523 150 523 c 0
 123 523 102 545 102 574 c 0
 102 600 124 623 150 623 c 0xec
349 623 m 0
 376 623 399 600 399 573 c 0
 399 545 376 523 349 523 c 0
 322 523 301 545 301 574 c 0
 301 600 323 623 349 623 c 0
EndSplineSet
EndChar

StartChar: ograve
Encoding: 242 242 219
Width: 500
Flags: MW
HStem: -10 28<240.5 297.5 240.5 311> 432 28<201 279>
VStem: 29 90<239.5 295> 380 90<164.5 267.5>
LayerCount: 4
Fore
SplineSet
250 460 m 0
 378 460 470 366 470 234 c 0
 470 95 374 -10 248 -10 c 0
 122 -10 29 90 29 226 c 0
 29 364 119 460 250 460 c 0
237 432 m 0
 165 432 119 370 119 275 c 0
 119 204 135 134 163 82 c 0
 184 42 221 18 260 18 c 0
 335 18 380 85 380 199 c 0
 380 336 321 432 237 432 c 0
311 507 m 1
 157 604 l 2
 138 616 128 631 128 647 c 0
 128 666 141 678 162 678 c 0
 178 678 186 673 204 655 c 2
 351 507 l 1
 311 507 l 1
EndSplineSet
EndChar

StartChar: otilde
Encoding: 245 245 220
Width: 500
Flags: MW
HStem: -10 28<240.5 297.5 240.5 311> 432 28<201 279> 532 56<325 337> 578 55<161 170.5>
VStem: 29 90<239.5 295> 380 90<164.5 267.5>
LayerCount: 4
Fore
SplineSet
250 460 m 0xec
 378 460 470 366 470 234 c 0
 470 95 374 -10 248 -10 c 0
 122 -10 29 90 29 226 c 0
 29 364 119 460 250 460 c 0xec
237 432 m 0
 165 432 119 370 119 275 c 0
 119 204 135 134 163 82 c 0
 184 42 221 18 260 18 c 0
 335 18 380 85 380 199 c 0
 380 336 321 432 237 432 c 0
415 638 m 1
 394 562 365 532 309 532 c 0
 284 532 270 536 229 556 c 2xec
 206 567 l 2
 191 574 176 578 165 578 c 0
 141 578 125 563 114 532 c 1
 85 532 l 1
 100 597 136 633 186 633 c 0
 208 633 232 627 256 615 c 2xdc
 280 603 l 2
 298 594 318 588 332 588 c 0
 355 588 368 600 386 638 c 1
 415 638 l 1
EndSplineSet
EndChar

StartChar: scaron
Encoding: 353 353 221
Width: 389
Flags: MW
HStem: -10 22<197 220.5 160.5 246> 437 23<167 199 147.5 218.5> 507 167<39 225 39 163>
VStem: 51 62<355.5 372> 52 13<-4 152> 278 70<83 99.5> 300 13
LayerCount: 4
Fore
SplineSet
300 314 m 1xca
 277 404 247 437 190 437 c 0
 144 437 113 410 113 369 c 0
 113 342 128 317 156 301 c 2xd2
 264 237 l 2
 325 201 348 168 348 118 c 0
 348 48 285 -10 207 -10 c 0
 187 -10 161 -6 134 0 c 0
 111 6 99 8 88 8 c 0
 76 8 72 6 65 -4 c 1
 52 -4 l 1
 52 152 l 1
 68 152 l 1xcc
 91 50 126 12 195 12 c 0
 246 12 278 40 278 84 c 0
 278 115 261 139 226 159 c 2
 168 192 l 2
 83 240 51 280 51 336 c 0xd4
 51 408 108 460 187 460 c 0
 211 460 234 455 257 447 c 0
 268 442 278 440 284 440 c 0
 289 440 294 443 300 451 c 1
 311 451 l 1
 315 314 l 1
 300 314 l 1xca
225 507 m 1xea
 163 507 l 1
 39 674 l 1
 73 674 l 1
 194 571 l 1
 316 674 l 1
 350 674 l 1
 225 507 l 1xea
EndSplineSet
EndChar

StartChar: uacute
Encoding: 250 250 222
Width: 500
Flags: MW
HStem: -10 58<206.5 210.5> 36 14<474 479> 433 17<259 259>
VStem: 71 84<120 124 124 372 372 372> 333 84<135 370 370 395>
LayerCount: 4
Fore
SplineSet
479 36 m 1x78
 428 22 392 11 342 -9 c 1
 338 -7 l 1
 338 76 l 1x78
 295 33 l 2
 268 6 229 -10 192 -10 c 0
 119 -10 71 41 71 120 c 2
 71 372 l 2
 70 420 56 434 9 436 c 1
 9 450 l 1
 155 450 l 1
 155 124 l 2
 155 82 187 48 226 48 c 0
 256 48 287 60 314 82 c 0
 328 93 333 107 333 135 c 2xb8
 333 370 l 2
 333 420 321 430 259 433 c 1
 259 450 l 1
 417 450 l 1
 417 107 l 2
 418 60 425 52 474 50 c 2
 479 50 l 1
 479 36 l 1x78
186 507 m 1
 333 655 l 2
 351 673 360 678 375 678 c 0
 397 678 410 666 410 646 c 0
 410 630 401 617 380 604 c 2
 226 507 l 1
 186 507 l 1
EndSplineSet
EndChar

StartChar: ucircumflex
Encoding: 251 251 223
Width: 500
Flags: MW
HStem: -10 58<206.5 210.5> 36 14<474 479> 433 17<259 259> 507 167<73 259 73 259 197 384 197 350>
VStem: 71 84<120 124 124 372 372 372> 333 84<135 370 370 395>
LayerCount: 4
Fore
SplineSet
479 36 m 1x6c
 428 22 392 11 342 -9 c 1
 338 -7 l 1
 338 76 l 1x6c
 295 33 l 2
 268 6 229 -10 192 -10 c 0
 119 -10 71 41 71 120 c 2
 71 372 l 2
 70 420 56 434 9 436 c 1
 9 450 l 1
 155 450 l 1
 155 124 l 2
 155 82 187 48 226 48 c 0
 256 48 287 60 314 82 c 0
 328 93 333 107 333 135 c 2xac
 333 370 l 2
 333 420 321 430 259 433 c 1
 259 450 l 1
 417 450 l 1
 417 107 l 2
 418 60 425 52 474 50 c 2
 479 50 l 1
 479 36 l 1x6c
350 507 m 1
 228 610 l 1
 107 507 l 1
 73 507 l 1
 197 674 l 1
 259 674 l 1x7c
 384 507 l 1
 350 507 l 1
EndSplineSet
EndChar

StartChar: udieresis
Encoding: 252 252 224
Width: 500
Flags: MW
HStem: -10 58<206.5 210.5> 36 14<474 479> 433 17<259 259> 523 100<117 143.5 117 143.5 316 342.5>
VStem: 71 84<120 124 124 372 372 372> 82 98<559.5 586.5 559 587> 281 98<559.5 586.5 559 587> 333 84<135 370 370 395>
LayerCount: 4
Fore
SplineSet
479 36 m 1x79
 428 22 392 11 342 -9 c 1
 338 -7 l 1
 338 76 l 1x79
 295 33 l 2
 268 6 229 -10 192 -10 c 0
 119 -10 71 41 71 120 c 2
 71 372 l 2
 70 420 56 434 9 436 c 1
 9 450 l 1
 155 450 l 1
 155 124 l 2
 155 82 187 48 226 48 c 0
 256 48 287 60 314 82 c 0
 328 93 333 107 333 135 c 2xb9
 333 370 l 2
 333 420 321 430 259 433 c 1
 259 450 l 1
 417 450 l 1
 417 107 l 2
 418 60 425 52 474 50 c 2
 479 50 l 1
 479 36 l 1x79
130 623 m 0x76
 157 623 180 600 180 573 c 0
 180 545 157 523 130 523 c 0
 103 523 82 545 82 574 c 0
 82 600 104 623 130 623 c 0x76
329 623 m 0
 356 623 379 600 379 573 c 0
 379 545 356 523 329 523 c 0
 302 523 281 545 281 574 c 0
 281 600 303 623 329 623 c 0
EndSplineSet
EndChar

StartChar: ugrave
Encoding: 249 249 225
Width: 500
Flags: MW
HStem: -10 58<206.5 210.5> 36 14<474 479> 433 17<259 259>
VStem: 71 84<120 124 124 372 372 372> 333 84<135 370 370 395>
LayerCount: 4
Fore
SplineSet
479 36 m 1x78
 428 22 392 11 342 -9 c 1
 338 -7 l 1
 338 76 l 1x78
 295 33 l 2
 268 6 229 -10 192 -10 c 0
 119 -10 71 41 71 120 c 2
 71 372 l 2
 70 420 56 434 9 436 c 1
 9 450 l 1
 155 450 l 1
 155 124 l 2
 155 82 187 48 226 48 c 0
 256 48 287 60 314 82 c 0
 328 93 333 107 333 135 c 2xb8
 333 370 l 2
 333 420 321 430 259 433 c 1
 259 450 l 1
 417 450 l 1
 417 107 l 2
 418 60 425 52 474 50 c 2
 479 50 l 1
 479 36 l 1x78
287 507 m 1
 133 604 l 2
 114 616 104 631 104 647 c 0
 104 666 117 678 138 678 c 0
 153 678 162 673 180 655 c 2
 327 507 l 1
 287 507 l 1
EndSplineSet
EndChar

StartChar: yacute
Encoding: 253 253 226
Width: 500
Flags: MW
HStem: -218 102<61 138> 435 15<14 220 340 356>
VStem: 340 135<435 450 435 450>
LayerCount: 4
Fore
SplineSet
475 435 m 1
 451 432 440 422 427 390 c 2
 273 -18 l 2
 218 -163 172 -218 104 -218 c 0
 61 -218 30 -193 30 -160 c 0
 30 -135 49 -116 73 -116 c 0
 89 -116 107 -120 125 -127 c 0
 136 -132 145 -134 151 -134 c 0
 165 -134 186 -115 201 -90 c 0
 218 -59 241 2 241 18 c 0
 241 33 225 70 197 120 c 0
 192 130 191 131 179 158 c 2
 65 404 l 2
 57 421 40 432 14 436 c 1
 14 450 l 1
 220 450 l 1
 220 435 l 1
 177 433 162 426 162 408 c 0
 162 398 166 384 172 370 c 2
 287 117 l 1
 384 393 l 2
 387 400 388 406 388 410 c 0
 388 426 372 435 340 435 c 1
 340 450 l 1
 475 450 l 1
 475 435 l 1
203 507 m 1
 350 655 l 2
 368 673 377 678 392 678 c 0
 414 678 427 666 427 646 c 0
 427 630 418 617 397 604 c 2
 243 507 l 1
 203 507 l 1
EndSplineSet
EndChar

StartChar: ydieresis
Encoding: 255 255 227
Width: 500
Flags: MW
HStem: -218 102<61 138> 435 15<14 220 340 356> 523 100<152 178.5 152 178.5 351 377.5>
VStem: 117 98<559.5 586.5 559 587> 316 98<559.5 586.5 559 587> 340 135<435 450 435 450>
LayerCount: 4
Fore
SplineSet
475 435 m 1xf4
 451 432 440 422 427 390 c 2
 273 -18 l 2
 218 -163 172 -218 104 -218 c 0
 61 -218 30 -193 30 -160 c 0
 30 -135 49 -116 73 -116 c 0
 89 -116 107 -120 125 -127 c 0
 136 -132 145 -134 151 -134 c 0
 165 -134 186 -115 201 -90 c 0
 218 -59 241 2 241 18 c 0
 241 33 225 70 197 120 c 0
 192 130 191 131 179 158 c 2
 65 404 l 2
 57 421 40 432 14 436 c 1
 14 450 l 1
 220 450 l 1
 220 435 l 1
 177 433 162 426 162 408 c 0
 162 398 166 384 172 370 c 2
 287 117 l 1
 384 393 l 2
 387 400 388 406 388 410 c 0
 388 426 372 435 340 435 c 1
 340 450 l 1
 475 450 l 1
 475 435 l 1xf4
165 623 m 0
 192 623 215 600 215 573 c 0
 215 545 192 523 165 523 c 0
 138 523 117 545 117 574 c 0
 117 600 139 623 165 623 c 0
364 623 m 0x78
 391 623 414 600 414 573 c 0
 414 545 391 523 364 523 c 0
 337 523 316 545 316 574 c 0
 316 600 338 623 364 623 c 0x78
EndSplineSet
EndChar

StartChar: zcaron
Encoding: 382 382 228
Width: 444
Flags: MW
HStem: 0 30<134 272 134 404> 420 30<155 293 155 155> 507 167<72 258 72 196>
VStem: 54.5 16.5
LayerCount: 4
Fore
SplineSet
404 0 m 1
 27 0 l 1
 27 15 l 1
 293 420 l 1
 155 420 l 2
 93 418 79 403 71 332 c 1
 53 332 l 1
 56 450 l 1
 403 450 l 1
 403 435 l 1
 134 30 l 1
 272 30 l 2
 368 33 382 45 400 139 c 1
 418 135 l 1
 404 0 l 1
258 507 m 1
 196 507 l 1
 72 674 l 1
 106 674 l 1
 227 571 l 1
 349 674 l 1
 383 674 l 1
 258 507 l 1
EndSplineSet
EndChar

StartChar: uni207F
Encoding: 8319 8319 229
Width: 315
Flags: MW
HStem: 267 25<13 148 13 13> 574 57<143.5 208.5>
VStem: 36 84<347 521 521 542> 201 84<347 497>
LayerCount: 4
Fore
SplineSet
120 594 m 1
 145 619 167 631 190 631 c 0
 227 631 263 608 276 576 c 0
 283 560 285 540 285 497 c 2
 285 347 l 2
 285 305 290 294 311 292 c 1
 311 267 l 1
 172 267 l 1
 172 292 l 1
 196 295 201 304 201 347 c 2
 201 505 l 2
 201 553 185 574 150 574 c 0
 137 574 130 570 120 556 c 1
 120 347 l 2
 120 305 125 294 148 292 c 1
 148 267 l 1
 13 267 l 1
 13 292 l 1
 32 294 36 305 36 347 c 2
 36 521 l 2
 36 563 33 567 3 568 c 1
 3 594 l 1
 17 597 22 599 38 604 c 0
 45 607 57 611 75 618 c 0
 85 621 95 625 106 629 c 2
 120 634 l 1
 120 594 l 1
EndSplineSet
EndChar

StartChar: ff
Encoding: 64256 64256 230
Width: 605
GlyphClass: 3
Flags: MW
HStem: 0 15<40 50 285 295 40 50 302 312 548 558> 414 34<40 124 40 124 211 386 473 594> 649 30<255 276.5 518 539.5>
VStem: 124 87<95 414 95 414 448 470 470 534> 386 87<95 414 95 414 448 470 470 534>
LayerCount: 4
Fore
SplineSet
386 470 m 2
 386 598 454 679 561 679 c 0
 622 679 668 651 668 614 c 0
 668 592 650 575 626 575 c 0
 605 575 592 585 578 611 c 0
 564 638 550 649 529 649 c 0
 507 649 487 636 480 615 c 0
 475 603 473 575 473 535 c 2
 473 448 l 1
 594 448 l 1
 594 414 l 1
 473 414 l 1
 473 95 l 2
 472 38 490 18 548 15 c 2
 558 15 l 1
 558 0 l 1
 302 0 l 1
 302 15 l 1
 312 15 l 2
 369 18 387 38 386 95 c 2
 386 414 l 1
 211 414 l 1
 211 95 l 2
 209 39 228 18 285 15 c 2
 295 15 l 1
 295 0 l 1
 40 0 l 1
 40 15 l 1
 50 15 l 2
 106 18 125 39 124 95 c 2
 124 414 l 1
 40 414 l 1
 40 448 l 1
 124 448 l 1
 124 470 l 2
 124 598 192 679 298 679 c 0
 358 679 404 651 404 614 c 0
 404 592 386 575 363 575 c 0
 341 575 329 584 315 611 c 0
 300 639 287 649 266 649 c 0
 244 649 225 636 218 615 c 0
 213 603 211 575 211 535 c 2
 211 448 l 1
 386 448 l 1
 386 470 l 2
EndSplineSet
Ligature2: "'liga' Standard Ligatures in Latin lookup 13 subtable" f f
Ligature2: "'liga' Standard Ligatures in Latin lookup 12 subtable" f f
Ligature2: "'liga' Standard Ligatures in Latin lookup 10 subtable" f f
Ligature2: "'liga' Standard Ligatures in Latin lookup 8 subtable" f f
Ligature2: "'liga' Standard Ligatures in Latin lookup 6 subtable" f f
Ligature2: "'liga' Standard Ligatures in Latin lookup 5 subtable" f f
Ligature2: "'liga' Standard Ligatures in Latin lookup 4 subtable" f f
EndChar

StartChar: ffi
Encoding: 64259 64259 231
Width: 844
GlyphClass: 3
Flags: MW
HStem: 0 15<40 65 271 294 40 65 325 332 537 561 591 599 804 810> 414 34<40 125 40 125 211 392 478 583> 651 30<571 590.5> 654 27<249.5 262.5>
VStem: 125 86<95 414> 392 86<95 414> 658 86<95 414 414 414>
LayerCount: 4
Fore
SplineSet
392 448 m 1xee
 394 534 402 566 434 606 c 0
 473 655 534 681 608 681 c 0
 688 681 741 651 741 605 c 0
 741 582 723 564 698 564 c 0
 677 564 661 576 648 601 c 0
 633 631 632 632 623 639 c 0
 613 647 599 651 582 651 c 0
 531 651 491 614 483 559 c 0xee
 480 539 478 498 478 448 c 1
 583 448 l 2
 656 449 683 451 744 460 c 1
 744 95 l 2
 744 35 756 18 804 15 c 2
 810 15 l 1
 810 0 l 1
 591 0 l 1
 591 15 l 1
 599 15 l 2
 646 18 658 35 658 95 c 2
 658 414 l 1
 478 414 l 1
 478 95 l 2
 478 35 490 18 537 15 c 2
 561 15 l 1
 561 0 l 1
 325 0 l 1
 325 15 l 1
 332 15 l 2
 380 18 392 35 392 95 c 2
 392 414 l 1
 211 414 l 1
 211 95 l 2
 211 35 223 18 271 15 c 2
 294 15 l 1
 294 0 l 1
 40 0 l 1
 40 15 l 1
 65 15 l 2
 113 18 126 35 125 95 c 2
 125 414 l 1
 40 414 l 1
 40 448 l 1
 125 448 l 1
 126 534 127 542 139 577 c 0
 162 644 214 681 285 681 c 0
 337 681 372 656 372 618 c 0
 372 596 356 579 335 579 c 0
 321 579 311 585 304 596 c 0
 301 600 301 600 289 629 c 0
 283 644 270 654 255 654 c 0
 239 654 223 639 218 620 c 0xde
 214 603 211 536 211 448 c 1
 392 448 l 1xee
EndSplineSet
Ligature2: "'liga' Standard Ligatures in Latin lookup 11 subtable" f f i
Ligature2: "'liga' Standard Ligatures in Latin lookup 9 subtable" f f i
Ligature2: "'liga' Standard Ligatures in Latin lookup 7 subtable" f f i
Ligature2: "'liga' Standard Ligatures in Latin lookup 3 subtable" f f i
EndChar

StartChar: ffl
Encoding: 64260 64260 232
Width: 842
Flags: MW
HStem: 0 15<38 63 269 292 38 63 323 330 535 559 589 597 802 808> 414 34<38 123 38 123 209 390 476 656> 654 27<247.5 260.5> 657 24<526.5 543>
VStem: 123 86<95 414> 390 86<95 414> 656 86<95 414 414 414 448 602 602 602>
LayerCount: 4
Fore
SplineSet
658 654 m 1xde
 733 679 l 1
 742 682 l 1xde
 742 95 l 2
 742 35 754 18 802 15 c 2
 808 15 l 1
 808 0 l 1
 589 0 l 1
 589 15 l 1
 597 15 l 2
 644 18 656 35 656 95 c 2
 656 414 l 1
 476 414 l 1
 476 95 l 2
 476 35 488 18 535 15 c 2
 559 15 l 1
 559 0 l 1
 323 0 l 1
 323 15 l 1
 330 15 l 2
 378 18 390 35 390 95 c 2
 390 414 l 1
 209 414 l 1
 209 95 l 2
 209 35 221 18 269 15 c 2
 292 15 l 1
 292 0 l 1
 38 0 l 1
 38 15 l 1
 63 15 l 2
 111 18 124 35 123 95 c 2
 123 414 l 1
 38 414 l 1
 38 448 l 1
 123 448 l 1
 124 534 125 542 137 577 c 0
 160 644 212 681 283 681 c 0
 335 681 370 656 370 618 c 0
 370 596 354 579 333 579 c 0
 319 579 309 585 302 596 c 0
 299 600 299 600 287 629 c 0
 281 644 268 654 253 654 c 0
 237 654 221 639 216 620 c 0xee
 212 603 209 536 209 448 c 1
 390 448 l 1
 391 455 l 1
 393 502 l 2
 398 610 467 681 567 681 c 0
 602 681 624 674 652 652 c 1
 658 654 l 1xde
656 448 m 1
 656 602 l 1
 649 590 636 583 621 583 c 0
 612 583 602 588 594 595 c 0
 589 600 589 600 570 635 c 0
 562 648 549 657 537 657 c 0
 516 657 494 637 485 610 c 0
 479 594 476 555 476 507 c 2
 476 448 l 1
 656 448 l 1
EndSplineSet
EndChar

StartChar: oneeighth
Encoding: 8539 8539 233
Width: 750
GlyphClass: 3
Flags: MW
HStem: -4 29<583.5 621.5 583.5 637> 277 11<38 216 38 38> 376 29<578.5 613.5>
VStem: 91 68<330 583 583 596.5> 472 64<78.5 117.5> 477 62<311.5 336> 654 58<301.5 335.5> 662 63<68.5 96.5>
LayerCount: 4
Fore
SplineSet
216 277 m 1xfa
 38 277 l 1
 38 288 l 1
 77 290 90 300 91 326 c 2
 91 583 l 2
 91 610 88 618 76 618 c 0
 69 618 67 617 40 608 c 1
 40 617 l 1
 152 669 l 1
 159 668 l 1
 159 330 l 2
 160 301 174 291 216 288 c 1
 216 277 l 1xfa
635 222 m 1
 704 173 725 145 725 100 c 0
 725 37 675 -4 599 -4 c 0
 523 -4 472 37 472 97 c 0xf9
 472 138 487 157 548 201 c 1
 490 250 477 269 477 308 c 0xf6
 477 364 529 405 600 405 c 0
 665 405 712 368 712 317 c 0
 712 278 689 250 635 222 c 1
575 181 m 1xf9
 548 158 536 135 536 102 c 0
 536 55 563 25 604 25 c 0
 639 25 662 48 662 81 c 0
 662 112 648 132 608 159 c 2
 575 181 l 1xf9
605 241 m 1xf6
 640 264 654 286 654 317 c 0
 654 354 632 376 595 376 c 0
 562 376 539 355 539 326 c 0
 539 297 559 272 605 241 c 1xf6
167 -14 m 1
 118 -14 l 1
 571 676 l 1
 617 676 l 1
 167 -14 l 1
EndSplineSet
Ligature2: "'frac' Diagonal Fractions in Latin lookup 15 subtable" one slash eight
EndChar

StartChar: threeeighths
Encoding: 8540 8540 234
Width: 750
GlyphClass: 3
Flags: MW
HStem: -4 29<583.5 621.5 583.5 637> 272 38<131.5 151> 376 29<578.5 613.5> 627 46<133 151>
VStem: 193 66<581.5 590> 213 71<365.5 406> 472 64<78.5 117.5> 477 62<311.5 336> 654 58<301.5 335.5> 662 63<68.5 96.5>
LayerCount: 4
Fore
SplineSet
97 489 m 1xfa80
 168 514 193 536 193 574 c 0
 193 606 170 627 132 627 c 0
 95 627 75 614 45 572 c 1
 27 585 l 1
 38 604 39 606 44 614 c 0
 69 652 110 673 156 673 c 0
 214 673 259 639 259 596 c 0
 259 567 245 550 194 513 c 1xfa80
 226 500 231 497 243 487 c 0
 269 466 284 435 284 403 c 0
 284 328 205 272 97 272 c 0
 48 272 20 288 20 317 c 0
 20 335 33 349 50 349 c 0
 60 349 70 344 88 331 c 0
 110 315 122 310 141 310 c 0
 184 310 213 339 213 382 c 0
 213 430 171 472 123 472 c 0
 122 472 119 472 116 471 c 2xf680
 98 469 l 1
 97 489 l 1xfa80
635 222 m 1xf580
 704 173 725 145 725 100 c 0
 725 37 675 -4 599 -4 c 0
 523 -4 472 37 472 97 c 0xf640
 472 138 487 157 548 201 c 1
 490 250 477 269 477 308 c 0
 477 364 529 405 600 405 c 0
 665 405 712 368 712 317 c 0
 712 278 689 250 635 222 c 1xf580
575 181 m 1xf640
 548 158 536 135 536 102 c 0
 536 55 563 25 604 25 c 0
 639 25 662 48 662 81 c 0
 662 112 648 132 608 159 c 2
 575 181 l 1xf640
605 241 m 1xf580
 640 264 654 286 654 317 c 0
 654 354 632 376 595 376 c 0
 562 376 539 355 539 326 c 0
 539 297 559 272 605 241 c 1xf580
172 -14 m 1
 123 -14 l 1
 576 676 l 1
 622 676 l 1
 172 -14 l 1
EndSplineSet
Ligature2: "'frac' Diagonal Fractions in Latin lookup 15 subtable" three slash eight
EndChar

StartChar: fiveeighths
Encoding: 8541 8541 235
Width: 750
GlyphClass: 3
Flags: MW
HStem: -4 29<583.5 621.5 583.5 637> 257 28<150.5 170> 376 29<577.5 612.5> 608 54<136 259 259 265.5 127 272 136 136>
VStem: 241 55<364.5 413> 472 64<78.5 117.5> 476 62<311.5 336> 653 58<301.5 335.5> 662 63<68.5 96.5>
LayerCount: 4
Fore
SplineSet
259 662 m 2xfd
 272 662 278 665 289 678 c 1
 304 671 l 1
 272 608 l 1
 136 608 l 1
 115 565 l 1
 186 553 216 542 247 519 c 0
 279 494 296 457 296 411 c 0
 296 318 225 257 115 257 c 0
 64 257 35 271 35 295 c 0
 35 312 47 322 68 322 c 0
 83 322 96 317 113 305 c 2
 117 302 l 2
 138 288 144 285 157 285 c 0
 204 285 241 328 241 383 c 0
 241 443 199 484 117 502 c 0
 103 505 83 507 72 507 c 0
 60 509 57 510 57 516 c 0
 57 519 58 524 60 526 c 2
 127 662 l 1
 259 662 l 2xfd
635 222 m 1
 705 173 725 145 725 100 c 0
 725 37 675 -4 599 -4 c 0
 523 -4 472 37 472 97 c 0xfc80
 472 138 486 157 548 201 c 1
 489 250 476 269 476 308 c 0xfb
 476 364 528 405 599 405 c 0
 664 405 711 368 711 317 c 0
 711 278 689 250 635 222 c 1
575 181 m 1xfc80
 547 158 536 135 536 102 c 0
 536 55 563 25 604 25 c 0
 639 25 662 48 662 81 c 0
 662 112 648 132 608 159 c 2
 575 181 l 1xfc80
605 241 m 1xfb
 639 264 653 286 653 317 c 0
 653 354 631 376 594 376 c 0
 561 376 538 355 538 326 c 0
 538 297 558 272 605 241 c 1xfb
174 -14 m 1
 125 -14 l 1
 578 676 l 1
 624 676 l 1
 174 -14 l 1
EndSplineSet
Ligature2: "'frac' Diagonal Fractions in Latin lookup 15 subtable" five slash eight
EndChar

StartChar: seveneighths
Encoding: 8542 8542 236
Width: 750
GlyphClass: 3
Flags: MW
HStem: -4 29<583.5 621.5 583.5 637> 376 29<578.5 613.5> 597 64<103 120 120 240>
VStem: 472 64<78.5 117.5> 477 62<311.5 336> 654 58<301.5 335.5> 662 63<68.5 96.5>
LayerCount: 4
Fore
SplineSet
635 222 m 1xf4
 704 173 725 145 725 100 c 0
 725 37 675 -4 599 -4 c 0
 523 -4 472 37 472 97 c 0xf2
 472 138 487 158 549 201 c 1
 490 250 477 269 477 308 c 0xec
 477 364 529 405 600 405 c 0
 665 405 712 368 712 317 c 0
 712 278 689 250 635 222 c 1xf4
575 181 m 1xf2
 547 158 536 135 536 102 c 0
 536 55 563 25 604 25 c 0
 639 25 662 48 662 81 c 0
 662 112 648 133 609 159 c 2
 575 181 l 1xf2
605 241 m 1xec
 640 264 654 286 654 317 c 0
 654 354 632 376 595 376 c 0
 562 376 539 355 539 326 c 0
 539 297 559 272 605 241 c 1xec
312 644 m 1
 177 253 l 1
 115 253 l 1
 240 597 l 1
 120 597 l 2
 86 597 76 590 49 554 c 1
 27 564 l 1
 68 661 l 1
 312 661 l 1
 312 644 l 1
162 -14 m 1
 113 -14 l 1
 566 676 l 1
 612 676 l 1
 162 -14 l 1
EndSplineSet
Ligature2: "'frac' Diagonal Fractions in Latin lookup 15 subtable" seven slash eight
EndChar

StartChar: uni2070
Encoding: 8304 8304 237
Width: 300
Flags: MW
HStem: 256 29<132 169 131 191.5> 648 29<135.5 169>
VStem: 13 80<436 505> 207 80<405 523.5>
LayerCount: 4
Fore
SplineSet
152 677 m 0
 232 677 287 591 287 466 c 0
 287 340 233 256 150 256 c 0
 114 256 84 271 61 298 c 0
 33 332 13 403 13 469 c 0
 13 541 36 610 71 645 c 0
 93 667 119 677 152 677 c 0
151 648 m 0
 113 648 93 585 93 467 c 0
 93 346 112 285 150 285 c 0
 188 285 207 346 207 464 c 0
 207 583 187 648 151 648 c 0
EndSplineSet
EndChar

StartChar: uni2074
Encoding: 8308 8308 238
Width: 300
Flags: MW
HStem: 366 50<46 175 46 177 2 175 244 295>
VStem: 175 69<416 590 590 590>
LayerCount: 4
Fore
SplineSet
295 366 m 1
 244 366 l 1
 244 268 l 1
 177 268 l 1
 177 366 l 1
 2 366 l 1
 2 412 l 1
 201 676 l 1
 244 676 l 1
 244 416 l 1
 295 416 l 1
 295 366 l 1
175 590 m 1
 46 416 l 1
 175 416 l 1
 175 590 l 1
EndSplineSet
EndChar

StartChar: uni2075
Encoding: 8309 8309 239
Width: 300
Flags: MW
HStem: 249 35<134.5 154> 595 67<121 240 121 121>
VStem: 214 64<359 399.5>
LayerCount: 4
Fore
SplineSet
100 563 m 1
 169 551 205 537 233 511 c 0
 266 480 278 452 278 407 c 0
 278 311 208 249 100 249 c 0
 48 249 16 265 16 293 c 0
 16 311 28 321 50 321 c 0
 65 321 80 315 102 300 c 0
 119 288 129 284 140 284 c 0
 182 284 214 325 214 378 c 0
 214 421 194 454 157 473 c 0
 125 489 78 501 52 501 c 0
 41 500 36 504 36 512 c 2
 37 518 l 1
 108 662 l 1
 244 662 l 2
 255 662 259 664 266 672 c 2
 268 675 l 1
 268 675 270 677 271 680 c 2
 286 669 l 1
 261 611 l 2
 255 599 255 599 253 598 c 0
 250 596 246 595 240 595 c 2
 121 595 l 1
 100 563 l 1
EndSplineSet
EndChar

StartChar: uni2076
Encoding: 8310 8310 240
Width: 300
Flags: MW
HStem: 252 30<139.5 180.5 139.5 197> 486 40<157 169.5> 655 22<280 283>
VStem: 7 80<380 447 380 482.5> 218 77<353.5 409>
LayerCount: 4
Fore
SplineSet
283 655 m 1
 187 640 121 587 100 506 c 1
 130 522 144 526 170 526 c 0
 246 526 295 475 295 396 c 0
 295 311 238 252 156 252 c 0
 67 252 7 323 7 429 c 0
 7 536 77 627 187 662 c 0
 213 671 225 672 280 677 c 1
 283 655 l 1
146 486 m 0
 102 486 87 470 87 424 c 0
 87 336 116 282 163 282 c 0
 198 282 218 315 218 372 c 0
 218 446 193 486 146 486 c 0
EndSplineSet
EndChar

StartChar: uni2077
Encoding: 8311 8311 241
Width: 300
Flags: MW
HStem: 610 64<85 102 102 222>
VStem: 9 285<577 657>
LayerCount: 4
Fore
SplineSet
294 657 m 1
 159 266 l 1
 97 266 l 1
 222 610 l 1
 102 610 l 2
 68 610 58 603 31 567 c 1
 9 577 l 1
 50 674 l 1
 294 674 l 1
 294 657 l 1
EndSplineSet
EndChar

StartChar: uni2078
Encoding: 8312 8312 242
Width: 300
Flags: MW
HStem: 255 30<144.5 183.5 144.5 199.5> 646 30<139 174.5>
VStem: 30 66<340.5 380> 35 63<579 605> 216 60<570 604.5> 225 65<330 359>
LayerCount: 4
Fore
SplineSet
198 488 m 1xe8
 269 437 290 408 290 362 c 0
 290 298 238 255 161 255 c 0
 83 255 30 297 30 359 c 0xe4
 30 401 45 421 109 467 c 1
 48 517 35 536 35 576 c 0xd8
 35 634 89 676 161 676 c 0
 228 676 276 638 276 585 c 0
 276 545 253 517 198 488 c 1xe8
136 446 m 1xe4
 108 422 96 398 96 365 c 0
 96 316 123 285 166 285 c 0
 201 285 225 308 225 343 c 0
 225 375 210 396 170 423 c 2
 136 446 l 1xe4
167 508 m 1xd8
 201 531 216 554 216 586 c 0
 216 623 193 646 156 646 c 0
 122 646 98 625 98 594 c 0
 98 564 118 539 167 508 c 1xd8
EndSplineSet
EndChar

StartChar: uni2079
Encoding: 8313 8313 243
Width: 300
Flags: MW
HStem: 250 25.5 404 39<126.5 138.5> 646 30<119.5 160>
VStem: 4 78<517.5 571.5> 206 82<480 503 503 550.5>
LayerCount: 4
Fore
SplineSet
19 275 m 1
 28 276 l 1
 114 290 179 345 207 428 c 1
 179 411 154 404 123 404 c 0
 52 404 4 455 4 530 c 0
 4 613 63 676 142 676 c 0
 227 676 288 604 288 504 c 0
 288 396 220 303 115 267 c 0
 90 259 77 256 23 250 c 1
 19 275 l 1
206 503 m 2
 206 598 183 646 137 646 c 0
 102 646 82 612 82 550 c 0
 82 485 107 443 146 443 c 0
 165 443 185 450 200 462 c 0
 205 467 206 470 206 480 c 2
 206 503 l 2
EndSplineSet
EndChar

StartChar: IJ
Encoding: 306 306 244
Width: 708
Flags: MW
HStem: -7 41<476.5 493 476.5 496> 0 18.5 643.5 18.5
VStem: 109 105<103 559> 511 103<144 193 193 559>
LayerCount: 4
Fore
SplineSet
304 0 m 1x78
 18 0 l 1
 18 18 l 1
 40 19 l 2
 93 21 109 40 109 103 c 2
 109 559 l 2
 109 622 93 641 40 643 c 2
 18 644 l 1
 18 662 l 1
 304 662 l 1
 304 644 l 1
 282 643 l 2
 229 641 214 622 214 559 c 2
 214 103 l 2
 214 40 229 21 282 19 c 2
 304 18 l 1
 304 0 l 1x78
415 662 m 1
 702 662 l 1
 702 644 l 1
 682 643 l 2
 629 641 613 622 614 559 c 2
 614 193 l 2
 614 71 548 -7 444 -7 c 0
 382 -7 340 23 340 67 c 0
 340 94 360 113 390 113 c 0
 419 113 432 102 454 58 c 0
 461 43 471 34 482 34 c 0xb8
 504 34 511 60 511 144 c 2
 511 559 l 2
 509 617 487 643 437 643 c 2
 415 644 l 1
 415 662 l 1
EndSplineSet
EndChar

StartChar: Abreve
Encoding: 258 258 245
Width: 722
Flags: MW
HStem: 0 19<189 213 15 15> 216 41<216 447 216 461 199 447> 719 60<336 391 329.5 401.5>
VStem: 15 130<0 66 19 66> 221 29<876 876>
LayerCount: 4
Fore
SplineSet
706 0 m 1
 451 0 l 1
 451 19 l 1
 504 20 521 28 521 53 c 0
 521 67 514 93 502 120 c 2
 461 216 l 1
 199 216 l 1
 153 99 l 2
 148 86 145 72 145 60 c 0
 145 31 165 19 213 19 c 1
 213 0 l 1
 15 0 l 1
 15 19 l 1
 63 21 75 37 139 183 c 2
 347 674 l 1
 367 674 l 1
 616 106 l 2
 651 32 661 22 706 19 c 1
 706 0 l 1
447 257 m 1
 331 532 l 1
 216 257 l 1
 447 257 l 1
502 876 m 1
 489 770 443 719 360 719 c 0
 312 719 273 738 248 773 c 0
 228 801 222 825 221 876 c 1
 250 876 l 1
 263 809 297 779 362 779 c 0
 420 779 444 800 473 876 c 1
 502 876 l 1
EndSplineSet
EndChar

StartChar: Aogonek
Encoding: 260 260 246
Width: 722
Flags: MW
HStem: -165 56<684 694.5> 0 19<189 213 15 15> 216 41<216 447 216 461 199 447>
VStem: 15 130<0 66 19 66> 601 56<-81 -73>
LayerCount: 4
Fore
SplineSet
706 0 m 1
 684 -5 657 -43 657 -69 c 0
 657 -93 673 -109 695 -109 c 0
 716 -109 735 -100 766 -73 c 1
 786 -89 l 1
 749 -142 715 -165 674 -165 c 0
 632 -165 601 -132 601 -90 c 0
 601 -56 615 -32 655 0 c 1
 451 0 l 1
 451 19 l 1
 504 20 521 28 521 53 c 0
 521 67 514 93 502 120 c 2
 461 216 l 1
 199 216 l 1
 153 99 l 2
 148 86 145 72 145 60 c 0
 145 31 165 19 213 19 c 1
 213 0 l 1
 15 0 l 1
 15 19 l 1
 63 21 75 37 139 183 c 2
 347 674 l 1
 367 674 l 1
 616 106 l 2
 651 32 661 22 706 19 c 1
 706 0 l 1
447 257 m 1
 331 532 l 1
 216 257 l 1
 447 257 l 1
EndSplineSet
EndChar

StartChar: Cacute
Encoding: 262 262 247
Width: 667
Flags: MW
HStem: -14 44<360.5 416.5> 636 40<322 386.5 322 410.5>
VStem: 28 116<282.5 381>
LayerCount: 4
Fore
SplineSet
597 451 m 1
 578 516 563 544 531 576 c 0
 491 615 439 636 382 636 c 0
 237 636 144 520 144 338 c 0
 144 227 175 137 230 88 c 0
 273 50 329 30 392 30 c 0
 475 30 541 60 615 131 c 1
 633 113 l 1
 573 32 473 -14 360 -14 c 0
 161 -14 28 122 28 326 c 0
 28 436 66 528 136 590 c 0
 199 645 281 676 363 676 c 0
 410 676 460 668 509 651 c 0
 524 646 539 643 548 643 c 0
 568 643 584 655 590 676 c 1
 611 676 l 1
 620 451 l 1
 597 451 l 1
320 719 m 1
 467 867 l 2
 485 885 494 890 509 890 c 0
 531 890 544 878 544 858 c 0
 544 842 535 829 514 816 c 2
 360 719 l 1
 320 719 l 1
EndSplineSet
EndChar

StartChar: Ccaron
Encoding: 268 268 248
Width: 667
Flags: MW
HStem: -14 44<360.5 416.5> 636 40<322 386.5 322 410.5> 719 167<217 403 217 341>
VStem: 28 116<282.5 381>
LayerCount: 4
Fore
SplineSet
597 451 m 1
 578 516 563 544 531 576 c 0
 491 615 439 636 382 636 c 0
 237 636 144 520 144 338 c 0
 144 227 175 137 230 88 c 0
 273 50 329 30 392 30 c 0
 475 30 541 60 615 131 c 1
 633 113 l 1
 573 32 473 -14 360 -14 c 0
 161 -14 28 122 28 326 c 0
 28 436 66 528 136 590 c 0
 199 645 281 676 363 676 c 0
 410 676 460 668 509 651 c 0
 524 646 539 643 548 643 c 0
 568 643 584 655 590 676 c 1
 611 676 l 1
 620 451 l 1
 597 451 l 1
403 719 m 1
 341 719 l 1
 217 886 l 1
 251 886 l 1
 372 783 l 1
 494 886 l 1
 528 886 l 1
 403 719 l 1
EndSplineSet
EndChar

StartChar: Cdotaccent
Encoding: 266 266 249
Width: 667
Flags: MW
HStem: -7 44<320.5 419.5> 632 37<319 404.5 282.5 420> 716 107<369 398.5>
VStem: 34 121<239 420 239 425.5> 330 107<755 784.5> 600 24
LayerCount: 4
Fore
SplineSet
634 144 m 1
 570 49 472 -7 367 -7 c 0
 183 -7 34 145 34 331 c 0
 34 520 186 669 379 669 c 0
 430 669 480 659 519 641 c 0
 559 622 560 622 570 622 c 0
 587 622 596 634 600 662 c 1
 621 662 l 1
 627 439 l 1
 609 437 l 1
 602 494 584 531 549 566 c 0
 506 609 450 632 390 632 c 0
 248 632 155 512 155 328 c 0
 155 150 248 37 393 37 c 0
 484 37 557 76 617 155 c 1
 634 144 l 1
384 823 m 0
 413 823 437 799 437 770 c 0
 437 740 413 716 384 716 c 0
 354 716 330 740 330 770 c 0
 330 799 354 823 384 823 c 0
EndSplineSet
EndChar

StartChar: Dcaron
Encoding: 270 270 250
Width: 722
Flags: MW
HStem: 0 37<238 300> 625 37<237 286 286 301.5> 719 167<167 353 167 291>
VStem: 104 102<109 553 553 553> 576 109<285.5 379 285.5 381>
LayerCount: 4
Fore
SplineSet
16 19 m 1
 91 24 103 36 104 109 c 2
 104 553 l 2
 103 628 95 636 16 643 c 1
 16 662 l 1
 286 662 l 2
 423 662 532 626 600 557 c 0
 656 502 685 424 685 334 c 0
 685 237 648 148 583 89 c 0
 521 33 416 0 300 0 c 2
 16 0 l 1
 16 19 l 1
206 78 m 2
 206 46 218 37 258 37 c 0
 345 37 403 49 454 78 c 0
 535 125 576 209 576 327 c 0
 576 435 535 521 457 575 c 0
 409 609 345 625 258 625 c 0
 216 625 206 617 206 586 c 2
 206 78 l 2
353 719 m 1
 291 719 l 1
 167 886 l 1
 201 886 l 1
 322 783 l 1
 444 886 l 1
 478 886 l 1
 353 719 l 1
EndSplineSet
EndChar

StartChar: Dcroat
Encoding: 272 272 251
Width: 722
Flags: MW
HStem: 0 37<238 300> 315 44<21 104 21 104 206 352> 625 37<236 286 286 300.5>
VStem: 104 102<109 315 359 553 553 553> 576 109<285.5 379 285.5 381>
LayerCount: 4
Fore
SplineSet
16 662 m 1
 286 662 l 2
 423 662 532 626 600 557 c 0
 656 502 685 424 685 334 c 0
 685 237 648 148 583 89 c 0
 521 33 416 0 300 0 c 2
 16 0 l 1
 16 19 l 1
 91 24 103 36 104 109 c 2
 104 315 l 1
 21 315 l 1
 21 359 l 1
 104 359 l 1
 104 553 l 2
 103 628 95 636 16 643 c 1
 16 662 l 1
352 315 m 1
 206 315 l 1
 206 78 l 2
 206 46 218 37 258 37 c 0
 345 37 403 49 454 78 c 0
 535 125 576 209 576 327 c 0
 576 435 535 521 457 575 c 0
 409 609 345 625 256 625 c 0
 216 625 206 617 206 586 c 2
 206 359 l 1
 352 359 l 1
 352 315 l 1
EndSplineSet
EndChar

StartChar: Ecaron
Encoding: 282 282 252
Width: 611
Flags: MW
HStem: 0 37<306 333 306 552> 327 41<201 355 201 355> 624 38<220 234 234 369> 719 167<150 336 150 274>
VStem: 99 102<109 327 368 553 553 553> 465 23<231 463 231 463> 521 23.5
LayerCount: 4
Fore
SplineSet
552 0 m 1
 12 0 l 1
 12 19 l 1
 84 23 97 37 99 109 c 2
 99 553 l 2
 97 625 85 638 12 643 c 1
 12 662 l 1
 543 662 l 1
 546 519 l 1
 521 519 l 1
 505 608 485 622 369 624 c 2
 234 624 l 2
 206 624 202 620 201 590 c 2
 201 368 l 1
 355 368 l 2
 439 370 453 382 465 463 c 1
 488 463 l 1
 488 231 l 1
 465 231 l 1
 452 313 439 325 355 327 c 2
 201 327 l 1
 201 80 l 2
 201 41 202 40 306 37 c 2
 333 37 l 2
 476 38 521 63 569 169 c 1
 597 169 l 1
 552 0 l 1
336 719 m 1
 274 719 l 1
 150 886 l 1
 184 886 l 1
 305 783 l 1
 427 886 l 1
 461 886 l 1
 336 719 l 1
EndSplineSet
EndChar

StartChar: Edotaccent
Encoding: 278 278 253
Width: 611
Flags: MW
HStem: 0 37<306 333 306 552> 327 41<201 355 201 355> 624 38<220 234 234 369> 735 100<292 318.5 292 318.5>
VStem: 99 102<109 327 368 553 553 553> 257 98<771.5 798.5> 465 23<231 463 231 463> 521 23.5
LayerCount: 4
Fore
SplineSet
552 0 m 1
 12 0 l 1
 12 19 l 1
 84 23 97 37 99 109 c 2
 99 553 l 2
 97 625 85 638 12 643 c 1
 12 662 l 1
 543 662 l 1
 546 519 l 1
 521 519 l 1
 505 608 485 622 369 624 c 2
 234 624 l 2
 206 624 202 620 201 590 c 2
 201 368 l 1
 355 368 l 2
 439 370 453 382 465 463 c 1
 488 463 l 1
 488 231 l 1
 465 231 l 1
 452 313 439 325 355 327 c 2
 201 327 l 1
 201 80 l 2
 201 41 202 40 306 37 c 2
 333 37 l 2
 476 38 521 63 569 169 c 1
 597 169 l 1
 552 0 l 1
305 835 m 0
 332 835 355 812 355 785 c 0
 355 757 332 735 305 735 c 0
 278 735 257 757 257 786 c 0
 257 812 279 835 305 835 c 0
EndSplineSet
EndChar

StartChar: Eogonek
Encoding: 280 280 254
Width: 611
Flags: MW
HStem: -165 56<509 519.5> 0 37<306 333 306 480> 0 169<12 597 531 597 546 597> 327 41<201 355 201 355> 624 38<220 234 234 369>
VStem: 99 102<109 327 368 553 553 553> 426 56<-81 -73> 465 23<231 463 231 463> 521 23.5
LayerCount: 4
Fore
SplineSet
546 0 m 2x3e80
 516 0 482 -36 482 -69 c 0
 482 -93 498 -109 520 -109 c 0
 541 -109 560 -100 591 -73 c 1
 611 -89 l 1
 574 -142 540 -165 499 -165 c 0
 457 -165 426 -132 426 -90 c 0
 426 -56 441 -31 480 0 c 1xde80
 12 0 l 1
 12 19 l 1
 84 23 97 37 99 109 c 2
 99 553 l 2
 97 625 85 638 12 643 c 1
 12 662 l 1
 543 662 l 1
 546 519 l 1
 521 519 l 1
 505 608 485 622 369 624 c 2
 234 624 l 2
 206 624 202 620 201 590 c 2
 201 368 l 1
 355 368 l 2
 439 370 453 382 465 463 c 1
 488 463 l 1
 488 231 l 1
 465 231 l 1
 452 313 439 325 355 327 c 2
 201 327 l 1
 201 80 l 2
 201 41 202 40 306 37 c 2
 333 37 l 2x5d80
 476 38 521 63 569 169 c 1
 597 169 l 1
 552 0 l 1
 546 0 l 2x3e80
EndSplineSet
EndChar

StartChar: Gbreve
Encoding: 286 286 255
Width: 722
Flags: MW
HStem: -14 40<333 431.5> 336 18<454 709 454 709> 636 40<358 397.5 275 420> 719 60<356 411 350 422>
VStem: 32 114<276 373 233 427> 241 29<876 876> 542 97<85 247 247 247> 600 26
LayerCount: 4
Fore
SplineSet
709 336 m 1xfa
 652 332 641 320 639 259 c 2
 639 56 l 1xfa
 599 21 475 -14 388 -14 c 0
 278 -14 181 24 115 93 c 0
 59 152 32 227 32 325 c 0
 32 529 175 676 375 676 c 0
 420 676 466 668 511 653 c 0
 529 647 545 643 555 643 c 0
 576 643 594 656 600 676 c 1
 622 676 l 1
 630 465 l 1
 607 465 l 1
 582 526 566 552 536 581 c 0xf9
 498 617 448 636 392 636 c 0
 324 636 262 609 218 560 c 0
 174 511 146 420 146 326 c 0
 146 140 246 26 409 26 c 0
 482 26 542 53 542 85 c 2
 542 247 l 2
 540 323 532 331 454 336 c 1
 454 354 l 1
 709 354 l 1
 709 336 l 1xfa
522 876 m 1
 510 770 464 719 380 719 c 0
 332 719 293 738 268 773 c 0
 249 801 242 825 241 876 c 1
 270 876 l 1xfe
 284 809 318 779 382 779 c 0
 440 779 464 800 493 876 c 1
 522 876 l 1
EndSplineSet
EndChar

StartChar: Gdotaccent
Encoding: 288 288 256
Width: 722
Flags: MW
HStem: -7 41<364.5 431 364.5 433.5> 339 18<451 466 451 726 709 709 709 726> 627 42<352 409.5 335 424> 716 107<375 404.5>
VStem: 28 117<290 361> 336 107<755 784.5> 535 105<78 254> 605 20<662 662>
LayerCount: 4
Fore
SplineSet
640 60 m 1xee
 557 14 479 -7 388 -7 c 0
 272 -7 189 23 120 90 c 0
 58 151 28 223 28 314 c 0
 28 408 61 496 120 558 c 0
 185 627 286 669 384 669 c 0
 435 669 481 658 534 634 c 0
 549 627 563 623 572 623 c 0
 590 623 601 637 605 662 c 1
 625 662 l 1
 638 457 l 1
 618 455 l 1
 601 511 587 536 555 564 c 0xed
 510 605 453 627 395 627 c 0
 309 627 234 585 189 512 c 0
 159 464 145 410 145 338 c 0
 145 242 166 175 213 120 c 0
 261 64 326 34 403 34 c 0
 459 34 496 46 535 78 c 1
 535 254 l 2
 535 316 519 336 466 339 c 2
 451 339 l 1
 451 357 l 1
 726 357 l 1
 726 339 l 1
 709 339 l 2
 656 336 640 316 640 254 c 2
 640 60 l 1xee
390 823 m 0xfe
 419 823 443 799 443 770 c 0
 443 740 419 716 390 716 c 0
 360 716 336 740 336 770 c 0
 336 799 360 823 390 823 c 0xfe
EndSplineSet
EndChar

StartChar: Idotaccent
Encoding: 304 304 257
Width: 333
Flags: MW
HStem: 0 19<18 315 18 18> 643 19<18 315 18 315> 735 100<153 179.5 153 179.5>
VStem: 115 102<109 553 109 553> 118 98<771.5 798.5 771 799>
LayerCount: 4
Fore
SplineSet
18 19 m 1xd0
 102 22 114 33 115 109 c 2
 115 553 l 2
 114 628 103 638 18 643 c 1
 18 662 l 1
 315 662 l 1
 315 643 l 1
 232 640 219 628 217 553 c 2
 217 109 l 2
 219 35 233 21 315 19 c 1
 315 0 l 1
 18 0 l 1
 18 19 l 1xd0
166 835 m 0xe8
 193 835 216 812 216 785 c 0
 216 757 193 735 166 735 c 0
 139 735 118 757 118 786 c 0
 118 812 140 835 166 835 c 0xe8
EndSplineSet
EndChar

StartChar: Lacute
Encoding: 313 313 258
Width: 611
Flags: MW
HStem: 0 39<287 354 287 550> 643 19<12 294 12 294>
VStem: 99 102<109 553 80 553>
LayerCount: 4
Fore
SplineSet
294 643 m 1
 216 639 203 626 201 553 c 2
 201 80 l 2
 202 44 210 41 287 39 c 2
 354 39 l 1
 483 43 526 69 573 174 c 1
 598 174 l 1
 550 0 l 1
 12 0 l 1
 12 19 l 1
 84 23 97 37 99 109 c 2
 99 553 l 2
 97 625 85 638 12 643 c 1
 12 662 l 1
 294 662 l 1
 294 643 l 1
111 719 m 1
 258 867 l 2
 277 885 285 890 301 890 c 0
 322 890 335 878 335 858 c 0
 335 842 326 829 305 816 c 2
 151 719 l 1
 111 719 l 1
EndSplineSet
EndChar

StartChar: Lcaron
Encoding: 317 317 259
Width: 611
Flags: MW
HStem: 0 39<287 354 287 550> 568 108<396.5 417.5> 643 19<12 294 12 294>
VStem: 99 102<109 553 80 553> 455 39<557 562>
LayerCount: 4
Fore
SplineSet
294 643 m 1xb8
 216 639 203 626 201 553 c 2
 201 80 l 2
 202 44 210 41 287 39 c 2
 354 39 l 1
 483 43 526 69 573 174 c 1
 598 174 l 1
 550 0 l 1
 12 0 l 1
 12 19 l 1
 84 23 97 37 99 109 c 2
 99 553 l 2
 97 625 85 638 12 643 c 1
 12 662 l 1
 294 662 l 1
 294 643 l 1xb8
373 452 m 1
 427 489 455 525 455 558 c 0
 455 566 449 572 441 572 c 0
 440 572 439 572 434 570 c 0
 428 569 421 568 414 568 c 0
 377 568 355 587 355 619 c 0
 355 653 379 676 414 676 c 0
 459 676 494 637 494 587 c 0xd8
 494 527 449 466 382 433 c 1
 373 452 l 1
EndSplineSet
EndChar

StartChar: Nacute
Encoding: 323 323 260
Width: 722
Flags: MW
HStem: 0 19<12 247 12 12> 643 19<12 33.5>
VStem: 109 44<147 539 147 588> 568 44<178 515 -11 515>
LayerCount: 4
Fore
SplineSet
707 643 m 1
 628 636 615 619 612 515 c 2
 612 -11 l 1
 595 -11 l 1
 153 539 l 1
 153 147 l 2
 155 44 170 23 247 19 c 1
 247 0 l 1
 12 0 l 1
 12 19 l 1
 94 24 107 41 109 147 c 2
 109 588 l 1
 69 635 55 643 12 643 c 1
 12 662 l 1
 183 662 l 1
 568 178 l 1
 568 515 l 2
 565 621 552 638 472 643 c 1
 472 662 l 1
 707 662 l 1
 707 643 l 1
288 719 m 1
 435 867 l 2
 453 885 462 890 477 890 c 0
 499 890 512 878 512 858 c 0
 512 842 503 829 482 816 c 2
 328 719 l 1
 288 719 l 1
EndSplineSet
EndChar

StartChar: Ncaron
Encoding: 327 327 261
Width: 722
Flags: MW
HStem: 0 19<12 247 12 12> 643 19<12 33.5> 719 167<206 392 206 330>
VStem: 109 44<147 539 147 588> 568 44<178 515 -11 515>
LayerCount: 4
Fore
SplineSet
707 643 m 1
 628 636 615 619 612 515 c 2
 612 -11 l 1
 595 -11 l 1
 153 539 l 1
 153 147 l 2
 155 44 170 23 247 19 c 1
 247 0 l 1
 12 0 l 1
 12 19 l 1
 94 24 107 41 109 147 c 2
 109 588 l 1
 69 635 55 643 12 643 c 1
 12 662 l 1
 183 662 l 1
 568 178 l 1
 568 515 l 2
 565 621 552 638 472 643 c 1
 472 662 l 1
 707 662 l 1
 707 643 l 1
392 719 m 1
 330 719 l 1
 206 886 l 1
 240 886 l 1
 361 783 l 1
 483 886 l 1
 517 886 l 1
 392 719 l 1
EndSplineSet
EndChar

StartChar: Ohungarumlaut
Encoding: 336 336 262
Width: 722
Flags: MW
HStem: -14 36<336 385.5 336 453.5> 640 36<333.5 384>
VStem: 34 114<284 380 273.5 432> 574 114<298.5 376.5 226 387.5>
LayerCount: 4
Fore
SplineSet
361 676 m 0
 457 676 541 640 604 571 c 0
 659 512 688 426 688 327 c 0
 688 125 552 -14 355 -14 c 0
 267 -14 178 25 120 88 c 0
 66 145 34 237 34 331 c 0
 34 533 170 676 361 676 c 0
361 640 m 0
 306 640 257 618 218 575 c 0
 176 528 148 431 148 329 c 0
 148 218 181 117 232 71 c 0
 268 40 313 22 359 22 c 0
 412 22 457 40 492 75 c 0
 515 98 532 123 541 148 c 0
 561 200 574 269 574 328 c 0
 574 447 543 541 489 590 c 0
 453 622 407 640 361 640 c 0
388 719 m 1
 535 867 l 2
 553 885 562 890 577 890 c 0
 599 890 612 878 612 858 c 0
 612 842 603 829 582 816 c 2
 428 719 l 1
 388 719 l 1
232 719 m 1
 379 867 l 2
 397 885 406 890 421 890 c 0
 443 890 456 878 456 858 c 0
 456 842 447 829 426 816 c 2
 272 719 l 1
 232 719 l 1
EndSplineSet
EndChar

StartChar: Racute
Encoding: 340 340 263
Width: 667
Flags: MW
HStem: 0 19<17 294 17 17> 307 36 625 37<235 293 293 317.5>
VStem: 102 102<120 306 343 553 553 553> 438 109<463 507.5 440 535>
LayerCount: 4
Fore
SplineSet
659 0 m 1
 498 0 l 1
 260 308 l 1
 204 306 l 1
 204 109 l 2
 205 36 217 24 294 19 c 1
 294 0 l 1
 17 0 l 1
 17 19 l 1
 92 25 101 35 102 120 c 2
 102 553 l 2
 101 626 91 635 17 643 c 1
 17 662 l 1
 293 662 l 2
 387 662 470 636 508 595 c 0
 534 566 547 529 547 486 c 0
 547 394 493 344 366 319 c 1
 572 66 l 2
 601 32 621 22 659 19 c 1
 659 0 l 1
204 343 m 1
 300 345 335 351 381 377 c 0
 417 396 438 438 438 488 c 0
 438 582 380 625 255 625 c 0
 215 625 204 617 204 589 c 2
 204 343 l 1
228 719 m 1
 375 867 l 2
 394 885 402 890 418 890 c 0
 439 890 452 878 452 858 c 0
 452 842 443 829 422 816 c 2
 268 719 l 1
 228 719 l 1
EndSplineSet
EndChar

StartChar: Rcaron
Encoding: 344 344 264
Width: 667
Flags: MW
HStem: 0 19<17 294 17 17> 307 36 625 37<235 293 293 317.5> 719 167<129 315 129 253>
VStem: 102 102<120 306 343 553 553 553> 438 109<463 507.5 440 535>
LayerCount: 4
Fore
SplineSet
659 0 m 1
 498 0 l 1
 260 308 l 1
 204 306 l 1
 204 109 l 2
 205 36 217 24 294 19 c 1
 294 0 l 1
 17 0 l 1
 17 19 l 1
 92 25 101 35 102 120 c 2
 102 553 l 2
 101 626 91 635 17 643 c 1
 17 662 l 1
 293 662 l 2
 387 662 470 636 508 595 c 0
 534 566 547 529 547 486 c 0
 547 394 493 344 366 319 c 1
 572 66 l 2
 601 32 621 22 659 19 c 1
 659 0 l 1
204 343 m 1
 300 345 335 351 381 377 c 0
 417 396 438 438 438 488 c 0
 438 582 380 625 255 625 c 0
 215 625 204 617 204 589 c 2
 204 343 l 1
315 719 m 1
 253 719 l 1
 129 886 l 1
 163 886 l 1
 284 783 l 1
 406 886 l 1
 440 886 l 1
 315 719 l 1
EndSplineSet
EndChar

StartChar: Sacute
Encoding: 346 346 265
Width: 556
Flags: MW
HStem: -14 36<267.5 303.5 222 345> 635 41<230 259.5 222 283.5>
VStem: 71 86<515.5 531> 72 22<-13 -13> 390 101<116.5 146.5> 426 21<676 676>
LayerCount: 4
Fore
SplineSet
469 463 m 1xe4
 444 463 l 1
 428 522 414 548 383 580 c 0
 348 616 306 635 261 635 c 0
 199 635 157 598 157 543 c 0xe4
 157 488 199 444 304 387 c 0
 436 315 491 250 491 168 c 0
 491 65 403 -14 287 -14 c 0
 248 -14 207 -6 169 9 c 0
 150 16 133 20 122 20 c 0
 107 20 95 6 94 -13 c 1
 72 -13 l 1
 42 199 l 1
 65 199 l 1
 115 77 177 22 267 22 c 0
 340 22 390 68 390 134 c 0
 390 159 385 180 376 193 c 0xd8
 351 231 299 271 227 310 c 0
 115 369 71 425 71 505 c 0
 71 557 89 599 124 630 c 0
 157 659 201 676 243 676 c 0
 276 676 313 668 350 654 c 0
 367 646 384 642 394 642 c 0
 411 642 422 653 426 676 c 1
 447 676 l 1
 469 463 l 1xe4
205 719 m 1
 352 867 l 2
 370 885 379 890 394 890 c 0
 416 890 429 878 429 858 c 0
 429 842 420 829 399 816 c 2
 245 719 l 1
 205 719 l 1
EndSplineSet
EndChar

StartChar: Scedilla
Encoding: 350 350 266
Width: 556
Flags: MW
HStem: -215 35<232.5 260 232.5 286.5> -100 38<238.5 314> -14 36<280 289 280 280> 635 41<230 259.5 222 283.5>
VStem: 71 86<515.5 531> 72 22<-13 -13> 298 75<-149.5 -123> 390 101<117 146.5> 426 21<676 676>
LayerCount: 4
Fore
SplineSet
261 -65 m 1xf9
 270 -63 277 -62 287 -62 c 0
 341 -62 373 -87 373 -131 c 0
 373 -183 325 -215 248 -215 c 0
 216 -215 192 -211 164 -199 c 1
 178 -168 l 1
 205 -177 222 -180 243 -180 c 0
 277 -180 298 -163 298 -136 c 0
 298 -110 283 -100 245 -100 c 0
 232 -100 225 -101 217 -104 c 1
 210 -99 l 1
 246 -11 l 1xfb
 218 -7 195 -2 169 9 c 0
 150 16 133 20 122 20 c 0
 107 20 95 6 94 -13 c 1
 72 -13 l 1
 42 199 l 1
 65 199 l 1
 115 77 177 22 267 22 c 0
 340 22 390 68 390 134 c 0
 390 159 385 180 376 193 c 0xf5
 351 231 299 271 227 310 c 0
 115 369 71 425 71 505 c 0
 71 557 89 599 124 630 c 0
 157 659 201 676 243 676 c 0
 276 676 313 668 350 654 c 0
 367 646 384 642 394 642 c 0
 411 642 422 653 426 676 c 1
 447 676 l 1
 469 463 l 1
 444 463 l 1
 428 522 414 548 383 580 c 0xf880
 348 616 306 635 261 635 c 0
 199 635 157 598 157 543 c 0
 157 488 199 444 304 387 c 0
 436 315 491 250 491 168 c 0
 491 66 403 -14 289 -14 c 2
 280 -14 l 1
 261 -65 l 1xf9
EndSplineSet
Substitution2: "'locl' Localized Forms in Latin lookup 2 subtable" Scommaaccent
Substitution2: "'locl' Localized Forms in Latin lookup 1 subtable" Scommaaccent
EndChar

StartChar: Tcaron
Encoding: 356 356 267
Width: 611
Flags: MW
HStem: 0 19<160 452 160 160> 620 42<200 254 200 200 356 356 356 410> 719 167<150 336 150 274>
VStem: 20 21 254 102<120 620 109 620> 569 21<492 492>
LayerCount: 4
Fore
SplineSet
452 0 m 1
 160 0 l 1
 160 19 l 1
 244 24 253 34 254 120 c 2
 254 620 l 1
 200 620 l 2
 85 618 64 601 41 492 c 1
 17 492 l 1
 23 662 l 1
 587 662 l 1
 593 492 l 1
 569 492 l 1
 547 601 526 618 410 620 c 2
 356 620 l 1
 356 109 l 2
 357 36 370 23 452 19 c 1
 452 0 l 1
336 719 m 1
 274 719 l 1
 150 886 l 1
 184 886 l 1
 305 783 l 1
 427 886 l 1
 461 886 l 1
 336 719 l 1
EndSplineSet
EndChar

StartChar: Uring
Encoding: 366 366 268
Width: 722
Flags: MW
HStem: -14 44<342.5 409.5> 643 19<14 297 14 297> 724 34<362.5 399 362.5 408.5> 889 34<364 399.5>
VStem: 104 102<241 553> 282 34<805.5 842 805.5 851> 447 34<805 841> 567 44<245 254 254 515>
LayerCount: 4
Fore
SplineSet
705 643 m 1
 624 634 613 620 611 515 c 2
 611 254 l 2
 611 177 602 131 578 89 c 0
 539 21 464 -14 355 -14 c 0
 185 -14 104 68 104 241 c 2
 104 553 l 2
 103 627 93 637 14 643 c 1
 14 662 l 1
 297 662 l 1
 297 643 l 1
 217 636 207 626 206 553 c 2
 206 233 l 2
 206 170 213 133 231 101 c 0
 258 54 307 30 378 30 c 0
 453 30 517 61 544 109 c 0
 560 139 567 177 567 245 c 2
 567 515 l 2
 565 618 550 638 473 643 c 1
 473 662 l 1
 705 662 l 1
 705 643 l 1
381 923 m 0
 436 923 481 878 481 823 c 0
 481 768 436 724 381 724 c 0
 325 724 282 768 282 824 c 0
 282 878 327 923 381 923 c 0
382 889 m 0
 346 889 316 860 316 824 c 0
 316 787 345 758 380 758 c 0
 418 758 447 787 447 823 c 0
 447 859 417 889 382 889 c 0
EndSplineSet
EndChar

StartChar: Uhungarumlaut
Encoding: 368 368 269
Width: 722
Flags: MW
HStem: -14 44<342.5 409.5> 643 19<14 297 14 297>
VStem: 104 102<241 553> 567 44<245 254 254 515>
LayerCount: 4
Fore
SplineSet
705 643 m 1
 624 634 613 620 611 515 c 2
 611 254 l 2
 611 177 602 131 578 89 c 0
 539 21 464 -14 355 -14 c 0
 185 -14 104 68 104 241 c 2
 104 553 l 2
 103 627 93 637 14 643 c 1
 14 662 l 1
 297 662 l 1
 297 643 l 1
 217 636 207 626 206 553 c 2
 206 233 l 2
 206 170 213 133 231 101 c 0
 258 54 307 30 378 30 c 0
 453 30 517 61 544 109 c 0
 560 139 567 177 567 245 c 2
 567 515 l 2
 565 618 550 638 473 643 c 1
 473 662 l 1
 705 662 l 1
 705 643 l 1
426 719 m 1
 573 867 l 2
 591 885 600 890 615 890 c 0
 637 890 650 878 650 858 c 0
 650 842 641 829 620 816 c 2
 466 719 l 1
 426 719 l 1
270 719 m 1
 417 867 l 2
 435 885 444 890 459 890 c 0
 481 890 494 878 494 858 c 0
 494 842 485 829 464 816 c 2
 310 719 l 1
 270 719 l 1
EndSplineSet
EndChar

StartChar: Zacute
Encoding: 377 377 270
Width: 611
Flags: MW
HStem: 0 38<145 402 145 573> 624 38<225 446 225 225>
VStem: 9 588<0 176 15 176>
LayerCount: 4
Fore
SplineSet
597 176 m 1
 573 0 l 1
 9 0 l 1
 9 15 l 1
 446 624 l 1
 225 624 l 2
 110 621 74 592 57 491 c 1
 31 491 l 1
 51 662 l 1
 577 662 l 1
 577 647 l 1
 145 38 l 1
 402 38 l 1
 510 42 544 69 574 176 c 1
 597 176 l 1
250 719 m 1
 397 867 l 2
 415 885 424 890 439 890 c 0
 461 890 474 878 474 858 c 0
 474 842 465 829 444 816 c 2
 290 719 l 1
 250 719 l 1
EndSplineSet
EndChar

StartChar: Zdotaccent
Encoding: 379 379 271
Width: 611
Flags: MW
HStem: 0 38<145 402 145 573> 624 38<225 446 225 225> 735 100<310 336.5 310 336.5>
VStem: 275 98<771.5 798.5 771 799>
LayerCount: 4
Fore
SplineSet
597 176 m 1
 573 0 l 1
 9 0 l 1
 9 15 l 1
 446 624 l 1
 225 624 l 2
 110 621 74 592 57 491 c 1
 31 491 l 1
 51 662 l 1
 577 662 l 1
 577 647 l 1
 145 38 l 1
 402 38 l 1
 510 42 544 69 574 176 c 1
 597 176 l 1
323 835 m 0
 350 835 373 812 373 785 c 0
 373 757 350 735 323 735 c 0
 296 735 275 757 275 786 c 0
 275 812 297 835 323 835 c 0
EndSplineSet
EndChar

StartChar: Amacron
Encoding: 256 256 272
Width: 722
Flags: MW
HStem: 0 19<189 213 15 15> 216 41<216 447 216 461 199 447> 759 54<206 517 206 517>
VStem: 15 130<0 66 19 66> 15 691<0 19 0 19>
LayerCount: 4
Fore
SplineSet
706 0 m 1xe8
 451 0 l 1
 451 19 l 1
 504 20 521 28 521 53 c 0
 521 67 514 93 502 120 c 2
 461 216 l 1
 199 216 l 1
 153 99 l 2
 148 86 145 72 145 60 c 0
 145 31 165 19 213 19 c 1
 213 0 l 1
 15 0 l 1
 15 19 l 1xf0
 63 21 75 37 139 183 c 2
 347 674 l 1
 367 674 l 1
 616 106 l 2
 651 32 661 22 706 19 c 1
 706 0 l 1xe8
447 257 m 1
 331 532 l 1
 216 257 l 1
 447 257 l 1
517 813 m 1
 517 759 l 1
 206 759 l 1
 206 813 l 1
 517 813 l 1
EndSplineSet
EndChar

StartChar: uni0162
Encoding: 354 354 273
Width: 611
Flags: MW
HStem: -146 108<277.5 298.5> 0 19<160 452 160 160> 620 42<200 254 200 200 356 356 356 410>
VStem: 20 21 254 102<120 620 109 620> 336 39<-157 -152> 569 21<492 492>
LayerCount: 4
Fore
SplineSet
452 0 m 1x7a
 160 0 l 1
 160 19 l 1
 244 24 253 34 254 120 c 2
 254 620 l 1
 200 620 l 2
 85 618 64 601 41 492 c 1
 17 492 l 1
 23 662 l 1
 587 662 l 1
 593 492 l 1
 569 492 l 1
 547 601 526 618 410 620 c 2
 356 620 l 1
 356 109 l 2
 357 36 370 23 452 19 c 1
 452 0 l 1x7a
254 -262 m 1xf6
 308 -225 336 -188 336 -156 c 0
 336 -148 330 -142 322 -142 c 0
 321 -142 320 -142 315 -144 c 0
 309 -145 302 -146 295 -146 c 0
 258 -146 236 -127 236 -95 c 0
 236 -61 260 -38 295 -38 c 0
 340 -38 375 -77 375 -127 c 0
 375 -187 330 -248 263 -281 c 1
 254 -262 l 1xf6
EndSplineSet
EndChar

StartChar: uni021A
Encoding: 538 538 274
Width: 611
Flags: MW
HStem: -146 108<277.5 298.5> 0 19<160 452 160 160> 620 42<200 254 200 200 356 356 356 410>
VStem: 20 21 254 102<120 620 109 620> 336 39<-157 -152> 569 21<492 492>
LayerCount: 4
Fore
SplineSet
452 0 m 1x7a
 160 0 l 1
 160 19 l 1
 244 24 253 34 254 120 c 2
 254 620 l 1
 200 620 l 2
 85 618 64 601 41 492 c 1
 17 492 l 1
 23 662 l 1
 587 662 l 1
 593 492 l 1
 569 492 l 1
 547 601 526 618 410 620 c 2
 356 620 l 1
 356 109 l 2
 357 36 370 23 452 19 c 1
 452 0 l 1x7a
254 -262 m 1xf6
 308 -225 336 -188 336 -156 c 0
 336 -148 330 -142 322 -142 c 0
 321 -142 320 -142 315 -144 c 0
 309 -145 302 -146 295 -146 c 0
 258 -146 236 -127 236 -95 c 0
 236 -61 260 -38 295 -38 c 0
 340 -38 375 -77 375 -127 c 0
 375 -187 330 -248 263 -281 c 1
 254 -262 l 1xf6
EndSplineSet
EndChar

